<svg viewBox="0 0 15 21" fill="none" xmlns="http://www.w3.org/2000/svg">
  <path d="M7.34395 20.3217C10.9005 20.3217 13.7836 16.0035 13.7836 10.6767C13.7836 5.34995 10.9005 1.03174 7.34395 1.03174C3.78743 1.03174 0.904297 5.34995 0.904297 10.6767C0.904297 16.0035 3.78743 20.3217 7.34395 20.3217Z" stroke="#A58A63" stroke-miterlimit="10"/>
  <path d="M7.27633 1.2326L5.5139 3.97875L2.80247 3.91177L3.00583 7.86354L1.04004 10.7436L2.93804 13.4898V17.5085L5.64947 17.3746L7.34412 20.1877" stroke="#A58A63" stroke-miterlimit="10" stroke-linecap="round" stroke-linejoin="round"/>
  <path d="M4.97266 1.76849L5.51494 3.97881" stroke="#A58A63" stroke-miterlimit="10" stroke-linecap="round" stroke-linejoin="round"/>
  <path d="M5.5822 3.97882L3.00634 13.4229L2.93855 13.4899L1.44727 14.3606" stroke="#A58A63" stroke-miterlimit="10" stroke-linecap="round" stroke-linejoin="round"/>
  <path d="M9.31059 3.9118L3.00651 7.86357L1.58301 7.05982" stroke="#A58A63" stroke-miterlimit="10" stroke-linecap="round" stroke-linejoin="round"/>
  <path d="M3.00684 7.86359L5.65048 17.3746L11.819 13.5568" stroke="#A58A63" stroke-miterlimit="10" stroke-linecap="round" stroke-linejoin="round"/>
  <path d="M5.64971 17.3746L5.10742 19.518" stroke="#A58A63" stroke-miterlimit="10" stroke-linecap="round" stroke-linejoin="round"/>
  <path d="M9.24255 17.5086L2.93848 13.4898" stroke="#A58A63" stroke-miterlimit="10" stroke-linecap="round" stroke-linejoin="round"/>
  <path d="M7.41349 1.2326L9.10813 3.97875L11.8874 3.91177L11.684 7.86354L13.6498 10.7436L11.7518 13.4898V17.5085L9.04035 17.3746L7.3457 20.1877" stroke="#A58A63" stroke-miterlimit="10" stroke-linecap="round" stroke-linejoin="round"/>
  <path d="M9.71652 1.76849L9.10645 3.97881" stroke="#A58A63" stroke-miterlimit="10" stroke-linecap="round" stroke-linejoin="round"/>
  <path d="M9.10645 3.97882L11.6823 13.4229L11.7501 13.4899L13.1736 14.3606" stroke="#A58A63" stroke-miterlimit="10" stroke-linecap="round" stroke-linejoin="round"/>
  <path d="M5.37793 3.9118L11.682 7.86357L13.1055 7.05982" stroke="#A58A63" stroke-miterlimit="10" stroke-linecap="round" stroke-linejoin="round"/>
  <path d="M11.6842 7.86359L9.04058 17.3746L2.87207 13.5568" stroke="#A58A63" stroke-miterlimit="10" stroke-linecap="round" stroke-linejoin="round"/>
  <path d="M9.03906 17.3746L9.58135 19.518" stroke="#A58A63" stroke-miterlimit="10" stroke-linecap="round" stroke-linejoin="round"/>
  <path d="M5.44629 17.5086L11.7504 13.4898" stroke="#A58A63" stroke-miterlimit="10" stroke-linecap="round" stroke-linejoin="round"/>
</svg>
