<svg viewBox="0 0 21 21" fill="none" xmlns="http://www.w3.org/2000/svg">
  <path d="M0.819336 12.3526V4.19147L4.00526 0.819092H11.055" stroke="#A58A63" stroke-miterlimit="10"/>
  <path d="M19.8665 12.3535V4.19238L16.6806 0.820007H9.63086" stroke="#A58A63" stroke-miterlimit="10"/>
  <path d="M19.8655 8.4408V16.6019L16.6796 19.9743H9.62988" stroke="#A58A63" stroke-miterlimit="10"/>
  <path d="M0.818359 8.4408V16.6019L4.00429 19.9743H11.054" stroke="#A58A63" stroke-miterlimit="10"/>
  <path d="M2.92188 11.8805V5.60787L5.42995 2.97742H10.9206" stroke="#A58A63" stroke-miterlimit="10"/>
  <path d="M17.7663 11.8805V5.60787L15.2582 2.97742H9.76758" stroke="#A58A63" stroke-miterlimit="10"/>
  <path d="M17.7663 8.91278V15.2528L15.2582 17.8833H9.76758" stroke="#A58A63" stroke-miterlimit="10"/>
  <path d="M2.92188 8.91278V15.2528L5.42995 17.8833H10.9206" stroke="#A58A63" stroke-miterlimit="10"/>
  <path d="M0.818359 4.19159C0.818359 4.19159 4.27543 5.74288 5.56336 10.127C7.32579 16.0623 4.00429 20.0417 4.00429 20.0417" stroke="#A58A63" stroke-miterlimit="10"/>
  <path d="M0.821289 16.6018C0.821289 16.6018 4.27836 15.0505 5.56629 10.6664C7.32872 4.79849 4.00722 0.819092 4.00722 0.819092" stroke="#A58A63" stroke-miterlimit="10"/>
  <path d="M19.7996 4.19147C19.7996 4.19147 16.3426 5.74276 15.0546 10.1268C13.2922 16.0622 16.6137 20.0416 16.6137 20.0416" stroke="#A58A63" stroke-miterlimit="10"/>
  <path d="M19.8016 16.6019C19.8016 16.6019 16.3445 15.0506 15.0566 10.6665C13.2942 4.73111 16.6157 0.751709 16.6157 0.751709" stroke="#A58A63" stroke-miterlimit="10"/>
  <path d="M4.07227 0.886597C4.07227 0.886597 5.63134 4.32642 10.0374 5.60792C16.0026 7.36155 20.0019 4.05663 20.0019 4.05663" stroke="#A58A63" stroke-miterlimit="10"/>
  <path d="M16.6142 0.886597C16.6142 0.886597 15.0551 4.32642 10.6491 5.60792C4.75171 7.36155 0.68457 4.05663 0.68457 4.05663" stroke="#A58A63" stroke-miterlimit="10"/>
  <path d="M16.6142 19.9068C16.6142 19.9068 15.0551 16.467 10.6491 15.1855C4.68393 13.4318 0.68457 16.7368 0.68457 16.7368" stroke="#A58A63" stroke-miterlimit="10"/>
  <path d="M4.07324 19.9068C4.07324 19.9068 5.63231 16.467 10.0384 15.1855C16.0035 13.4318 20.0029 16.7368 20.0029 16.7368" stroke="#A58A63" stroke-miterlimit="10"/>
</svg>
