<svg id="icon-13" viewBox="0 0 49.999992 50.014806" width="100%" height="100%">
	  <path d="M22.65429 49.95563c-5.88267-.61231-11.22535-3.1394-15.34341-7.25746C3.4844 38.87169 1.0137 33.94671.19058 28.50488c-.25411-1.68-.25411-5.32069 0-7.0007.82312-5.44182 3.29382-10.3668 7.1203-14.19329 3.82649-3.82648 8.75147-6.29718 14.19329-7.1203 1.68001-.25412 5.3207-.25412 7.00071 0 5.43634.82229 10.35807 3.29357 14.18905 7.12454 3.19747 3.19748 5.46491 7.16723 6.56213 11.48878.60323 2.37592.74393 3.54866.74393 6.20062 0 2.65197-.1407 3.82471-.74393 6.20063-.86466 3.40558-2.57345 6.8027-4.82938 9.60096-.82646 1.02514-2.59352 2.79243-3.62057 3.62104-3.4933 2.81837-7.81474 4.71671-12.25123 5.38179-1.24291.18632-4.6952.27214-5.90059.14668zm-.80008-17.65036c1.67699-1.67767 3.09409-3.05031 3.1491-3.05031.055 0 1.48047 1.37989 3.16766 3.06643l3.06763 3.06643 2.05848-1.98538c1.13217-1.09196 2.05849-2.03333 2.05849-2.09194 0-.0586-1.37264-1.47866-3.05031-3.15565s-3.05031-3.09464-3.05031-3.15032c0-.0557 1.37348-1.4736 3.05218-3.15093 1.67869-1.67733 3.04008-3.0947 3.0253-3.1497-.0148-.055-.94016-.99788-2.0564-2.09528l-2.02953-1.99527-3.07158 3.07038c-1.68937 1.6887-3.11659 3.07037-3.17161 3.07037-.055 0-1.47211-1.37263-3.1491-3.0503-1.677-1.67767-3.09477-3.05031-3.15062-3.05031-.0558 0-1.0124.91168-2.12568 2.02595l-2.02415 2.02596 3.10017 3.09895c1.70509 1.70443 3.10017 3.14451 3.10017 3.20018 0 .0557-1.39508 1.49575-3.10017 3.20018l-3.10017 3.09896 2.02415 2.02595c1.11328 1.11427 2.06983 2.02595 2.12568 2.02595.0559 0 1.47362-1.37264 3.15062-3.0503z"></path>
  </svg>
