<svg xmlns="http://www.w3.org/2000/svg" xmlns:xlink="http://www.w3.org/1999/xlink" class="hidden">
  <symbol id="icon-1" viewbox="0 0 16 15">
    <path d="M4.696883 10.5038L0 6.00759V0h6.953077l4.523462 4.32837L16 8.65675l-3.303118 3.17163L9.393765 15l-4.696882-4.4962zm-.896972-5.87882c.26618-.0663.427561-.15407.639887-.34786.819811-.74822.38292-2.06998-.745402-2.25512-.978096-.16049-1.809077.72069-1.55736 1.65143.187334.69269.950135 1.12919 1.662875.95155z"></path>
  </symbol>
  <symbol id="icon-3" viewbox="0 0 31.96094 49.93633">
    <path d="M14.3163 48.34362C6.8912 35.5612 1.87822 25.02865.4676 19.24676.10303 17.75246.00113 17.01353 0 15.85584c-.002-2.41032.54062-4.72242 1.62476-6.91885.79833-1.6174 1.66132-2.84158 2.8906-4.1004C7.1416 2.14727 10.57277.47198 14.27892.06952c.85355-.0927 2.5428-.0927 3.39633 0 6.85314.7442 12.54884 5.87725 13.94415 12.56665.3557 1.70533.4406 3.59446.22162 4.93226-.92796 5.6695-5.98608 16.62934-14.20317 30.7752l-.92517 1.5927h-1.47118l-.92518-1.5927zm3.5925-22.93024c3.86827-.81335 6.85487-3.86908 7.56706-7.7422.16196-.8808.1609-2.5488-.002-3.39092-.38388-1.98276-1.21692-3.5907-2.59654-5.01187-1.07463-1.107-2.30584-1.8955-3.76266-2.40967-1.94373-.68603-4.3253-.68633-6.2749-.00078-1.45223.51067-2.50962 1.18096-3.6534 2.31592-1.46708 1.4558-2.30525 3.03758-2.7058 5.1064-.16304.84212-.1641 2.51012-.002 3.3909.76634 4.1676 4.06095 7.28135 8.33424 7.87678.69587.097 2.3337.0258 3.0963-.13457z"></path>
  </symbol>
  <symbol id="icon-5" viewBox="0 0 50 49.986">
    <path d="M39.347 49.847a8.607 8.607 0 0 1-4.175-2.236c-1.718-1.64-2.623-3.567-2.744-5.843l-.057-1.082-8.885-4.443c-4.887-2.444-8.924-4.443-8.97-4.443-.047 0-.448.242-.89.539-1.566 1.048-3.3 1.523-5.22 1.432-1.361-.065-2.151-.253-3.29-.78C1.952 31.525 0 28.493 0 25.044c0-.622.067-1.449.148-1.837.72-3.422 3.433-6.14 6.85-6.865.984-.209 2.785-.18 3.784.059a9.169 9.169 0 0 1 2.978 1.345c.357.25.693.454.745.454.053 0 4.094-2 8.98-4.443l8.886-4.443.057-1.082c.068-1.275.325-2.261.88-3.37.49-.98.816-1.43 1.669-2.296C36.647.869 38.755 0 41.2 0c2.437 0 4.537.863 6.237 2.563C49.127 4.253 50 6.365 50 8.761c0 2.533-.928 4.703-2.742 6.41-.915.86-1.553 1.277-2.726 1.78-2.754 1.181-6.16.742-8.58-1.105l-.434-.33-8.959 4.497-8.959 4.498v.989l8.9 4.45c4.895 2.447 8.95 4.45 9.01 4.45.061 0 .275-.13.476-.288.947-.75 2.492-1.397 3.862-1.618.93-.15 2.75-.069 3.602.16 2.659.718 5.055 2.868 6 5.384.142.38.324 1 .404 1.382.188.894.187 2.672-.003 3.573a8.912 8.912 0 0 1-6.859 6.859c-.863.181-2.81.18-3.645-.004z"/>
  </symbol>
  <symbol id="icon-6" viewBox="0 0 50 50.986">
    <path d="M13.455 37.531L0 24.077V6.056h19.974L32.99 19.07l13.016 13.015-9.45 9.45c-5.197 5.198-9.494 9.45-9.548 9.45-.054 0-6.152-6.055-13.552-13.455zM11.63 19.667c1.09-.51 1.726-1.209 2.14-2.351.186-.509.215-.75.18-1.478-.035-.73-.092-.971-.352-1.501-1.239-2.515-4.497-3.067-6.434-1.09-2.071 2.115-1.2 5.666 1.618 6.597.85.28 2.025.208 2.848-.177zm22.858-3.394L21.978 4.005H4.005V0l9.987.002 9.987.002 13.01 12.893L50 25.789l-1.24 1.14c-.683.627-1.358 1.247-1.501 1.376l-.26.236z"/>
  </symbol>
  <symbol id="icon-7" viewBox="0 0 50 47.593">
    <path d="M.106 46.895l.205-1.702.121-1.004-.155-.165c-.206-.22-.276-.558-.277-1.336 0-1.196.312-2.09 1.095-3.133 1.12-1.49 2.787-2.726 5.545-4.108.337-.17 1.257-.7 2.044-1.178 4.133-2.515 6.229-3.562 8.784-4.388.916-.296 2.373-.683 2.573-.683.214 0 .179-.101-.225-.635-1.09-1.442-2.132-3.574-3.352-6.86-1.071-2.882-1.1-3.083-1.185-8.04-.091-5.333-.056-5.907.46-7.45 1.18-3.532 3.3-5.422 6.828-6.086.805-.151 3.754-.173 4.546-.034 3.53.623 5.735 2.51 6.903 5.906.533 1.548.555 1.702.557 3.815.002 3.097-.086 7.515-.164 8.179-.156 1.335-.316 1.92-1.062 3.88-1.228 3.225-2.319 5.393-3.504 6.965l-.217.287.157.034c3.609.793 6.32 1.94 10.207 4.317.581.356 1.409.86 1.84 1.123.43.263 1.335.769 2.01 1.125 1.503.795 2.214 1.23 3.042 1.865 1.457 1.118 2.499 2.42 2.932 3.666.158.455.228 1.308.16 1.943-.041.388-.083.5-.247.665l-.198.197.227 1.767.227 1.766H.021z"/>
  </symbol>
  <symbol id="icon-8" viewBox="0 0 13.229 12.451">
    <path d="M0 0h3.349v3.377h-3.35zM4.17 0h9.059v3.38h-9.06zM.014 4.533h3.349V7.91H.013zM0 9.074h3.349v3.377h-3.35zM4.17 9.071h9.059v3.38h-9.06zM4.17 4.53h9.059v3.38h-9.06z"/>
  </symbol>
  <symbol id="icon-9" viewBox="0 0 4.233 4.233">
    <path d="M0 0h1.901v1.901h-1.9zM2.332 0h1.901v1.901h-1.9zM2.332 2.333h1.901v1.901h-1.9zM0 2.333h1.901v1.901h-1.9z"/>
  </symbol>
  <symbol id="icon-10" viewBox="0 0 4.498 4.233">
    <path d="M0 0h1.193v4.233H0zM1.475 1.193V0h3.022v1.193zM1.475 4.233V3.04h3.022v1.193zM1.474 2.717V1.524h3.022v1.193z"/>
  </symbol>
  <symbol id="icon-11" viewBox="0 0 4.498 4.233">
    <path d="M0 1.193V0h4.493v1.193zM0 4.234V3.04h4.493v1.193zM0 2.717V1.524h4.493v1.193z"/>
  </symbol>
  <symbol id="icon-12" viewBox="0 0 13.229 12.451">
    <path d="M0 0h3.349v3.377h-3.35zM0 4.533h3.349V7.91h-3.35zM0 9.074h3.349v3.377h-3.35zM9.88 0h3.349v3.377h-3.35zM9.88 4.533h3.349V7.91h-3.35zM4.897.005h3.349v3.377h-3.35zM4.897 4.533h3.349V7.91h-3.35zM4.897 9.074h3.349v3.377h-3.35zM9.88 9.074h3.35v3.377H9.88z"/>
  </symbol>
  <symbol id="icon-13" viewBox="0 0 49.999992 50.014806">
	  <path d="M22.65429 49.95563c-5.88267-.61231-11.22535-3.1394-15.34341-7.25746C3.4844 38.87169 1.0137 33.94671.19058 28.50488c-.25411-1.68-.25411-5.32069 0-7.0007.82312-5.44182 3.29382-10.3668 7.1203-14.19329 3.82649-3.82648 8.75147-6.29718 14.19329-7.1203 1.68001-.25412 5.3207-.25412 7.00071 0 5.43634.82229 10.35807 3.29357 14.18905 7.12454 3.19747 3.19748 5.46491 7.16723 6.56213 11.48878.60323 2.37592.74393 3.54866.74393 6.20062 0 2.65197-.1407 3.82471-.74393 6.20063-.86466 3.40558-2.57345 6.8027-4.82938 9.60096-.82646 1.02514-2.59352 2.79243-3.62057 3.62104-3.4933 2.81837-7.81474 4.71671-12.25123 5.38179-1.24291.18632-4.6952.27214-5.90059.14668zm-.80008-17.65036c1.67699-1.67767 3.09409-3.05031 3.1491-3.05031.055 0 1.48047 1.37989 3.16766 3.06643l3.06763 3.06643 2.05848-1.98538c1.13217-1.09196 2.05849-2.03333 2.05849-2.09194 0-.0586-1.37264-1.47866-3.05031-3.15565s-3.05031-3.09464-3.05031-3.15032c0-.0557 1.37348-1.4736 3.05218-3.15093 1.67869-1.67733 3.04008-3.0947 3.0253-3.1497-.0148-.055-.94016-.99788-2.0564-2.09528l-2.02953-1.99527-3.07158 3.07038c-1.68937 1.6887-3.11659 3.07037-3.17161 3.07037-.055 0-1.47211-1.37263-3.1491-3.0503-1.677-1.67767-3.09477-3.05031-3.15062-3.05031-.0558 0-1.0124.91168-2.12568 2.02595l-2.02415 2.02596 3.10017 3.09895c1.70509 1.70443 3.10017 3.14451 3.10017 3.20018 0 .0557-1.39508 1.49575-3.10017 3.20018l-3.10017 3.09896 2.02415 2.02595c1.11328 1.11427 2.06983 2.02595 2.12568 2.02595.0559 0 1.47362-1.37264 3.15062-3.0503z"></path>
  </symbol>
  <symbol id="icon-16" viewBox="0 0 50 50">
    <path d="M 25.000143,50.00038 C 38.780464,50.00038 50,38.78255 50,25.00014 50,11.21773 38.779988,0 25.000143,0 11.217159,0 0,11.21716 0,25.00014 0,38.78313 11.216684,50.00038 25.000143,50.00038 Z m 12.4995,-31.69317 -3.565798,-3.724 -12.967925,13.53779 -4.901096,-5.11491 -3.564563,3.72286 8.319342,8.68708 0.146317,-0.14936 0.142609,0.14936 z" fill-rule="evenodd"></path>
  </symbol>
  <symbol id="icon-19" viewBox="0 0 50 25">
    <path d="M0 0l25 25L50 0z"/>
  </symbol>
  <symbol id="icon-20" viewBox="0 0 50 25">
    <path d="M0 25L25 0l25 25z"/>
  </symbol>
  <symbol id="icon-21" viewBox="0 0 25 50">
    <path d="M0 0l25 25L0 50z"/>
  </symbol>
  <symbol id="icon-22" viewBox="0 0 25 50">
    <path d="M25 0L0 25l25 25z"/>
  </symbol>
  <symbol id="icon-23" viewBox="0 0 49.763 76.069">
    <path d="M19.017 57.051L0 38.034l19.017-19.017L38.035 0l5.864 5.864 5.864 5.864-13.414 13.414-13.414 13.415L36.11 51.734 49.288 64.91l-5.58 5.58c-3.068 3.068-5.6 5.579-5.627 5.579-.026 0-8.605-8.558-19.064-19.018z"/>
  </symbol>
  <symbol id="icon-24" viewBox="0 0 49.863 76.271">
    <path d="M6.064 70.672L.466 65.073l13.2-13.2 13.199-13.199-13.432-13.437L0 11.8l5.847-5.9L11.693 0l19.085 19.078 19.085 19.079-19.057 19.057c-10.482 10.481-19.077 19.057-19.1 19.057-.024 0-2.563-2.52-5.642-5.599z"/>
  </symbol>
  <symbol id="icon-25" viewBox="0 0 50 38.83">
    <path d="M3.255 38.787C1.73 38.528.27 37.077.052 35.603c-.044-.296-.06-4.693-.048-13.375L.02 9.295l.144-.423c.302-.89 1.121-1.84 1.97-2.284.922-.482.128-.443 9.463-.464 4.598-.01 8.885-.01 9.526 0l1.168.017-.864.42c-2.647 1.286-4.914 2.76-6.936 4.51l-.608.527H5.478v21.765h5.485c3.919 0 5.625.022 5.977.075.655.1 3.6.101 4.387.002.453-.057 2.72-.077 8.722-.077h8.11V26.18l2.633-2.001 2.715-2.063c.064-.05.076 1.257.063 6.808l-.017 6.87-.17.424c-.442 1.1-1.4 2.024-2.527 2.436l-.458.168-18.422.008c-10.132.005-18.556-.014-18.72-.042zm7.361-13.341c.018-.243.05-.725.07-1.07.184-3.046 1.405-6.17 3.354-8.583.954-1.18 2.462-2.553 3.867-3.517 3.095-2.125 7.594-3.794 11.943-4.43.548-.08 1.01-.158 1.025-.174.016-.015.028-1.752.028-3.86 0-2.108.024-3.824.053-3.812.08.032 19.058 12.886 19.044 12.898-.007.006-4.3 2.926-9.539 6.488l-9.526 6.477-.016-4.208-.017-4.21-1.94.04c-2.134.045-2.61.082-4.651.365-3.054.422-4.707.859-6.78 1.79-2.79 1.255-5.233 3.35-6.604 5.668l-.343.58z"/>
  </symbol>
  <symbol id="icon-27" viewBox="0 0 50 47.903">
    <path d="M45.74 47.812a4.91 4.91 0 0 1-.744-.285c-.482-.246-12.938-12.544-13.304-13.135l-.115-.187-.769.557c-6.982 5.057-16.59 4.905-23.366-.37C3.455 31.288.888 26.883.14 21.862c-.17-1.145-.19-4.038-.033-5.084.47-3.147 1.42-5.682 3.042-8.112 3.11-4.66 7.856-7.654 13.508-8.52 1.265-.194 4.17-.194 5.435 0 6.427.985 11.795 4.824 14.647 10.474.968 1.92 1.59 3.944 1.905 6.198.157 1.128.134 3.913-.043 5.08a19.8 19.8 0 0 1-2.376 6.829c-.192.333-.35.622-.35.642 0 .02.168.134.374.253.434.253 12.817 12.472 13.194 13.02.426.619.557 1.069.557 1.9 0 .58-.039.846-.17 1.181-.342.87-1.123 1.65-1.983 1.978-.565.216-1.55.268-2.107.111zM20.477 32.487c3.13-.27 5.44-1.31 8.44-3.798.564-.467.735-.676 1.38-1.69 1.736-2.736 2.386-4.662 2.48-7.346.102-2.872-.636-5.448-2.245-7.84-3.071-4.568-8.755-6.821-14.111-5.595-5.241 1.2-9.193 5.262-10.255 10.54-.257 1.275-.258 3.642-.003 4.908.253 1.26.583 2.21 1.202 3.461 2.026 4.101 6.194 6.95 10.754 7.352 1.113.098 1.3.1 2.358.007zm-3.111-8.541V21.78h-4.332v-4.411h4.332v-4.332h4.332V17.366l2.185.021 2.186.021.021 2.186.021 2.186h-4.413V26.11h-4.332z"/>
  </symbol>
  <symbol id="icon-28" viewBox="0 0 49.999998 43.450326">
    <path d="M1.62276 43.3144c-1.68417-.4878-2.06579-1.7105-1.10567-3.5426C2.10475 36.7423 22.79494 1.3798 23.26787.8874c1.10747-1.153 2.51202-1.1849 3.56219-.081.38769.4075 21.56257 36.8668 22.78931 39.2391.68891 1.3322.42923 2.5208-.67005 3.0669-.59661.2964-1.44622.3084-23.69702.3346-14.65723.017-23.27938-.031-23.62954-.1325zm25.21448-4.7557c.89572-.6208 1.37411-1.5354 1.37411-2.6273 0-3.1569-3.89137-4.521-5.77932-2.026-1.2141 1.6045-.70264 3.9594 1.05365 4.8513.99987.5078 2.45733.4217 3.35156-.198zm.32869-10.6053c1.08989-.5748 1.0979-.6281 1.15576-7.6935.0632-7.7107-.0118-8.5768-1.03917-9.1331-.73519-.2656-1.42715-.2396-2.19565-.245-1.56202-.011-1.91479.05-2.37308.3327-1.04204.644-1.06892.8727-1.01563 8.6382.0537 7.8235.01 7.5574 1.3455 8.1835.84939.3983 3.30373.349 4.12227-.083z"></path>
  </symbol>
  <symbol id="icon-32" viewBox="0 0 50 49.977">
    <path d="M23.072 49.936c-4.772-.395-9.22-2.086-13.107-4.983-.21-.157-.297-.188-.363-.133-.128.106-4.54-4.307-4.424-4.423.062-.062.034-.14-.129-.359C.465 33.886-1.074 26.337.746 18.928c.414-1.685.93-3.105 1.738-4.78 2.184-4.526 5.604-8.225 9.969-10.782.786-.46 2.546-1.315 3.385-1.643C18.563.657 21.328.099 24.316.01c5.648-.166 11.087 1.574 15.728 5.032.219.163.297.19.359.129.116-.117 4.529 4.296 4.423 4.423-.055.067-.024.153.133.364 3.454 4.633 5.196 10.082 5.03 15.725-.142 4.828-1.555 9.252-4.235 13.257-3.415 5.105-8.759 8.858-14.683 10.313-1.11.273-2.103.455-3.22.59-1.013.124-3.76.176-4.78.092zm3.789-6.285c2.879-.274 5.759-1.274 8.256-2.864 2.07-1.318 4.358-3.607 5.676-5.676a19.01 19.01 0 0 0 2.873-8.274c.101-.973.042-3.68-.1-4.557-.45-2.771-1.377-5.195-2.88-7.524-.198-.309-.384-.56-.412-.56-.105 0-26.088 26.042-26.047 26.107.068.111 1.387.92 2.17 1.332 3.183 1.672 6.787 2.367 10.464 2.016zm-4.05-20.882l13.027-13.03-.164-.129c-.313-.246-1.346-.872-2.065-1.25-1.782-.938-3.735-1.577-5.89-1.926-.877-.142-3.583-.201-4.556-.1a19.01 19.01 0 0 0-8.274 2.873c-2.07 1.318-4.358 3.607-5.676 5.676a19.01 19.01 0 0 0-2.872 8.274c-.102.973-.043 3.68.1 4.557.39 2.407 1.154 4.6 2.28 6.546.416.717.955 1.539 1.011 1.539.028 0 5.913-5.864 13.078-13.03z"/>
  </symbol>
  <symbol id="icon-34" viewBox="0 0 50.000001 54.54374">
    <path d="M27.272381 54.54374h15.90914a4.5450729 4.5450729 0 0 0 4.545482-4.54548V31.81725H27.272381v22.72649zM2.2726899 31.81725v18.18101a4.5452774 4.5452774 0 0 0 4.5459943 4.54548H22.727309V31.81725H2.2726899zM22.727309 15.90883H6.8182748L0 20.4537v9.09117h22.727309V15.90883zm24.999694 13.63604H50V20.4537l-6.818379-4.54487h-15.90924v13.63604h20.454622zM33.522714 0c-3.693006 0-7.386421 3.97734-7.386421 15.90883 0 0 14.772945 0 14.772945-7.95426C40.909238 3.97734 37.215926 0 33.522714 0zM29.21385 12.5192c.439548-5.77045 2.034024-9.33772 4.308864-9.33772 2.071192 0 4.431936 2.54136 4.431936 4.77268 0 2.62593-4.716162 4.05792-8.7408 4.56504zM11.363142 7.95457c0 7.95426 14.772741 7.95426 14.772741 7.95426C26.135883 3.97734 22.442673 0 18.749564 0c-3.693108 0-7.386422 3.97734-7.386422 7.95457zm2.95459 0c0-2.23132 2.360128-4.77268 4.431832-4.77268 2.274943 0 3.870852 3.5684 4.308968 9.33997-4.024434-.4974-8.740391-1.92764-8.740391-4.56729z" fill-rule="evenodd"></path>
  </symbol>
  <symbol id="icon-35" viewBox="0 0 50.001 41.201">
    <path d="M3.307 41.027c-.462-.336-.934-1.24-1.238-2.374-.124-.464-.128-.594-.128-3.927V31.28l.255-.53c.383-.797.967-1.666 1.81-2.694.352-.43 9.277-8.845 9.79-9.231.277-.208.837-.503 1.366-.72l.212-.086.673-2.986c.394-1.752.732-3.118.817-3.304.284-.62.95-1.188 1.642-1.402.37-.114.577-.118 6.48-.118 6.7 0 6.384-.016 7.054.364.402.228.895.756 1.077 1.154.087.19.42 1.542.82 3.32l.675 3 .39.17c.66.284 1.19.633 1.73 1.137 5.5 5.132 8.588 8.051 8.99 8.497.934 1.032 1.876 2.392 2.182 3.15.136.337.137.358.154 3.59.015 3.013.01 3.292-.1 3.807-.241 1.167-.804 2.308-1.305 2.649l-.229.155H3.548zm23.75-3.869c1.798-.414 3.282-1.211 4.573-2.454 1.317-1.268 2.2-2.76 2.65-4.469.255-.974.323-1.647.285-2.809-.05-1.528-.286-2.477-.97-3.88-2.506-5.151-9.003-6.948-13.82-3.82-1.493.969-2.569 2.174-3.357 3.76-.452.911-.649 1.461-.854 2.394-.115.523-.132.78-.131 1.922 0 1.133.02 1.402.132 1.904.41 1.843 1.236 3.398 2.493 4.704 1.282 1.33 2.803 2.227 4.513 2.659 1.021.258 1.318.289 2.6.27 1.026-.014 1.257-.036 1.886-.181zm-3.045-3.69c-1.337-.242-2.703-1.05-3.513-2.078-.44-.558-.91-1.483-1.093-2.149-.108-.396-.132-.646-.135-1.439 0-.824.015-1.03.133-1.464.568-2.077 2.195-3.657 4.306-4.182.618-.153 2.056-.138 2.669.029 1.73.47 3.131 1.635 3.86 3.212.378.82.478 1.325.473 2.406-.01 1.143-.104 1.586-.563 2.517a5.81 5.81 0 0 1-3.573 3c-.448.134-.679.163-1.405.18-.478.012-1-.002-1.16-.031zM.219 18.906l-.196-.175-.016-4.84c-.018-5.317-.028-5.147.348-5.953.317-.679 1.543-1.815 3.001-2.78C7.778 2.23 13.82.532 21.454.069c1.506-.092 5.568-.092 7.074 0 8.382.508 15.146 2.606 19.357 6.005 1.259 1.016 1.775 1.683 2.012 2.603.133.515.14 9.695.01 10.011-.086.205-.354.394-.556.39-.06 0-2.573-.754-5.585-1.673-6.026-1.84-5.763-1.738-6.078-2.34l-.165-.315v-1.899c0-2.054-.026-2.28-.336-2.899-.234-.469-.638-.812-1.442-1.227-1.208-.623-2.848-1.114-4.756-1.422-3.565-.576-8.424-.576-11.99 0-2.32.375-4.293 1.037-5.471 1.837-.393.267-.693.677-.892 1.218-.125.34-.133.483-.166 2.727-.034 2.334-.037 2.371-.172 2.589a1.523 1.523 0 0 1-.867.674C9.987 16.754.789 19.08.626 19.08c-.146 0-.267-.053-.404-.175z"/>
  </symbol>
  <symbol id="icon-36" viewBox="0 0 49.999 56.919">
    <path d="M23.383 56.9c-3.363-.295-5.968-.955-8.76-2.218-3.923-1.775-7.59-4.829-10.106-8.418C2.073 42.78.613 38.894.091 34.49c-.122-1.02-.12-4.206 0-5.245.838-7.167 4.388-13.34 10.106-17.573C16.4 7.079 24.551 5.63 31.973 7.8A25.204 25.204 0 0 1 48.17 22.387c.879 2.139 1.443 4.363 1.737 6.857.122 1.03.122 4.214 0 5.245-.446 3.774-1.552 7.083-3.418 10.221-1.895 3.187-4.653 6.065-7.767 8.105-3.329 2.18-6.706 3.42-10.778 3.955-.757.1-3.89.189-4.562.13zm4.563-5.192c3.4-.529 6.344-1.77 9.125-3.847 1.14-.851 3.036-2.748 3.888-3.888 2.704-3.62 4.052-7.646 4.052-12.107 0-3.321-.696-6.188-2.224-9.17-.938-1.83-1.957-3.25-3.417-4.76-3.15-3.26-7.113-5.274-11.712-5.949-1.21-.177-4.107-.177-5.317 0-4.655.684-8.587 2.699-11.81 6.053-3.118 3.245-5.012 7.367-5.474 11.913-.111 1.1-.05 3.765.11 4.787.586 3.753 2.045 7.038 4.388 9.88.678.823 2.115 2.25 2.907 2.885 2.885 2.32 6.534 3.865 10.059 4.26.375.042.78.09.898.106.119.016.975.02 1.904.006 1.24-.017 1.937-.062 2.623-.169zm-5.21-27.817V13.616H27.263v20.55H22.736zM5.063 10.939c-.383-.667-.534-1.233-.534-1.993 0-1.142.378-2.006 1.264-2.887.439-.438.692-.62 1.222-.881.952-.469 1.621-.625 2.68-.625.643 0 1.009.038 1.437.15.724.189 1.611.629 2.106 1.043l.38.32-.416.116c-2.06.573-3.832 1.45-5.375 2.658-.59.462-1.865 1.728-2.223 2.207-.11.148-.229.27-.263.27s-.159-.17-.278-.378zm14.634-6.55c-1.183-.427-1.785-1.695-1.381-2.91.162-.49.71-1.085 1.204-1.308L19.898 0h10.203l.379.171c.493.223 1.041.818 1.204 1.308.36 1.082-.076 2.22-1.057 2.764l-.382.212-5.137.016c-4.196.013-5.188-.002-5.41-.083z"/>
  </symbol>
  <symbol id="icon-37" viewBox="0 0 13.229 13.237">
    <path d="M6.02 13.223a6.47 6.47 0 0 1-2.319-.66 6.157 6.157 0 0 1-1.743-1.239A6.258 6.258 0 0 1 .67 9.532C.194 8.56 0 7.718 0 6.618s.196-1.954.67-2.914c.344-.7.698-1.199 1.238-1.744A6.286 6.286 0 0 1 3.701.67a6.488 6.488 0 0 1 2.02-.623C6.19-.021 7.104-.015 7.588.06a6.732 6.732 0 0 1 3.211 1.416c.314.255.865.824 1.096 1.133a6.77 6.77 0 0 1 1.146 2.379c.148.582.189.93.19 1.617 0 .69-.045 1.077-.19 1.645a6.819 6.819 0 0 1-1.317 2.59 6.705 6.705 0 0 1-3.483 2.204c-.484.123-.93.18-1.495.19-.278.006-.604.001-.725-.011zm.844-2.897c.141-.14.554-.492.917-.783.824-.66 1.164-.958 1.597-1.403.664-.682 1.045-1.297 1.216-1.965.07-.272.07-.918 0-1.176-.35-1.296-1.718-1.962-2.857-1.39-.415.209-.795.589-1.044 1.044l-.073.134-.066-.13c-.313-.618-.837-1.065-1.418-1.21a2.414 2.414 0 0 0-.87-.005 2.158 2.158 0 0 0-1.64 1.609c-.05.212-.056.297-.044.59.026.656.243 1.208.745 1.889.401.545.965 1.077 2.162 2.042.544.439.965.818 1.116 1.006.001.002.118-.111.259-.251z"/>
    <path d="M6.404 10.363c-.222-.221-.428-.402-.893-.781-1.305-1.065-1.79-1.527-2.214-2.109-.315-.432-.516-.83-.62-1.225-.087-.339-.117-.84-.064-1.102A2.145 2.145 0 0 1 3.78 3.622a1.88 1.88 0 0 1 .705-.2c.642-.057 1.16.144 1.628.631.171.179.328.399.434.609.036.071.068.13.072.13a.914.914 0 0 0 .073-.122c.304-.553.763-.966 1.281-1.152.208-.074.38-.102.635-.102.258.001.4.025.64.109.733.256 1.3.97 1.375 1.73.023.243.01.684-.027.861-.091.438-.364.985-.725 1.449-.431.555-.922 1.021-1.99 1.888-.557.452-.85.703-1.094.935l-.184.175z" fill="#fff"/>
  </symbol>
  <symbol id="icon-38" viewBox="0 0 50 47.541">
    <path d="M35.81.498c-4.644 0-8.842 2.433-10.794 6.225C23.062 2.93 18.813.498 14.168.498c-7.258 0-16.992 5.85-12.56 21.816 4.711 14.511 20.91 23.466 23.149 24.643 10.535-7.659 20.084-14.71 23.637-24.643C52.826 6.349 43.067.498 35.811.498z"/>
  </symbol>
  <symbol id="icon-40" viewBox="0 0 50 50">
    <path d="m 107.60136,839.09577 -1.47904,-1.47985 10.95688,-10.9648 10.95687,-10.96482 -10.95913,-10.96706 -10.95912,-10.96705 1.54583,-1.53295 1.54584,-1.53293 10.83667,10.84071 c 5.96016,5.9624 10.94241,10.84071 11.07166,10.84071 0.12925,0 5.1115,-4.87831 11.07166,-10.84071 l 10.83667,-10.84071 1.54584,1.53293 1.54583,1.53295 -10.95912,10.96705 -10.95913,10.96706 10.95913,10.96707 10.95912,10.96705 -1.54584,1.53295 -1.54584,1.53294 -10.95512,-10.95925 -10.95511,-10.95924 -10.89597,10.9039 c -5.99278,5.99714 -10.95077,10.9039 -11.01776,10.9039 -0.067,0 -0.78735,-0.66594 -1.60082,-1.47985 z" transform="translate(-106.118 -790.686)"></path>
  </symbol>
  <symbol id="icon-41" viewBox="0 0 50 32.118">
    <path d="M0 17.83C0 6.412.012 3.548.061 3.577c.034.02 3.093 2.325 6.799 5.122l6.738 5.085-.138.202c-.176.26-7.315 11.186-7.37 11.28-.046.08 1.311-1.295 6.285-6.368 1.966-2.004 3.416-3.445 3.447-3.427.03.018 2.08 1.564 4.555 3.435 3.173 2.398 4.537 3.402 4.623 3.402.086 0 1.457-1.01 4.623-3.402 2.476-1.871 4.526-3.417 4.555-3.435.031-.019 1.485 1.427 3.447 3.427 4.974 5.073 6.331 6.448 6.285 6.369-.055-.095-7.193-11.022-7.37-11.281l-.137-.202 6.737-5.085c3.706-2.797 6.765-5.102 6.799-5.122.049-.029.061 2.835.061 14.253v14.288H0zm12.921-7.604A3930.32 3930.32 0 0 1 .84 1.08C.77 1.01.777.99.908.853c.247-.26.818-.609 1.199-.734L2.47 0H47.53l.364.12c.383.125.953.474 1.201.736l.147.154-.127.11c-.383.331-24.072 18.18-24.125 18.178-.035-.002-5.466-4.084-12.069-9.072z"/>
  </symbol>
  <symbol id="icon-44" viewBox="0 0 50 47.85">
    <path d="m -594.9921,599.01304 c -0.23058,-0.0764 -0.58162,-0.2235 -0.78007,-0.32689 -0.42148,-0.21955 -12.8066,-12.4173 -13.12279,-12.92425 l -0.21355,-0.34237 -0.27861,0.21718 c -0.84584,0.65936 -2.31666,1.55918 -3.42296,2.0941 -4.65308,2.24986 -9.8786,2.57756 -14.77845,0.92678 -1.54647,-0.52102 -3.75608,-1.64306 -5.08336,-2.58134 -1.28527,-0.90859 -3.61886,-3.24129 -4.53299,-4.53129 -1.50911,-2.12959 -2.74113,-5.06177 -3.24119,-7.71391 -0.31317,-1.66093 -0.33531,-4.88624 -0.0445,-6.48384 0.50577,-2.77872 1.51525,-5.29337 3.03114,-7.55067 1.61618,-2.40663 4.25208,-4.78589 6.8838,-6.21357 6.94328,-3.76663 15.66952,-2.87313 21.79366,2.23151 5.99259,4.99499 8.36455,13.25043 5.91729,20.59471 -0.39071,1.17255 -1.09961,2.74568 -1.61403,3.58171 -0.17229,0.28 -0.31325,0.55076 -0.31325,0.60169 0,0.0509 0.18503,0.20351 0.41116,0.33906 0.22614,0.13556 3.26633,3.06766 6.75597,6.51577 7.18153,7.09606 6.93215,6.79727 6.92739,8.29952 -0.002,0.64272 -0.0584,0.96311 -0.24161,1.37219 -0.30094,0.67216 -1.06674,1.43145 -1.74547,1.73062 -0.63599,0.28034 -1.72229,0.35721 -2.30755,0.16329 z m -24.08869,-15.42378 c 1.74819,-0.28354 3.59191,-0.98753 5.01297,-1.9141 0.34588,-0.22552 1.14769,-0.822 1.7818,-1.3255 1.12002,-0.88933 1.17887,-0.9573 2.06204,-2.38151 0.50001,-0.80634 1.08219,-1.87608 1.29373,-2.37721 1.77897,-4.21436 1.2446,-9.02149 -1.42285,-12.79975 -1.11585,-1.58052 -3.11871,-3.29121 -4.91266,-4.19599 -1.78231,-0.89892 -3.91687,-1.38811 -6.03407,-1.38287 -2.35751,0.006 -4.21271,0.44774 -6.21819,1.48117 -3.58856,1.84919 -6.13207,5.20239 -6.99819,9.22595 -0.26713,1.24093 -0.26713,3.89484 0,5.13577 1.16931,5.43205 5.40503,9.54215 10.84992,10.52814 1.07523,0.19471 3.40287,0.1977 4.5855,0.006 z" transform="translate(640.696 -551.27)"></path>
  </symbol>
  <symbol id="icon-47" viewBox="0 0 50 50.015">
    <path d="M23.547 50c-3.46-.242-6.605-1.077-9.593-2.547C6.792 43.927 1.652 37.06.337 29.265.057 27.61 0 26.88 0 25c0-1.873.058-2.618.332-4.234C1.982 11.012 9.418 3.04 19.062.688 21.154.178 22.688 0 25 0c1.823 0 2.663.066 4.223.33C38.97 1.98 46.93 9.388 49.303 19.012 49.818 21.101 50 22.666 50 25c0 1.88-.058 2.61-.337 4.265-1.315 7.796-6.455 14.662-13.617 18.188-2.654 1.306-5.369 2.094-8.42 2.444-.718.082-3.403.15-4.079.103zM21.233 39.45c1.511-.325 3.375-1.289 4.996-2.584.595-.475 1.855-1.702 2.318-2.256.468-.56.894-1.223 1.009-1.57.088-.265.088-.298-.001-.53-.092-.242-.3-.414-.497-.414-.124 0-.651.505-1.368 1.312-1.35 1.52-1.962 2.086-2.549 2.354-.791.363-1.124-.178-.81-1.314.064-.227.242-.742.398-1.145.58-1.498 3.558-9.689 3.67-10.092.301-1.079.361-1.99.18-2.701-.135-.526-.315-.842-.668-1.172-.547-.512-1.157-.707-2.213-.708-1.134 0-2.163.225-3.268.719-1.318.588-2.332 1.323-3.664 2.656-1.88 1.883-2.4 2.75-1.929 3.222.227.227.476.221.773-.018.248-.2.457-.427 1.421-1.55 1.108-1.291 1.82-1.9 2.418-2.067.343-.097.577-.027.747.224.256.376.422-.108-2.422 7.095-1.557 3.944-1.883 4.883-2.225 6.426-.402 1.808-.288 2.836.392 3.529.291.297.845.575 1.305.657.408.073 1.495.033 1.987-.073zm7.427-22.613c1.331-.41 2.24-1.385 2.51-2.692.358-1.733-.56-3.27-2.181-3.65-.504-.119-1.36-.082-1.867.08-1.04.332-1.965 1.223-2.33 2.244-.193.541-.242 1.471-.106 2.003.297 1.16 1.112 1.917 2.29 2.13.433.077 1.237.023 1.684-.115z"/>
  </symbol>
  <symbol id="icon-48" viewBox="0 0 50 49.992">
    <path d="M24.566 49.784c-4.797-1.383-8.756-3.426-12.245-6.32-.821-.682-2.917-2.781-3.62-3.627C4.635 34.943 2.017 28.855.752 21.349.035 17.088-.185 11.947.16 7.45c.096-1.249.275-2.73.34-2.793.127-.129 3.873-1.236 6.265-1.853C13.605 1.042 19.783.111 25.323.01c7.056-.13 15.743 1.197 23.314 3.562.466.146.416.033.658 1.502.58 3.513.822 7.676.652 11.217-.313 6.513-1.637 12.058-4.044 16.944-2.39 4.854-5.8 8.817-10.217 11.88-2.184 1.515-4.878 2.91-7.687 3.98-.866.33-2.58.906-2.672.898a16.282 16.282 0 0 1-.761-.208zm1.666-4.728a32.318 32.318 0 0 0 4.563-1.928c7.676-4.028 12.397-10.88 13.985-20.296.66-3.924.729-8.455.19-12.703-.123-.967-.36-2.411-.423-2.583-.05-.135-.336-.226-2.25-.718-5.069-1.301-9.998-1.993-15.055-2.112-5.773-.137-13.45 1.008-21.3 3.176-.55.152-1.03.304-1.065.337-.084.08-.264 1.88-.346 3.466-.07 1.369-.038 4.59.058 5.812.314 3.967.97 7.346 2.021 10.406 2.665 7.763 7.527 13.118 14.621 16.105 1.147.482 3.667 1.318 4.001 1.327.069.002.52-.128 1-.289zm-2.045-2.863c-5.586-1.712-9.756-4.905-12.612-9.657C8.901 28.084 7.51 22.37 7.51 15.83c0-2.052.192-4.857.346-5.05.166-.21 4.704-1.455 7.384-2.025 4.384-.933 7.697-1.294 11.326-1.234 4.614.076 9.235.806 14.164 2.234.565.164 1.046.317 1.07.34.102.099.406 2.147.555 3.734.116 1.243.161 4.266.083 5.542-.426 6.925-2.519 12.388-6.354 16.586-2.114 2.314-4.905 4.222-8.155 5.573-.989.412-2.537.954-2.706.948-.064-.002-.53-.13-1.036-.286zm3.325-6.954v-2.271h-5.028v4.541h5.028zm-1.327-4.717c.016-.097.322-2.653.678-5.681l.649-5.505V12.479h-5.028v6.869l.649 5.648c.357 3.107.649 5.66.649 5.675 0 .015.534.027 1.187.027h1.187z"/>
  </symbol>
  <symbol id="icon-49" viewBox="0 0 50 49.993">
    <path d="M25.254 49.986c-.028-.01-.38-.11-.784-.223a41.694 41.694 0 0 1-1.694-.527c-6.051-2.033-10.93-5.4-14.659-10.112C3.611 33.427.876 25.656.174 16.56-.11 12.876-.044 8.773.351 5.526c.055-.451.1-.832.1-.845 0-.036 1.393-.483 2.78-.891C11.556 1.34 19.695-.002 26.216 0c5.994.002 12.91.971 19.494 2.732 1.143.306 3.283.938 3.33.984.064.065.374 1.945.538 3.261.557 4.5.565 9.294.022 13.553-.412 3.225-1.159 6.38-2.165 9.14-3.556 9.757-10.53 16.44-20.79 19.925-1.036.352-1.295.425-1.39.39zm1-4.926c10.028-3.365 16.297-10.628 18.361-21.275.793-4.088.937-8.804.406-13.293-.117-.99-.438-2.991-.488-3.037-.035-.032-1.752-.504-2.666-.732-6.345-1.582-12.93-2.263-18.535-1.918-4.411.272-9.354 1.078-14.715 2.4-1.384.342-3.716.97-3.76 1.013-.035.033-.153 1.046-.236 2.021-.112 1.294-.157 4.927-.08 6.353.586 10.756 4.334 19.06 10.87 24.088 2.465 1.896 5.529 3.435 8.705 4.373.487.144.908.27.935.28.152.053.398 0 1.202-.273zm-1.613-2.718c-2.882-.824-5.506-2.102-7.655-3.727-3.86-2.92-6.58-7.076-8.115-12.403-1.12-3.89-1.571-8.448-1.288-13.015.062-.998.198-2.277.252-2.38.096-.18 3.799-1.24 6.42-1.837 3.68-.84 6.962-1.307 10.164-1.448 3.459-.152 7.784.26 11.96 1.14 1.752.37 3.86.913 5.011 1.292l.46.152.113.643c.697 3.984.716 8.532.053 12.476-1.036 6.16-3.754 11.164-7.97 14.673-2.292 1.907-5.146 3.436-8.292 4.442l-.512.163zm-3.72-7.41c.046-.048.073-.048.122 0s1.789-1.666 8.242-8.12c4.5-4.499 8.18-8.203 8.18-8.23 0-.029-.792-.844-1.761-1.813l-1.762-1.761-6.464 6.477c-3.555 3.562-6.488 6.478-6.518 6.479-.03 0-1.14-1.097-2.466-2.44l-2.411-2.442-1.774 1.77c-.975.973-1.773 1.792-1.773 1.82 0 .051 8.244 8.319 8.295 8.319.015 0 .055-.027.09-.061z"/>
  </symbol>
  <symbol id="icon-50" viewBox="0 0 50.005 42.478">
    <path d="M47.369 42.425c-1.34-.137-2.69-.534-3.707-1.088-.863-.471-1.573-.997-3.047-2.259a51.19 51.19 0 0 0-1.396-1.157l-.488-.38h-6.956c-4.699 0-7.14-.016-7.523-.051-1.995-.18-3.007-.968-3.319-2.58-.068-.352-.082-.712-.085-2.236v-1.816l9.036-.025c8.272-.023 9.075-.031 9.501-.105 1.492-.257 2.366-.67 3.1-1.466.63-.685.976-1.49 1.193-2.782.067-.4.08-.975.097-4.087l.019-3.621h1.298c1.875 0 2.733.14 3.491.57.63.357 1.095 1.012 1.317 1.852l.105.395V34.77l-.103.328c-.2.637-.608 1.108-1.232 1.422-.59.298-1.67.51-2.603.51-.291 0-.463.017-.463.048 0 .127.707 1.794 1.095 2.583.651 1.32 1.219 2.125 1.83 2.592l.293.225-.526-.006c-.29-.003-.705-.024-.923-.047zM1.683 33.332c.015-.017.288-.18.606-.36 1.683-.963 2.93-1.942 3.557-2.793.209-.283.49-.784.49-.873 0-.022-.33-.054-.733-.07-3.539-.149-5.25-1.32-5.553-3.803-.067-.55-.067-19.978.001-20.64C.355 1.803 1.854.355 4.959.052c.694-.068 31.113-.07 31.797-.002 2.914.288 4.346 1.547 4.82 4.237.083.465.087.952.087 10.083 0 9.113 0 9.62-.086 10.106-.38 2.252-1.46 3.487-3.506 4.004-1.045.264-.783.259-11.784.259H16.173l-.599.48c-3.61 2.898-5.678 3.727-10.077 4.038-.818.058-3.853.118-3.814.075z"/>
  </symbol>
  <symbol id="icon-51" viewBox="0 0 50 50">
    <path d="M12.5 21.875v6.25h9.375V37.5h6.25v-9.375H37.5v-6.25h-9.375V12.5h-6.25v9.375zM25 50C11.193 50 0 38.807 0 25S11.193 0 25 0s25 11.193 25 25-11.193 25-25 25zm0 0" fill-rule="evenodd"/>
  </symbol>
  <symbol id="icon-54" viewBox="0 0 50.553 41.655">
    <path d="M17.268 33.286q0-1.446-1.057-2.503-1.057-1.057-2.503-1.057-1.446 0-2.502 1.057-1.057 1.057-1.057 2.503 0 1.446 1.057 2.502 1.056 1.057 2.502 1.057 1.446 0 2.503-1.057 1.057-1.056 1.057-2.502zM6.589 19.047h10.679v-7.119h-4.394q-.361 0-.612.25L6.84 17.603q-.25.25-.25.611zm35.595 14.239q0-1.446-1.056-2.503-1.057-1.057-2.503-1.057-1.446 0-2.503 1.057-1.057 1.057-1.057 2.503 0 1.446 1.057 2.502 1.057 1.057 2.503 1.057 1.446 0 2.503-1.057 1.056-1.056 1.056-2.502zm7.12-30.256v28.476q0 .417-.112.737-.111.32-.375.514-.264.195-.46.32-.194.125-.653.167l-.625.056q-.167.014-.71 0-.542-.014-.625-.014 0 2.948-2.086 5.033-2.085 2.086-5.033 2.086-2.948 0-5.034-2.086-2.085-2.085-2.085-5.033H20.827q0 2.948-2.085 5.033-2.086 2.086-5.034 2.086-2.947 0-5.033-2.086-2.086-2.085-2.086-5.033H4.81q-.083 0-.625.014t-.71 0l-.625-.056q-.459-.042-.654-.167-.194-.125-.458-.32-.265-.194-.376-.514-.111-.32-.111-.737 0-.723.528-1.252.529-.528 1.252-.528v-8.899q0-.222-.014-.973-.014-.75 0-1.057.014-.306.07-.96.055-.653.18-1.028t.39-.848q.264-.473.625-.834L9.787 9.62q.529-.528 1.405-.89.876-.361 1.626-.361h4.45v-5.34q0-.722.528-1.25.529-.529 1.252-.529h28.476q.723 0 1.251.528.528.529.528 1.252z" stroke="#fff" stroke-width="2.5"/>
  </symbol>
  <symbol id="icon-55" viewBox="0 0 80 80">
    <path d="M80 40a40 40 0 0 1-40 40A40 40 0 0 1 0 40 40 40 0 0 1 40 0a40 40 0 0 1 40 40z"/>
    <path d="M39.034 57.659c-.226-.073-.683-.317-1.017-.544-.407-.277-3.976-3.714-10.798-10.398a3671.833 3671.833 0 0 1-10.844-10.65c-1.469-1.495-1.794-2.791-1.023-4.077.384-.64 1.544-1.698 2.241-2.044 1.07-.53 2.257-.415 3.316.322.283.197 4.662 4.165 9.731 8.817 5.07 4.653 9.245 8.47 9.279 8.484.057.022 17.497-15.742 18.857-17.044 1.264-1.211 2.47-1.346 3.847-.432.67.446 1.727 1.521 2.014 2.051.499.921.397 1.916-.303 2.965-.226.337-3.818 3.918-10.475 10.443-11.85 11.611-11.885 11.646-12.478 11.95-.567.29-1.693.366-2.347.157z" fill="#fff"/>
  </symbol>
  <symbol id="icon-56" viewBox="0 0 50 28.28">
    <path d="M24.086 28.16c-.225-.071-.683-.316-1.017-.543-.407-.277-3.976-3.714-10.797-10.398A3671.944 3671.944 0 0 1 1.428 6.57C-.042 5.074-.366 3.778.405 2.492.789 1.852 1.949.794 2.645.449c1.07-.53 2.257-.415 3.316.321.283.198 4.663 4.165 9.732 8.818 5.069 4.652 9.244 8.47 9.278 8.483.057.022 17.498-15.742 18.857-17.044 1.265-1.21 2.47-1.346 3.847-.432.671.446 1.727 1.522 2.014 2.052.499.92.397 1.916-.303 2.964-.225.338-3.817 3.919-10.475 10.443C27.062 27.665 27.026 27.7 26.433 28.004c-.566.291-1.692.366-2.347.157z"/>
  </symbol>
  <symbol id="icon-57" viewBox="0 0 50 28.49">
    <path d="M2.899 28.355C1.97 28.03.773 26.948.324 26.03c-.627-1.282-.335-2.728.802-3.977C1.912 21.19 22.972.84 23.35.578c.6-.414 1.28-.62 1.897-.571.841.066 1.32.37 2.706 1.719.676.658 5.696 5.527 11.157 10.82 5.46 5.293 10.034 9.778 10.164 9.968.13.19.346.58.481.869.208.446.245.637.245 1.27 0 .672-.03.805-.3 1.353-.404.822-1.328 1.746-2.15 2.151-.508.25-.722.304-1.31.329-.821.034-1.38-.138-2.2-.679-.282-.186-4.646-4.184-9.697-8.885-5.052-4.7-9.231-8.566-9.288-8.589-.056-.022-4.242 3.81-9.302 8.516-5.059 4.707-9.472 8.743-9.805 8.97-.334.227-.81.474-1.058.547-.573.17-1.487.165-1.991-.012z"/>
  </symbol>
  <symbol id="icon-58" viewBox="0 0 50 49.93328">
    <path d="M22.4229 49.8581c-7.62217-.86943-14.3253-4.96486-18.4122-11.24937C1.20143 34.2889-.15525 29.38316.0141 24.15716c.0752-2.3205.257-3.57512.8358-5.76836C3.182 9.552 10.38675 2.6283 19.4096.55308c2.06405-.47472 2.96557-.5618 5.71914-.55243 2.41278.008 2.8923.0453 4.4277.34237 6.8261 1.32076 12.60863 5.17613 16.38324 10.92316 3.60815 5.4936 4.87947 12.2322 3.54046 18.76617-.76212 3.71893-2.52873 7.52764-4.83376 10.42126-3.94037 4.94657-9.4408 8.16456-15.7681 9.22504-1.39546.2339-5.08017.33633-6.45537.17946zm5.35017-3.94444c1.38526-.16268 3.38234-.6544 4.674-1.15084 7.14015-2.7442 12.14116-8.84715 13.40807-16.36243.233-1.38224.2619-1.92392.2133-3.99726-.0612-2.61013-.27567-3.95332-.97208-6.0881-.50792-1.557-1.9196-4.3387-2.90163-5.71766-1.06896-1.50105-3.34042-3.77038-4.82976-4.82524-1.39004-.98454-3.83195-2.26576-5.29685-2.77915-4.46054-1.56326-9.34377-1.59134-13.867-.0797-5.26346 1.75894-9.6539 5.58722-12.12554 10.57297-2.9181 5.88634-2.99426 12.53676-.21238 18.54762 2.3292 5.0327 6.99517 9.18322 12.31795 10.95712 3.1063 1.03523 6.14484 1.32752 9.59192.9227zm-12.5744-9.28085c-.3886-.21084-.70875-.76125-.70875-1.2185 0-.46986.8624-2.09824 1.63248-3.08243 2.2932-2.9308 5.94433-4.5161 9.9645-4.3265 1.85714.0876 3.05944.39242 4.71645 1.1958 2.19345 1.06346 3.9131 2.6853 5.0549 4.76743.6576 1.19917.69888 1.7965.16537 2.39358-.31422.3517-.43506.40167-.97102.40167-.76558 0-.9663-.1717-1.63863-1.40154-.645-1.1799-2.18234-2.74653-3.30405-3.36706-.4397-.24324-1.24222-.5913-1.7834-.77348-1.84108-.61975-4.48283-.53427-6.375.2063-1.83317.71747-3.54663 2.25568-4.4886 4.02953-.70093 1.31995-1.3636 1.6639-2.26424 1.1752zm2.38292-15.71235c-.64476-.24343-1.37715-.93055-1.65164-1.54952-.83025-1.87226.40032-3.91744 2.43506-4.047.94672-.0603 1.47298.102 2.11617.65254 1.96897 1.68537.85253 4.9549-1.7303 5.06727-.41564.0181-.94183-.0374-1.1693-.1233zm13.32287.031c-.51-.1483-1.36846-.90536-1.64803-1.45335-.73294-1.43668-.20523-3.1 1.23162-3.88202.5556-.3024.7259-.33518 1.53018-.29457.7661.0387.98595.1026 1.43255.4165 1.9 1.33537 1.6566 4.15848-.44063 5.111-.5318.24152-1.47038.2872-2.1057.10245z"></path>
  </symbol>
  <symbol id="icon-59" viewBox="0 0 50 50.00097">
    <path d="M42.68706 7.31538c-9.75338-9.7535-25.62158-9.7535-35.3726-.002-9.75312 9.75226-9.75237 25.62108.00076 35.37458 9.75026 9.751 25.61846 9.751 35.37084-.002 9.75238-9.75288 9.75113-25.61958.001-35.37046zm-2.72924 32.6431c-8.24733 8.24746-21.6679 8.24833-29.91536.00087-8.24958-8.24958-8.2482-21.67053 0-29.91773s21.66703-8.2482 29.91636.00062c8.24733 8.24758 8.24646 21.66878-.001 29.91624zm-24.2874-21.72753a2.9231 2.9231 0 1 1 2.92373 2.92398 2.92485 2.92485 0 0 1-2.92372-2.92398zm13.2557 0a2.92398 2.92398 0 1 1 2.92486 2.92398 2.92485 2.92485 0 0 1-2.92485-2.92398zM35.8374 30.2046c-1.8124 4.1894-6.05494 6.89665-10.8092 6.89665-4.85638 0-9.12454-2.72086-10.8732-6.93178a1.4143 1.4143 0 0 1 2.61237-1.0847c1.30906 3.15185 4.55152 5.188 8.26096 5.188 3.6248 0 6.8489-2.0374 8.21208-5.19112a1.4147 1.4147 0 1 1 2.597 1.12295z" fill-rule="evenodd"></path>
  </symbol>
  <symbol id="icon-60" viewBox="0 0 50 49.91967">
      <path d="M22.04015 49.78547c-4.53923-.59423-8.55304-2.20572-12.11043-4.8622-1.2058-.90043-3.41517-3.0357-4.39265-4.24533-6.0503-7.48723-7.25193-17.9218-3.06274-26.596C3.76295 11.41367 5.3007 9.2711 7.4455 7.1555 11.2613 3.39163 15.60117 1.19248 21.11676.22785c1.86926-.32692 6.1877-.29677 8.10523.0566 5.17782.95416 9.4905 3.15098 13.17028 6.70876 5.80023 5.60795 8.53494 13.70595 7.32687 21.69628-1.6108 10.65403-9.85577 19.0608-20.49715 20.89946-1.9952.34473-5.3488.4365-7.18185.19655zm5.33272-3.84108c4.39584-.51422 8.35407-2.26268 11.59048-5.11985 7.75707-6.8481 9.43746-18.30707 3.9709-27.07857-2.04828-3.2866-4.97616-5.9464-8.44968-7.67596-2.65678-1.32288-4.81237-1.93022-7.77003-2.1892-6.03414-.52837-12.11642 1.66492-16.48103 5.9431C2.48913 17.415 1.6926 29.421 8.36286 38.0205c2.7346 3.52552 7.01167 6.3073 11.38764 7.40642 2.6528.6663 4.99225.82514 7.62237.51747zm-3.9762-8.98516c-3.44896-.4817-6.5065-2.361-8.33976-5.12596-1.07654-1.62365-1.2524-2.5741-.59747-3.22904.37636-.37637.75347-.4866 1.30856-.38246.49953.0937.79562.40856 1.2485 1.3276 1.00627 2.042 3.03353 3.6507 5.46262 4.33476.77064.21703 1.3084.27748 2.47092.27776 1.79925.0005 2.803-.2213 4.27196-.94376 1.34677-.66237 3.068-2.3155 3.7073-3.56064.2273-.44267.52588-.92938.66355-1.08157.51137-.56537 1.55475-.47155 2.07225.18634.37577.47772.31443 1.1579-.1908 2.11538-1.9315 3.66053-5.65016 5.95573-9.94558 6.13853-.7269.0309-1.68632.005-2.13204-.0569zm-8.12944-16.36536c-1.01662-.49118-.5854-2.81896.74488-4.02077 1.57974-1.4272 3.9182-1.43852 5.46324-.0265.7525.68774 1.11598 1.3393 1.32343 2.37227.11013.5484.10648.78532-.0167 1.0827-.17495.42238-.6813.7405-1.1787.7405-.42763 0-1.04912-.6202-1.04912-1.04698 0-.1777-.0764-.50238-.16978-.72153-.7354-1.7259-3.0985-1.3656-3.3567.5118-.13867 1.00825-.9329 1.50833-1.76054 1.10847zm12.81425-.2303c-.35615-.35616-.37465-.42094-.3133-1.0975.13326-1.46964 1.00913-2.7076 2.3825-3.36747.95042-.45664 2.16563-.49315 3.22472-.0969 1.43885.53835 2.53315 2.10816 2.53315 3.63388 0 .591-.0426.70123-.38097.98596-.77145.64913-1.74483.26708-1.90848-.74907-.1219-.75705-.3991-1.26497-.83553-1.53107-.49726-.30318-1.35254-.3227-1.8282-.0417-.44028.26008-.8666 1.00952-.8666 1.52344 0 .56964-.5775 1.119-1.17633 1.119-.33948 0-.54694-.0945-.83096-.3785z"></path>
  </symbol>
  <symbol id="icon-62" viewBox="0 0 50 50">
    <path d="M0 40.642v-9.357l3.571 3.57 3.572 3.572 3.589-3.589 3.588-3.588 2.215 2.215 2.215 2.215-3.588 3.588-3.589 3.59 3.571 3.57L18.715 50H0zm34.856 5.787l3.57-3.572-3.588-3.589-3.588-3.588 2.215-2.215 2.215-2.215 3.588 3.588 3.59 3.589 3.57-3.571L50 31.285V50H31.285zM0 9.358V0h18.715l-3.57 3.571-3.572 3.572 3.554 3.554 3.554 3.555-2.215 2.214-2.214 2.215-3.555-3.554-3.554-3.554-3.572 3.571L0 18.715zm33.533 7.108l-2.214-2.214 3.554-3.555 3.554-3.554-3.571-3.572L31.285 0H50v18.715l-3.571-3.57-3.572-3.572-3.554 3.554-3.555 3.554z"/>
  </symbol>
  <symbol id="icon-63" viewBox="0 0 50 26.773">
    <path d="M24.689 26.738c-.581-.152-.923-.45-3.855-3.348C1.614 4.386.43 3.2.213 2.768.094 2.53 0 2.226 0 2.079 0 1.46.707.586 1.504.22c.5-.231 1.073-.197 1.566.091.181.107 1.568 1.385 3.081 2.841l10.783 10.376c4.417 4.25 8.057 7.719 8.089 7.708.042-.015 16.95-16.173 21.353-20.408.71-.682 1.08-.875 1.568-.817.434.051.662.169 1.181.612 1.03.88 1.143 1.65.38 2.588-.6.735-23.389 23.217-23.692 23.372-.338.172-.81.238-1.124.156z"/>
  </symbol>
  <symbol id="icon-64" viewBox="0 0 50 26.9">
    <path d="M1.771 26.848C.871 26.633.001 25.628 0 24.8c-.001-.554.284-1.052 1.049-1.83C2.869 21.12 23.788.575 24.069.363c.462-.351.925-.446 1.401-.288.42.14-1.04-1.272 13.882 13.423 11.332 11.16 10.64 10.425 10.64 11.3 0 1.009-1.054 2.045-2.081 2.047-.656 0-.91-.18-2.808-2.01C32.91 13.084 25.033 5.532 24.99 5.548c-.03.01-4.869 4.678-10.753 10.373C8.353 21.615 3.377 26.385 3.18 26.52a2.427 2.427 0 0 1-.701.318c-.376.08-.41.081-.707.01z"/>
  </symbol>
  <symbol id="icon-65" viewBox="0 0 50 50">
    <path d="M2.2 47.77L0 45.57l3.578-3.578 3.578-3.579-3.578-3.578L0 31.258h18.742V50l-3.578-3.578-3.578-3.578-3.563 3.562c-1.959 1.96-3.576 3.563-3.593 3.563-.018 0-1.021-.99-2.23-2.2zm29.058-7.141v-9.371H50l-3.578 3.578-3.578 3.578 3.578 3.578L50 45.57l-2.215 2.215L45.57 50l-3.578-3.578-3.578-3.578-3.578 3.578L31.258 50zM3.578 15.164l3.578-3.579-3.532-3.53L.093 4.522l2.215-2.215L4.522.092l3.532 3.532 3.532 3.532 3.578-3.578L18.742 0v18.742H0zm27.68-5.793V0l3.578 3.578 3.578 3.578 3.547-3.547L45.508.062l2.215 2.215 2.215 2.215-3.547 3.547-3.547 3.547 3.578 3.578L50 18.742H31.258z"/>
  </symbol>
  <symbol id="icon-67" viewBox="0 0 50.001 49.993">
    <path d="M22.774 49.919c-5.532-.506-10.61-2.765-14.756-6.567C3.423 39.14.546 33.198.053 26.905c-.07-.9-.07-2.912 0-3.812.443-5.65 2.732-10.876 6.614-15.096C9.04 5.415 12.22 3.205 15.49 1.86 17.904.869 20.366.284 23.1.053c.838-.07 2.961-.07 3.8 0 3.738.316 7.14 1.34 10.261 3.09a25.25 25.25 0 0 1 8.79 8.213 24.849 24.849 0 0 1 3.996 11.737c.07.9.07 2.912 0 3.812A25.002 25.002 0 0 1 38.79 45.85c-3.55 2.353-7.391 3.697-11.635 4.071-1.096.097-3.313.096-4.382 0zm4.642-5.046c1.566-.217 2.736-.488 4.085-.95 6.385-2.18 11.331-7.59 12.936-14.146.417-1.706.543-2.814.543-4.778 0-1.965-.126-3.072-.544-4.78C42.98 14.268 38.734 9.2 33.117 6.71a20.015 20.015 0 0 0-10.94-1.522C13.77 6.386 6.957 12.854 5.351 21.164c-.279 1.44-.33 2.038-.33 3.835 0 1.846.055 2.455.357 3.948 1.408 6.961 6.431 12.69 13.134 14.981 1.643.561 2.982.837 5.077 1.045.528.053 3.232-.019 3.827-.1zm-4.669-25.575V9.064h4.507v15.907l5.687.014 5.687.014.014 2.267.014 2.267H22.747z"/>
  </symbol>
  <symbol id="icon-71" viewBox="0 0 50 50.001">
    <path d="M22.807 49.91A25.042 25.042 0 0 1 2.58 36.064C1.355 33.577.657 31.365.231 28.61c-.308-1.98-.308-5.27 0-7.252.426-2.752 1.123-4.961 2.352-7.457a24.128 24.128 0 0 1 4.724-6.595 24.13 24.13 0 0 1 6.595-4.724C16.398 1.353 18.607.657 21.36.23c1.981-.307 5.271-.307 7.252 0 2.75.427 4.938 1.118 7.452 2.353 9.915 4.872 15.468 15.79 13.566 26.674-1.5 8.589-7.373 15.79-15.504 19.012-3.48 1.38-7.58 1.974-11.318 1.642zm5.258-5.302a20.557 20.557 0 0 0 5.806-1.863c5.038-2.521 8.889-7.242 10.287-12.61.52-1.998.635-2.923.635-5.15 0-2.227-.114-3.152-.635-5.15-1.011-3.882-3.315-7.471-6.506-10.135-4.02-3.356-9.397-5.01-14.569-4.48-2.465.253-4.652.872-6.791 1.923-6.26 3.075-10.358 8.975-11.072 15.94-.53 5.172 1.124 10.549 4.48 14.57 3.447 4.129 8.092 6.56 13.646 7.141.803.084 3.803-.034 4.719-.186zM12 24.985v-2.583h12.985L38 22.351v5.22l-13.015-.003L12 27.571z" fill="#fff"/>
    <path d="M22.46 44.658c-3.744-.582-6.737-1.828-9.593-3.992-.994-.754-2.924-2.71-3.704-3.755a20.237 20.237 0 0 1-3.79-9.041c-.207-1.345-.254-3.59-.103-4.909.193-1.695.584-3.36 1.157-4.927.373-1.022 1.385-3.012 2.012-3.955a20.019 20.019 0 0 1 10.903-8.09c3.05-.922 6.52-1.071 9.633-.414C36.47 7.158 42.312 12.75 44.19 20.14c.48 1.886.539 2.41.54 4.787.001 2.3-.044 2.774-.417 4.407-.535 2.34-1.397 4.407-2.628 6.303-2.987 4.604-7.483 7.688-12.784 8.772-1.173.24-2.004.314-3.932.35-1.416.026-1.786.012-2.508-.1zM38 24.961v-2.61c-9.34.01-16.66.021-26 .034v5.186h26z"/>
    <g fill="#fff" stroke-width=".068">
      <path d="M12.014 24.987L12 22.385l13.03-.042L38 22.35l-.02 2.636v2.576H12.014z"/>
      <path d="M25.05 11.794l2.603-.013.042 13.03-.008 12.97-2.636-.02h-2.576V11.793z"/>
    </g>
  </symbol>
  <symbol id="icon-72" viewBox="0 0 50 50.001">
    <path d="M22.807 49.91A25.042 25.042 0 0 1 2.58 36.064C1.355 33.577.657 31.365.231 28.61c-.308-1.98-.308-5.27 0-7.252.426-2.752 1.123-4.961 2.352-7.457a24.128 24.128 0 0 1 4.724-6.595 24.13 24.13 0 0 1 6.595-4.724C16.398 1.353 18.607.657 21.36.23c1.981-.307 5.271-.307 7.252 0 2.75.427 4.938 1.118 7.452 2.353 9.915 4.872 15.468 15.79 13.566 26.674-1.5 8.589-7.373 15.79-15.504 19.012-3.48 1.38-7.58 1.974-11.318 1.642zm5.258-5.302a20.557 20.557 0 0 0 5.806-1.863c5.038-2.521 8.889-7.242 10.287-12.61.52-1.998.635-2.923.635-5.15 0-2.227-.114-3.152-.635-5.15-1.011-3.882-3.315-7.471-6.506-10.135-4.02-3.356-9.397-5.01-14.569-4.48-2.465.253-4.652.872-6.791 1.923-6.26 3.075-10.358 8.975-11.072 15.94-.53 5.172 1.124 10.549 4.48 14.57 3.447 4.129 8.092 6.56 13.646 7.141.803.084 3.803-.034 4.719-.186zM12 24.985v-2.583H39.987v5.166H9.983z" fill="#fff"/>
    <path d="M22.46 44.658c-3.744-.582-6.737-1.828-9.593-3.992-.994-.754-2.924-2.71-3.704-3.755a20.237 20.237 0 0 1-3.79-9.041c-.207-1.345-.254-3.59-.103-4.909.193-1.695.584-3.36 1.157-4.927.373-1.022 1.385-3.012 2.012-3.955a20.019 20.019 0 0 1 10.903-8.09c3.05-.922 6.52-1.071 9.633-.414C36.47 7.158 42.312 12.75 44.19 20.14c.48 1.886.539 2.41.54 4.787.001 2.3-.044 2.774-.417 4.407-.535 2.34-1.397 4.407-2.628 6.303-2.987 4.604-7.483 7.688-12.784 8.772-1.173.24-2.004.314-3.932.35-1.416.026-1.786.012-2.508-.1zM38 22.351c-9.34.01-16.66.021-26 .034v5.186h26v-5.22z"/>
  </symbol>
  <symbol id="icon-76" viewBox="0 0 50 38.36">
    <path d="M 45.026255,12.81492 50,10.23276 25.105906,0 0,10.23276 l 25.105906,13.92737 17.865557,-10.2126 0,12.16847 a 3.0819911,3.0819911 0 1 0 2.055186,0 l 0,-13.30108 z m -6.163884,6.98173 -13.226837,8.26794 -13.483686,-8.33275 0,10.32765 13.515743,8.30069 13.19478,-8.33304 0,-10.23059 z" fill-rule="evenodd"></path>
  </symbol>
  <symbol id="icon-80" viewBox="0 0 50 28.516">
    <path d="M39.6 28.38a7.506 7.506 0 0 1-1.803-.846c-.808-.537-1.93-1.662-3.514-3.522-1.02-1.2-1.934-1.946-2.587-2.115-.453-.118-.771-.021-1.181.36-.816.759-1.164 1.772-1.26 3.68-.065 1.269-.154 1.62-.493 1.948a2.098 2.098 0 0 1-.568.36c-.328.132-.4.137-2.656.155-1.873.015-2.466 0-3.08-.078-1.796-.228-3.779-.896-5.364-1.809a37.466 37.466 0 0 1-2.616-1.688c-1.194-.869-2.665-2.255-3.514-3.31a80.207 80.207 0 0 1-3.897-5.322C5.002 13.073 2.481 8.405.743 4.483.028 2.87 0 2.789 0 2.374c0-.478.2-.74.714-.934.237-.09.714-.106 4.191-.146 3.822-.043 3.934-.041 4.281.074.443.146.883.422 1.073.671.08.105.356.683.615 1.285.762 1.775 2.851 5.91 3.706 7.334.916 1.526 1.953 2.718 2.715 3.12.354.187.408.198.818.172.51-.033.584-.083.843-.57.368-.694.57-1.79.733-3.978.13-1.734-.085-4.306-.458-5.487-.32-1.013-.888-1.49-2.131-1.786-.26-.062-.496-.138-.526-.168-.088-.088.122-.425.486-.782.753-.737 1.769-.996 4.444-1.136 2.602-.135 5.477.057 6.471.433.323.121.712.399.852.607a3.6 3.6 0 0 1 .29.641c.204.581.234 1.553.143 4.51-.1 3.225-.104 5.343-.011 5.915.188 1.162.663 1.753 1.407 1.754.404.001 1.511-.98 2.313-2.048 1.822-2.43 3.77-5.952 4.965-8.98.313-.793.487-1.07.824-1.307l.257-.18 3.4-.039c6.958-.079 6.2-.086 6.668.065.728.237 1.004.674.893 1.415-.16 1.072-1.07 2.83-2.605 5.04-.625.897-1.94 2.657-3.223 4.31-1.137 1.466-1.423 1.864-1.81 2.522-.6 1.025-.65 1.319-.35 2.046.362.875.46.989 2.401 2.776 2.156 1.987 3.658 3.63 4.61 5.044.8 1.187.988 1.69.936 2.502-.02.321-.055.425-.205.612-.238.295-.836.595-1.33.666-.213.03-1.564.071-3.003.09-1.439.02-3.218.049-3.954.065-1.307.029-1.35.026-1.843-.123z"/>
  </symbol>
  <symbol id="icon-81" viewBox="0 0 22.448 48.310001">
    <path d="M22.448 15.643h-7.645v-5.014c0-1.883 1.248-2.322 2.127-2.322h5.395V.029L14.895 0C6.647 0 4.77 6.174 4.77 10.125v5.518H0v8.53h4.77V48.31h10.033V24.173h6.77l.875-8.53z"></path>
  </symbol>
  <symbol id="icon-82" viewBox="0 0 32.0429 20.35594">
    <path d="M10.1701 8.1661v4.03188s3.90614-.008 5.50161-.008c-.86454 2.60934-2.20065 4.03189-5.50161 4.03189-3.34026 0-5.94173-2.70364-5.94173-6.0439s2.60933-6.0439 5.94173-6.0439c1.76837 0 2.90799.62089 3.9533 1.48543.84096-.84096.77022-.95885 2.90013-2.97087C15.21586 1.00601 12.81087 0 10.17796 0 4.55847 0 0 4.55848 0 10.17797s4.55847 10.17797 10.17796 10.17797c8.40174 0 10.45305-7.31714 9.76928-12.18998H10.1701zm18.34392.19648V4.8337H25.999v3.52888h-3.6232v2.51502h3.6232v3.6232h2.51502v-3.6232h3.52888V8.36258h-3.52888z"></path>
    <path d="M10.1701 8.1661v4.03188s3.90614-.008 5.50161-.008c-.86454 2.60934-2.20065 4.03189-5.50161 4.03189-3.34026 0-5.94173-2.70364-5.94173-6.0439s2.60933-6.0439 5.94173-6.0439c1.76837 0 2.90799.62089 3.9533 1.48543.84096-.84096.77022-.95885 2.90013-2.97087C15.21586 1.00601 12.81087 0 10.17796 0 4.55847 0 0 4.55848 0 10.17797s4.55847 10.17797 10.17796 10.17797c8.40174 0 10.45305-7.31714 9.76928-12.18998H10.1701zm18.34392.19648V4.8337H25.999v3.52888h-3.6232v2.51502h3.6232v3.6232h2.51502v-3.6232h3.52888V8.36258h-3.52888z"></path>
  </symbol>
  <symbol id="icon-83" viewBox="0 0 50 83.076">
    <path d="M8.35 83.022a.352.352 0 0 1 .228 0c.063.025.011.046-.114.046-.126 0-.177-.02-.114-.046zm1.557-.002c.066-.026.145-.023.176.007.03.03-.024.052-.12.048-.107-.004-.128-.026-.056-.055zm30.133 0c.066-.026.145-.023.175.007s-.023.052-.12.048c-.106-.004-.128-.026-.055-.055zm1.455.002a.352.352 0 0 1 .229 0c.062.025.011.046-.114.046-.126 0-.177-.02-.115-.046zm-35.234-.921c-.114-.145-.11-.148.034-.035.152.12.2.195.125.195-.019 0-.09-.072-.16-.16zm31.593 0c-.113-.145-.11-.148.035-.035.088.07.16.141.16.16 0 .075-.076.027-.195-.125zm6.45-.48c.247-.25.47-.456.495-.456.025 0-.157.205-.404.457-.248.25-.47.456-.496.456-.025 0 .157-.205.404-.456zm-30.225-1.37c.903-.903 1.663-1.643 1.688-1.643.025 0-.693.74-1.596 1.644-.903.904-1.663 1.643-1.688 1.643-.025 0 .693-.74 1.596-1.643zM36.95 81.28l-.59-.616.616.59c.339.326.616.603.616.617 0 .067-.093-.018-.642-.59zm-31.87-.365l-.314-.343.342.315c.188.173.342.327.342.343 0 .07-.077.004-.37-.315zm-1.175-2.176c.005-.107.026-.128.055-.056.027.066.024.145-.007.175-.03.03-.052-.023-.048-.12zm42.186 0c.004-.107.026-.128.055-.056.027.066.023.145-.007.175s-.052-.023-.048-.12zM3.837 77.695c0-.377.017-.53.036-.342.02.188.02.496 0 .685-.02.188-.036.034-.036-.343zm42.369 0c0-.377.016-.53.036-.342.02.188.02.496 0 .685-.02.188-.036.034-.036-.343zm-.115-1.058c.004-.106.026-.128.055-.055.027.066.023.145-.007.175s-.052-.023-.048-.12zM4.811 74.74c0-.02.072-.091.16-.16.145-.114.148-.11.034.034-.119.152-.194.2-.194.126zm33.009-7.476l-7.213-7.237 7.236 7.214c3.98 3.967 7.236 7.224 7.236 7.236 0 .013-.01.023-.023.023-.012 0-3.269-3.256-7.236-7.236zm-17.691-8.804a.352.352 0 0 1 .228 0c.063.026.011.046-.114.046-.126 0-.177-.02-.114-.046zm9.587 0a.352.352 0 0 1 .229 0c.062.026.011.046-.115.046-.125 0-.176-.02-.114-.046zm-10.318-.091a.352.352 0 0 1 .228 0c.063.025.012.046-.114.046-.125 0-.177-.02-.114-.046zm11.049 0a.352.352 0 0 1 .228 0c.063.025.011.046-.114.046-.126 0-.177-.02-.114-.046zm-11.78-.091a.352.352 0 0 1 .229 0c.063.025.011.046-.114.046-.126 0-.177-.02-.114-.046zm12.516-.002c.066-.027.145-.023.175.007s-.024.052-.12.048c-.106-.004-.128-.026-.055-.055zm-13.058-.091c.066-.027.145-.024.176.007.03.03-.024.052-.12.048-.107-.005-.128-.026-.056-.055zm13.697 0c.066-.027.145-.024.175.007.03.03-.023.052-.12.048-.106-.005-.128-.026-.055-.055zm-14.244-.092c.066-.026.144-.023.175.007.03.03-.024.052-.12.048-.107-.004-.128-.026-.055-.055zm14.792 0c.066-.026.145-.023.175.007s-.024.052-.12.048c-.106-.004-.128-.026-.055-.055zm-15.34-.091c.066-.026.144-.023.175.007.03.03-.024.052-.12.048-.106-.004-.128-.026-.055-.055zm-.548-.091c.066-.027.145-.024.175.007.03.03-.024.052-.12.048-.106-.005-.128-.026-.055-.055zm16.892 0c.066-.027.145-.024.175.007.03.03-.023.052-.12.048-.106-.005-.127-.026-.055-.055zm-17.349-.092c.066-.026.145-.023.175.007s-.023.052-.12.048c-.106-.004-.128-.026-.055-.055zm17.806 0c.066-.026.145-.023.175.007s-.024.052-.12.048c-.106-.004-.128-.026-.055-.055zm-18.262-.091c.066-.026.144-.023.175.007.03.03-.024.052-.12.048-.106-.004-.128-.026-.055-.055zm18.719 0c.065-.026.144-.023.175.007.03.03-.024.052-.12.048-.107-.004-.128-.026-.055-.055zm.821-.183c.066-.026.145-.023.175.008.03.03-.023.051-.12.048-.106-.005-.127-.027-.055-.056zM2.791 51.786c-.114-.145-.11-.148.034-.035.152.12.2.194.126.194-.02 0-.091-.071-.16-.16zm44.206.125c0-.019.072-.09.16-.16.145-.113.148-.11.034.035-.12.152-.194.2-.194.125zm-44.794-.628l-.268-.296.297.268c.276.25.338.325.268.325-.016 0-.15-.133-.297-.297zm45.25.269c0-.016.134-.15.297-.297l.297-.268-.268.296c-.25.277-.326.34-.326.269zM1.104 50.188l-.174-.206.206.174c.113.096.205.188.205.206 0 .073-.073.019-.237-.174zm47.673.023c.091-.1.186-.183.211-.183.025 0-.028.082-.12.183-.09.1-.185.182-.21.182-.025 0 .029-.082.12-.182zm-24.402-1.894c.339-.018.893-.018 1.232 0 .34.017.062.032-.616.032-.678 0-.955-.015-.616-.032zm-1.827-.087a.75.75 0 0 1 .32 0c.088.023.016.042-.16.042s-.248-.019-.16-.042zm4.657 0a.75.75 0 0 1 .32 0c.088.023.016.042-.16.042s-.248-.019-.16-.042zm-5.477-.092a.522.522 0 0 1 .274.004c.062.025-.01.044-.161.042-.151-.002-.202-.022-.113-.046zm6.436.003a.352.352 0 0 1 .228 0c.063.026.012.046-.114.046-.125 0-.177-.02-.114-.046zm-7.117-.093c.066-.026.145-.023.175.007s-.023.052-.12.048c-.106-.004-.127-.026-.055-.055zm7.847.002a.352.352 0 0 1 .229 0c.063.025.011.046-.114.046-.126 0-.177-.02-.115-.046zm-8.394-.093c.065-.027.144-.023.175.007.03.03-.024.052-.12.048-.107-.005-.128-.026-.055-.055zm9.04 0c.065-.027.144-.023.174.007s-.023.052-.12.048c-.106-.005-.127-.026-.055-.055zm-9.588-.092c.066-.026.144-.023.175.008.03.03-.024.051-.12.048-.106-.005-.128-.026-.055-.056zM0 47.335c0-.302.018-.414.038-.25.02.164.02.41-.001.548-.02.137-.038.003-.037-.299zm19.495.44c.066-.027.145-.024.175.006s-.023.052-.12.048c-.106-.004-.128-.026-.055-.055zm30.452-.44c0-.302.018-.414.038-.25.02.164.02.41 0 .548-.022.137-.038.003-.038-.299zm-30.908.348c.066-.027.144-.023.175.007.03.03-.024.052-.12.048-.107-.004-.128-.026-.055-.055zm-.822-.183c.066-.026.144-.023.175.007.03.03-.024.052-.12.048-.106-.004-.128-.026-.055-.055zM.07 46.414c.005-.107.026-.129.055-.056.027.066.024.145-.007.175-.03.03-.052-.023-.048-.12zm49.765 0c.004-.107.026-.129.055-.056.026.066.023.145-.007.175s-.052-.023-.048-.12zm-1.56-3.097c-.222-.226-.382-.411-.357-.411.025 0 .227.185.449.41.221.227.382.411.357.411-.025 0-.227-.184-.449-.41zM1.661 43.27c.196-.201.377-.365.402-.365.025 0-.115.164-.31.365-.197.2-.378.365-.403.365-.025 0 .115-.164.311-.365zm22.622-1.255c.39-.017 1.026-.017 1.416 0 .389.017.07.031-.708.031s-1.097-.014-.708-.031zm-18.12-.086c.067-.026.145-.023.176.007.03.03-.024.052-.12.048-.106-.004-.128-.026-.055-.055zm16.478 0a.522.522 0 0 1 .274.003c.062.025-.01.044-.161.042-.15-.002-.201-.023-.113-.046zm4.475 0a.522.522 0 0 1 .274.003c.061.025-.011.044-.162.042-.15-.002-.201-.023-.112-.046zm16.577 0c.065-.026.144-.023.175.007.03.03-.024.052-.12.048-.107-.004-.128-.026-.055-.055zM4.338 41.84c.065-.027.144-.023.175.007.03.03-.024.052-.12.048-.107-.004-.128-.026-.055-.055zm1.272.002a.352.352 0 0 1 .228 0c.063.025.012.046-.114.046-.125 0-.177-.02-.114-.046zm16.254 0a.352.352 0 0 1 .228 0c.063.025.011.046-.114.046-.126 0-.177-.02-.114-.046zm6.026 0a.352.352 0 0 1 .228 0c.063.025.012.046-.114.046-.125 0-.177-.02-.114-.046zm16.253 0a.352.352 0 0 1 .229 0c.062.025.011.046-.114.046-.126 0-.177-.02-.115-.046zm1.376-.002c.066-.027.144-.023.175.007.03.03-.024.052-.12.048-.106-.004-.128-.026-.055-.055zm-24.295-.09a.352.352 0 0 1 .229 0c.062.026.011.046-.115.046-.125 0-.176-.02-.114-.046zm7.305 0a.352.352 0 0 1 .229 0c.062.026.01.046-.115.046s-.177-.02-.114-.046zm-7.755-.093c.065-.026.144-.023.175.007.03.03-.024.052-.12.048-.107-.004-.128-.026-.055-.055zm8.309 0c.066-.026.144-.023.175.007.03.03-.024.052-.12.048-.106-.004-.128-.026-.055-.055zm-8.766-.091c.066-.026.145-.023.175.007s-.024.052-.12.048c-.106-.004-.128-.026-.055-.055zm9.222 0c.066-.026.145-.023.175.007s-.023.052-.12.048c-.106-.004-.127-.026-.055-.055zm-17.16-3.659c-.114-.144-.111-.148.034-.034.088.069.16.14.16.16 0 .075-.075.026-.195-.126zm25.03.126c0-.02.072-.091.16-.16.145-.114.148-.11.035.034-.12.152-.195.2-.195.126zm-25.986-.902l-.174-.205.205.174c.113.095.206.188.206.205 0 .073-.074.02-.237-.174zm27.036.023c.091-.1.186-.183.211-.183.025 0-.028.083-.12.183-.09.1-.185.183-.21.183-.025 0 .028-.083.12-.183zm-28.4-1.301l-.91-.936.935.911c.515.502.936.923.936.936 0 .066-.114-.042-.96-.911zm29.77.023c.5-.503.93-.913.955-.913.025 0-.363.41-.864.913-.5.502-.93.913-.955.913-.025 0 .364-.411.864-.913zM8.775 34.482l-.174-.205.205.174c.193.163.247.237.174.237-.017 0-.11-.093-.205-.206zm32.332.023c.091-.1.186-.183.211-.183.025 0-.028.083-.12.183-.09.1-.185.183-.21.183-.025 0 .028-.083.12-.183zm-33.112-.982c-.113-.144-.11-.148.035-.034.088.069.16.14.16.16 0 .075-.075.027-.195-.126zm33.797.126c0-.02.072-.091.16-.16.145-.114.148-.11.034.034-.119.153-.194.2-.194.126zm-17.28-2.316c.263-.018.695-.018.958 0 .264.019.048.034-.48.034-.526 0-.742-.015-.478-.034zm-1.187-.084a.352.352 0 0 1 .228 0c.063.025.011.046-.114.046-.126 0-.177-.021-.114-.046zm3.104 0a.352.352 0 0 1 .228 0c.063.025.012.046-.114.046-.125 0-.177-.021-.114-.046zm-4.012-.185c.066-.026.145-.023.175.007s-.023.052-.12.048c-.106-.004-.128-.026-.055-.055zm5.022 0c.066-.026.145-.023.175.007s-.023.052-.12.048c-.106-.004-.128-.026-.055-.055zm-8.76-1.832c-.114-.145-.11-.148.034-.035.088.07.16.141.16.16 0 .075-.075.027-.194-.125zm12.43.125c0-.019.072-.09.16-.16.144-.113.148-.11.034.035-.12.152-.194.2-.194.125zM18.09 28.73l-.268-.297.297.268c.163.148.297.281.297.297 0 .07-.076.008-.326-.268zm13.474.268c0-.016.134-.15.297-.297l.297-.268-.268.297c-.25.276-.326.338-.326.268zm-14.296-1.09l-.268-.297.297.268c.277.25.339.326.268.326-.016 0-.15-.134-.297-.297zm15.118.268c0-.016.134-.15.297-.297l.297-.268-.269.297c-.25.276-.325.339-.325.268zM4.18 24.681c.005-.106.026-.128.055-.055.027.066.024.145-.007.175-.03.03-.052-.023-.048-.12zm41.547 0c.004-.106.026-.128.055-.055.026.066.023.145-.007.175s-.052-.023-.048-.12zm-41.638-.639c.004-.106.026-.128.055-.055.026.066.023.145-.007.175s-.052-.023-.048-.12zm41.736-.038c0-.125.021-.177.046-.114a.352.352 0 0 1 0 .228c-.025.063-.046.012-.046-.114zm-41.817-.776c.002-.15.023-.201.046-.112a.522.522 0 0 1-.004.274c-.025.061-.044-.011-.042-.162zm10.856.084c.004-.107.026-.128.055-.055.026.066.023.144-.007.175-.03.03-.052-.024-.048-.12zm31.056-.084c.002-.15.022-.201.045-.112a.522.522 0 0 1-.003.274c-.025.061-.044-.011-.042-.162zm-31.148-.373c.005-.106.026-.128.055-.055.027.066.024.145-.007.175-.03.03-.052-.023-.048-.12zm20.363 0c.004-.106.026-.128.055-.055.026.066.023.145-.007.175s-.052-.023-.048-.12zm-31.2-1.818c0-.754.015-1.05.032-.658.017.391.017 1.008 0 1.37-.017.361-.032.041-.031-.712zm10.757 1.095c.001-.15.022-.2.045-.112a.522.522 0 0 1-.003.274c-.025.062-.044-.011-.042-.162zm20.545 0c.001-.15.022-.2.045-.112a.522.522 0 0 1-.003.274c-.025.062-.044-.011-.042-.162zm10.793-1.095c0-.754.014-1.05.031-.658.018.391.017 1.008 0 1.37-.017.361-.031.041-.031-.712zM14.691 19.94c.001-.15.022-.201.045-.112a.522.522 0 0 1-.003.273c-.025.062-.044-.01-.042-.161zm20.545 0c.001-.15.022-.201.045-.112a.522.522 0 0 1-.003.273c-.025.062-.044-.01-.042-.161zm-20.465-.738c.005-.107.026-.128.055-.055.027.066.024.144-.007.175-.03.03-.052-.024-.048-.12zm20.363 0c.004-.107.026-.128.055-.055.026.066.023.144-.007.175-.03.03-.052-.024-.048-.12zm-31.127-.358c.002-.15.023-.201.046-.112a.522.522 0 0 1-.004.274c-.025.062-.044-.011-.042-.162zm41.912 0c.002-.15.022-.201.045-.112a.522.522 0 0 1-.003.274c-.025.062-.044-.011-.042-.162zm-41.831-.83c.004-.106.026-.127.055-.054.026.066.023.144-.007.175-.03.03-.052-.024-.048-.12zm41.73 0c.003-.106.025-.127.054-.054.027.066.023.144-.007.175-.03.03-.052-.024-.048-.12zm-41.639-.638c.005-.107.026-.128.055-.056.027.066.024.145-.007.175-.03.03-.052-.023-.048-.12zm41.547 0c.004-.107.026-.128.055-.056.026.066.023.145-.007.175s-.052-.023-.048-.12zm-41.273-1.37c.005-.106.026-.128.055-.055.027.066.023.144-.007.175-.03.03-.052-.024-.048-.12zm40.999 0c.004-.106.026-.128.055-.055.026.066.023.144-.007.175-.03.03-.052-.024-.048-.12zm-28.588-1.442c0-.02.072-.091.16-.16.145-.114.148-.11.035.034-.12.153-.195.2-.195.126zm16.06-.126c-.114-.144-.111-.148.034-.034.088.069.16.14.16.16 0 .075-.075.027-.195-.126zm-14.599-1.335c0-.02.072-.091.16-.16.145-.114.148-.11.035.034-.12.153-.195.2-.195.126zm13.137-.126c-.113-.144-.11-.148.035-.034.152.12.2.194.125.194-.019 0-.09-.072-.16-.16zm-8.314-2.185c.066-.026.144-.023.175.007.03.03-.024.052-.12.048-.107-.004-.128-.026-.055-.055zm3.56 0c.067-.026.145-.023.176.007.03.03-.024.052-.12.048-.106-.004-.128-.026-.055-.055zm-2.88-.092a.522.522 0 0 1 .274.003c.062.025-.01.044-.161.042-.15-.002-.201-.022-.113-.045zm2.1 0a.522.522 0 0 1 .275.003c.061.025-.011.044-.162.042-.15-.002-.201-.022-.112-.045zM8.099 8.356c0-.02.072-.091.16-.16.145-.114.148-.11.035.034-.12.152-.195.2-.195.126zM41.69 8.23c-.113-.145-.11-.148.035-.034.152.12.2.194.125.194-.019 0-.09-.072-.16-.16zM8.464 7.9c0-.019.072-.09.16-.16.144-.113.147-.11.034.035-.12.152-.194.2-.194.125zm32.86-.125c-.114-.145-.11-.148.034-.035.153.12.2.195.126.195-.02 0-.091-.072-.16-.16zM9.103 7.157c.118-.125.235-.228.26-.228.025 0-.05.103-.169.228-.118.126-.235.229-.26.229-.025 0 .05-.103.169-.229zm31.678-.022l-.222-.252.252.222c.234.207.293.28.22.28-.015 0-.128-.112-.25-.25zM11.02 5.24c.117-.126.234-.228.26-.228.025 0-.051.102-.17.228-.117.125-.234.228-.26.228-.025 0 .051-.103.17-.228zm27.842-.023l-.221-.251.251.221c.138.122.251.235.251.251 0 .072-.074.014-.28-.221zm-27.295-.423c0-.018.072-.09.16-.16.145-.113.148-.11.034.035-.119.152-.194.2-.194.125zM38.22 4.67c-.113-.145-.11-.148.035-.034.152.119.2.194.125.194-.019 0-.09-.072-.16-.16zM21.047.292c.066-.026.145-.023.175.008.03.03-.023.051-.12.047-.106-.004-.127-.026-.055-.055zm7.762 0c.066-.026.145-.023.175.008.03.03-.024.051-.12.047-.106-.004-.128-.026-.055-.055zM21.595.201c.066-.026.145-.023.175.007s-.023.052-.12.048c-.106-.004-.128-.026-.055-.055zm6.666 0c.066-.026.145-.023.175.007s-.024.052-.12.048c-.106-.004-.128-.026-.055-.055zM22.276.109a.522.522 0 0 1 .274.003c.062.025-.01.044-.161.042-.151-.002-.202-.022-.113-.045zm5.205 0a.522.522 0 0 1 .274.003c.062.025-.011.044-.162.042-.15-.002-.2-.022-.112-.045zM23.233.016c.113-.021.298-.021.411 0 .113.022.02.04-.205.04-.226 0-.319-.018-.206-.04zm3.105 0c.113-.021.298-.021.41 0 .114.022.021.04-.205.04-.226 0-.318-.018-.205-.04z"/>
    <path d="M8.122 82.95c-.946-.215-1.621-.636-2.55-1.588C4.307 80.068 3.9 79.174 3.9 77.695c0-.918.14-1.503.552-2.295.263-.507 1.337-1.619 8.432-8.73 4.472-4.483 8.064-8.15 7.984-8.15-.789 0-4.784-.674-6.56-1.107-3.483-.848-6.068-1.961-8.92-3.839C2.39 51.6.982 50.31.364 48.966c-.195-.423-.254-.709-.282-1.358-.045-1.016.125-1.795.62-2.852.695-1.483 2.141-2.599 3.719-2.87 1.254-.214 2.961.272 4.38 1.25l1.457 1c1.62 1.109 4.453 2.414 6.555 3.02 2.873.828 5.287 1.17 8.224 1.167 3.73-.004 6.578-.528 10.18-1.874 2.087-.78 2.616-1.076 6.111-3.42 1.003-.673 2.619-1.22 3.606-1.22 1.05 0 2.336.566 3.255 1.433 1.508 1.424 2.175 4.097 1.428 5.724-.616 1.34-2.024 2.633-5.02 4.606-3.333 2.195-6.247 3.339-10.84 4.257-1.387.277-4.113.69-4.552.69-.082 0 3.531 3.689 8.028 8.196 6.185 6.199 8.236 8.308 8.42 8.659.706 1.35.704 3.325-.006 4.639-.136.252-.613.842-1.06 1.31-.672.704-.938.913-1.552 1.215-1.412.696-2.917.707-4.34.03-.672-.319-.883-.519-7.176-6.8l-6.485-6.472-6.376 6.377c-4.125 4.125-6.545 6.479-6.853 6.666-1.068.647-2.49.883-3.683.611zM22.07 41.844c-3.648-.495-6.667-1.737-9.679-3.982-1.116-.832-3.438-3.154-4.27-4.27-2.11-2.831-3.32-5.63-3.907-9.041-.2-1.165-.28-4.505-.14-5.858.343-3.31 1.396-6.293 3.186-9.025 2.623-4 6.611-7.147 10.868-8.573 4.344-1.455 9.384-1.455 13.728 0 5.575 1.868 10.543 6.615 12.748 12.18.973 2.456 1.39 4.789 1.39 7.784 0 4.822-1.282 8.71-4.131 12.533-.832 1.116-3.154 3.438-4.27 4.27-3.056 2.277-6.068 3.504-9.798 3.99-1.354.176-4.396.172-5.725-.008zm5.068-10.661c.351-.077.927-.238 1.278-.359 2.871-.985 5.4-3.547 6.403-6.484.648-1.9.659-4.673.026-6.577-1.066-3.207-3.923-5.915-7.166-6.789-.837-.226-1.043-.244-2.687-.244s-1.85.018-2.687.244c-3.243.874-6.1 3.582-7.167 6.79-.457 1.377-.6 3.611-.33 5.155.368 2.103 1.442 4.057 3.089 5.622 1.698 1.612 3.487 2.456 5.954 2.806.544.077 2.662-.029 3.287-.164z"/>
  </symbol>
  <symbol id="icon-84" viewBox="0 0 49.999998 47.590744">
    <path d="M32.34979 42.09353c-4.15618-3.0476-7.58581-5.53821-7.62139-5.53469-.0356.004-3.52468 2.41098-7.75356 5.34992s-7.70592 5.32849-7.72676 5.31012c-.0208-.0184 1.28334-4.04331 2.89817-8.9443 2.40604-7.30235 2.90781-8.9378 2.77965-9.0599-.086-.082-3.47954-2.67996-7.54115-5.77335L0 17.81698l9.4849.0398 9.48491.0397 3.14078-8.94824L25.25137 0l.40779 1.25937c.22429.69265 1.52047 4.73516 2.88041 8.98335s2.49427 7.74563 2.52073 7.7721c.0265.0265 3.8551.13221 8.50809.23499 4.65298.10278 8.90359.19944 9.44579.21479L50 18.4925l-7.69124 5.52826c-4.23018 3.04054-7.69123 5.55885-7.69123 5.59626 0 .0374 1.20983 4.08685 2.68851 8.99876 1.47868 4.91192 2.66869 8.95058 2.64448 8.97479-.0242.0242-3.44454-2.44946-7.60073-5.49706z"></path>
    <path d="M32.34979 42.09353c-4.15618-3.0476-7.58581-5.53821-7.62139-5.53469-.0356.004-3.52468 2.41098-7.75356 5.34992s-7.70592 5.32849-7.72676 5.31012c-.0208-.0184 1.28334-4.04331 2.89817-8.9443 2.40604-7.30235 2.90781-8.9378 2.77965-9.0599-.086-.082-3.47954-2.67996-7.54115-5.77335L0 17.81698l9.4849.0398 9.48491.0397 3.14078-8.94824L25.25137 0l.40779 1.25937c.22429.69265 1.52047 4.73516 2.88041 8.98335s2.49427 7.74563 2.52073 7.7721c.0265.0265 3.8551.13221 8.50809.23499 4.65298.10278 8.90359.19944 9.44579.21479L50 18.4925l-7.69124 5.52826c-4.23018 3.04054-7.69123 5.55885-7.69123 5.59626 0 .0374 1.20983 4.08685 2.68851 8.99876 1.47868 4.91192 2.66869 8.95058 2.64448 8.97479-.0242.0242-3.44454-2.44946-7.60073-5.49706z"></path>
  </symbol>
  <symbol id="icon-88" viewBox="0 0 45 46">
    <path d="M0 0h45v46H0z"/>
    <path d="M22.293 32.815a.469.469 0 0 1-.244-.252l-.046-.101V16.733l-2.385 2.496-2.385 2.497-.112.034a.46.46 0 0 1-.398-.053.532.532 0 0 1-.197-.685c.04-.083 5.928-6.286 5.966-6.286.028 0-.018-.049 3.16 3.286 2.688 2.82 2.81 2.951 2.842 3.056.142.455-.292.857-.696.647-.05-.027-.884-.885-2.433-2.506l-2.356-2.466-.005 7.854L23 32.462l-.045.096a.582.582 0 0 1-.29.275.564.564 0 0 1-.371-.018z" fill="#fff"/>
  </symbol>
  <symbol id="icon-90" viewBox="0 0 50 54.036">
    <path d="M.038 52.078c.02-1.076.05-11.009.067-22.071C.122 18.944.152 9.066.172 8.055l.037-1.838h49.584l.036 1.778c.02.978.05 10.83.067 21.892.017 11.063.047 21.022.067 22.132L50 54.036H0zm27.089-16.955c2.416-.509 4.57-1.753 6.543-3.78 2.945-3.024 4.907-7.295 5.643-12.283l.094-.635.384-.392c.422-.43.752-1.033.865-1.583.41-1.976-1.08-3.838-3.072-3.838-1.735 0-3.142 1.429-3.138 3.186 0 .857.329 1.626.956 2.254.406.407.965.73 1.396.81l.231.043-.039.342c-.097.862-.67 2.983-1.153 4.267-1.01 2.686-2.385 4.91-4.11 6.649-1.689 1.7-3.472 2.707-5.388 3.041-.67.117-2.008.117-2.68 0-2.642-.461-5.197-2.323-7.218-5.26-1.53-2.222-2.81-5.397-3.36-8.33-.132-.697-.13-.704.114-.744.664-.107 1.617-.86 1.989-1.57.651-1.246.425-2.785-.553-3.761a3.08 3.08 0 0 0-2.213-.927c-1.991 0-3.481 1.862-3.072 3.838.114.55.443 1.153.865 1.583l.384.392.094.635c.736 4.988 2.698 9.26 5.643 12.284 2.149 2.207 4.508 3.487 7.175 3.892.904.137 2.701.081 3.62-.112zM3.183 2.093A100.18 100.18 0 0 1 2.167.03C2.167.014 12.442 0 25.001 0s22.834.014 22.834.03c0 .017-.458.945-1.017 2.062l-1.016 2.032H4.2z"/>
  </symbol>
  <symbol id="icon-91" viewBox="0 0 50 50.044">
    <path d="M37.252 49.969a25.107 25.107 0 0 1-7.484-1.988c-1.121-.49-3.431-1.654-4.489-2.26-3.907-2.24-7.685-5.224-12.007-9.484-2.956-2.914-4.863-5.164-6.957-8.209-1.278-1.858-2.701-4.233-3.104-5.18-.12-.28-.476-1.078-.79-1.772-.955-2.1-1.407-3.363-1.902-5.318-.458-1.805-.576-2.854-.496-4.386.068-1.276.337-2.198.868-2.97C1.156 8.017 8.62.558 8.933.365c.437-.269.859-.384 1.329-.362.369.016.495.05.867.234.793.392.635.139 3.93 6.309 3.225 6.04 3.223 6.034 3.223 6.894 0 .49-.21 1.22-.471 1.645-.08.129-.805.9-1.613 1.715-1.474 1.486-1.7 1.765-1.7 2.108 0 .613 1.015 2.925 1.923 4.379.792 1.269 2.304 3.138 3.56 4.4 1.52 1.529 4.39 4.206 5.593 5.217 1.774 1.493 4.545 2.747 5.721 2.591l.283-.037 1.7-1.717c1.597-1.615 1.723-1.73 2.11-1.913.226-.107.643-.26.926-.34.438-.124.583-.141.986-.116.472.03 1.044.189 1.21.336.047.042 2.38 1.4 5.185 3.018l5.099 2.942.425.444c.274.286.49.573.604.805.168.343.177.39.177.992 0 .598-.009.652-.18 1.015-.17.366-.355.56-3.947 4.126-2.072 2.059-3.914 3.855-4.093 3.992-.675.52-1.584.853-2.6.955-.695.07-1.044.064-1.928-.028z"/>
  </symbol>
  <symbol id="icon-92" viewBox="0 0 50 43.698">
    <path d="M2.525 42.606C.905 42.137.54 40.962 1.462 39.2 2.99 36.288 22.882 2.288 23.336 1.815c1.065-1.109 2.415-1.14 3.425-.078.373.391 20.731 35.445 21.91 37.726.663 1.281.414 2.424-.643 2.95-.574.284-1.39.296-22.784.32-14.092.017-22.382-.03-22.719-.127z"/>
    <path d="M3.03 42.332c-1.584-.459-1.944-1.61-1.04-3.334C3.484 36.147 22.957 2.866 23.402 2.402c1.042-1.085 2.364-1.115 3.352-.076.365.384 20.294 34.697 21.448 36.93.648 1.254.404 2.372-.63 2.886-.562.28-1.362.29-22.303.315-13.794.016-21.909-.029-22.238-.125zm23.731-4.476c.843-.584 1.293-1.445 1.293-2.472 0-2.971-3.662-4.255-5.439-1.907-1.143 1.51-.661 3.726.992 4.566.94.478 2.312.397 3.154-.187zm.31-9.98c1.025-.542 1.033-.592 1.087-7.241.06-7.257-.011-8.072-.978-8.596-.692-.25-1.343-.225-2.066-.23-1.47-.011-1.802.047-2.234.313-.98.606-1.006.821-.956 8.13.05 7.362.01 7.112 1.267 7.701.8.375 3.109.329 3.88-.078z" stroke="none" fill="currentColor"/>
  </symbol>
  <symbol id="icon-93" viewBox="0 0 50 49.976">
    <path d="M23.16 49.954c-2.425-.216-4.15-.56-6.145-1.227-8.048-2.685-14.3-9.45-16.321-17.66-.52-2.11-.696-3.661-.694-6.107 0-1.94.069-2.819.333-4.365.864-5.059 3.44-9.901 7.221-13.575C11.041 3.633 15.495 1.3 20.177.412 21.682.126 22.588.04 24.485.008c2.03-.035 3.19.041 4.817.316 4.665.79 9.044 2.958 12.705 6.29 2.974 2.708 5.524 6.684 6.79 10.586 1.127 3.481 1.474 7.374.99 11.134-.921 7.164-5.016 13.644-11.144 17.635-3.264 2.126-6.749 3.392-10.664 3.874-.776.095-4.126.173-4.82.11zm4.76-10.57c.394-.186.848-.63 1.037-1.013l.137-.278.03-4.458.03-4.458 4.428-.03 4.428-.03.331-.156c.395-.185.85-.628 1.038-1.012.136-.276.137-.294.137-2.959v-2.68l-.14-.287c-.188-.379-.586-.78-.983-.99l-.323-.17-4.458-.03-4.458-.03-.03-4.458-.03-4.458-.143-.29c-.184-.373-.634-.824-1.01-1.01l-.293-.145-2.567-.018c-2.462-.017-2.58-.012-2.896.106a2.178 2.178 0 0 0-1.278 1.385c-.085.286-.097.854-.097 4.622v4.297h-4.365c-4.268 0-4.373.003-4.699.124-.437.164-.922.61-1.15 1.06l-.178.352v5.183l.198.402c.22.446.577.802 1.028 1.024l.28.138 4.443.017 4.443.016v4.295c0 4.734-.008 4.625.377 5.198.239.355.705.719 1.07.834.219.07.751.084 2.8.074l2.53-.012.332-.155z"/>
  </symbol>
  <symbol id="icon-94" viewBox="0 0 50 50.016">
    <path d="M23.474 49.973c-5.987-.34-11.555-2.786-15.927-6.998-3.7-3.564-6.26-8.33-7.182-13.372C.057 27.92 0 27.198 0 24.976c0-2.223.057-2.945.365-4.628C1.533 13.971 5.322 8.127 10.696 4.415c3.467-2.395 7.11-3.77 11.39-4.3 1.251-.154 4.524-.154 5.798.001 3.462.421 6.562 1.431 9.441 3.076.833.476 2.53 1.619 3.21 2.162 3.758 3.004 6.569 6.964 8.114 11.434 1.248 3.61 1.642 7.608 1.138 11.55-.677 5.288-3.082 10.234-6.848 14.088-1.125 1.15-1.815 1.758-3.003 2.645-4.76 3.551-10.442 5.244-16.462 4.902zM38.12 29.03c.4-.12.888-.516 1.132-.921.3-.5.332-.852.306-3.383-.02-1.981-.036-2.278-.132-2.534-.149-.397-.68-.956-1.105-1.165l-.342-.168-12.858-.015c-14.038-.018-13.175-.037-13.732.314a2.397 2.397 0 0 0-.845 1.038c-.12.321-.124.427-.107 2.894.018 2.56.018 2.56.16 2.848.253.507.79.964 1.33 1.128.083.026 5.94.049 13.015.051 11.432.005 12.9-.005 13.178-.087z"/>
    <path d="M23.474 49.973c-5.987-.34-11.555-2.786-15.927-6.998-3.7-3.564-6.26-8.33-7.182-13.372C.057 27.92 0 27.198 0 24.976c0-2.223.057-2.945.365-4.628C1.533 13.971 5.322 8.127 10.696 4.415c3.467-2.395 7.11-3.77 11.39-4.3 1.251-.154 4.524-.154 5.798.001 3.462.421 6.562 1.431 9.441 3.076.833.476 2.53 1.619 3.21 2.162 3.758 3.004 6.569 6.964 8.114 11.434 1.248 3.61 1.642 7.608 1.138 11.55-.677 5.288-3.082 10.234-6.848 14.088-1.125 1.15-1.815 1.758-3.003 2.645-4.76 3.551-10.442 5.244-16.462 4.902zM38.12 29.03c.4-.12.888-.516 1.132-.921.3-.5.332-.852.306-3.383-.02-1.981-.036-2.278-.132-2.534-.149-.397-.68-.956-1.105-1.165l-.342-.168-12.858-.015c-14.038-.018-13.175-.037-13.732.314a2.397 2.397 0 0 0-.845 1.038c-.12.321-.124.427-.107 2.894.018 2.56.018 2.56.16 2.848.253.507.79.964 1.33 1.128.083.026 5.94.049 13.015.051 11.432.005 12.9-.005 13.178-.087z"/>
  </symbol>
  <symbol id="icon-95" viewBox="0 0 34.83 50">
    <path d="M16.826 49.886a1.324 1.324 0 0 1-.706-.694l-.132-.28v-21.7L15.986 5.51 9.093 12.4 2.2 19.287l-.325.093c-.414.118-.764.074-1.15-.146a1.43 1.43 0 0 1-.57-1.89C.27 17.119 17.29 0 17.402 0c.08 0-.053-.133 9.135 9.07 7.769 7.78 8.12 8.142 8.215 8.43.408 1.255-.845 2.366-2.013 1.786-.148-.074-2.557-2.442-7.034-6.916l-6.81-6.803-.014 21.672-.014 21.673-.13.265c-.16.324-.543.672-.838.76-.335.1-.787.079-1.073-.05z"/>
  </symbol>
  <symbol id="icon-96" viewBox="0 0 332.11951 331.57996">
    <path d="M157.38615 331.01871c-5.56773-1.18507-9.70961-3.41913-12.19362-6.57704-1.41592-1.80005-3.824-3.01598-7.8383-3.95786-7.68412-1.80293-12.38547-3.84804-16.17376-7.03568l-3.12072-2.62592-.0455-34.1611-.0455-34.16111-8.09917-5c-9.61027-5.93289-23.80958-19.46235-29.78631-28.38117-5.54813-8.27923-11.32345-20.8063-13.65508-29.61883-2.70755-10.2333-2.45527-32.05446.49651-42.94602 9.29638-34.30204 37.2034-60.333094 74.79514-69.767278 12.68354-3.183116 35.99628-3.183116 48.67982 0C228.26767 76.290216 255.9419 102.26031 265.2203 137c3.01732 11.29727 3.2424 31.9509.46315 42.5-2.31823 8.79925-8.0903 21.32649-13.64722 29.61883-5.97673 8.91882-20.17604 22.44828-29.78633 28.38117l-8.09917 5-.0455 34.1772-.0455 34.17719-3.59499 2.9633C206.95539 316.71041 195.96505 321 192.063 321c-1.07511 0-3.35945 1.54366-5.0763 3.43035-1.71685 1.8867-4.9075 4.14495-7.09032 5.01834-4.84771 1.93967-16.84284 2.77629-22.51023 1.57002zm24.18425-71.5635c3.26197-.84964 6.66504-2.20922 7.56237-3.02129.89733-.81208 3.34168-6.47261 5.43188-12.57896l3.80037-11.10246 4.59737-2.01346c31.35293-13.73131 51.50287-47.8658 47.22455-79.99954-4.92095-36.96047-34.93769-65.335844-73.95816-69.913984-26.67982-3.13026-52.24886 5.54845-71.22235 24.174484-24.99214 24.53447-30.63244 58.28864-14.91001 89.22837 7.724844 15.20147 23.47494 29.91821 39.26067 36.68476 4.3938 1.8834 4.43444 1.94762 8.2069 12.96853 2.08517 6.09167 4.5315 11.7457 5.43628 12.56451 4.70577 4.25867 27.07307 6.00364 38.57013 3.00904zM32.5557 273.99592l-6.96466-7.01844 14.23224-14.23224 14.23224-14.23223 7.00427 7.00427 7.00428 7.00428-14.27186 14.24639-14.27186 14.2464-6.96465-7.01843zm245.7361-7.26346l-14.2464-14.27186 7.01843-6.96465 7.01844-6.96466 14.23225 14.23224 14.23223 14.23224-7.00427 7.00427-7.00428 7.00428-14.2464-14.27186zM.27988 153.25l.27987-12.75 18.75-.27207 18.75-.27206V166H0l.27988-12.75zm293.77988-.27207v-13.02206l18.75.27206 18.75.27207.27988 12.75.27987 12.75H294.05976v-13.02207zM53.05155 54.491778L38.58131 39.995682l7.23683-7.23683 7.23683-7.23683 14.00239 13.975592c7.70132 7.686576 14.00239 14.443689 14.00239 15.015808 0 .57212-3.04604 4.06292-6.76898 7.757335l-6.76899 6.717118-14.47023-14.496097zm205.24468 6.246293l-7.22592-7.274477 14.26351-14.23807 14.26352-14.238071 7.22594 7.274476 7.22592 7.274477-14.26352 14.23807-14.26352 14.238071-7.22593-7.274476zM153.05975 19V0h26v38h-26V19z"></path>
  </symbol>
  <symbol id="icon-97" viewBox="3 -1 43 50">
    <path d="M35.81.498c-4.644 0-8.842 2.433-10.794 6.225C23.062 2.93 18.813.498 14.168.498c-7.258 0-16.992 5.85-12.56 21.816 4.711 14.511 20.91 23.466 23.149 24.643 10.535-7.659 20.084-14.71 23.637-24.643C52.826 6.349 43.067.498 35.811.498z" fill="currentColor"/>
  </symbol>


</svg>
