<svg xmlns="http://www.w3.org/2000/svg" viewBox="0 0 39 30">
  <defs>
    <clipPath id="a">
      <path d="M0 71.42h58.102V0H0v71.42z"/>
    </clipPath>
  </defs>
  <path d="M16.348 13.736H9.002V8.633h7.346v5.103zm6.178 15.073H17.5v-13.5h5.025v13.5z" fill="#d6cdc1"/>
  <path d="M29.806 28.81h-6.127V15.308h6.127v13.5z" fill="#f4ece4"/>
  <g transform="matrix(.42005 0 0 -.42005 7.81 30)" clip-path="url(#a)">
    <path d="M55.267 38.72h-17.49v12.147h17.49zM52.362 2.835H37.777v32.14h14.585zM36.854 55.113c-1.476 0-2.858.038-3.967.086 2.042 4.826 5.174 11.032 7.29 12.369a6.542 6.542 0 0 0 3.5 1.017 6.541 6.541 0 0 0 5.556-3.057c1.932-3.064 1.019-7.126-2.042-9.057-.643-.408-2.941-1.358-10.337-1.358M35.031 38.72H23.069v12.147h11.962zm0-35.885H23.069v32.14h11.962zM21.212 55.11h-.002c-7.372 0-9.662.945-10.303 1.35-3.057 1.94-3.973 6.008-2.042 9.068a6.541 6.541 0 0 0 5.557 3.057 6.515 6.515 0 0 0 3.501-1.021c2.114-1.333 5.248-7.54 7.291-12.367a98.224 98.224 0 0 0-4.002-.087m-.887-16.39H2.835v12.147h17.49zm0-35.885H5.685l.055 32.14h14.585zm34.942 50.867h-7.26c.258.116.49.24.697.371 4.38 2.765 5.692 8.581 2.924 12.971a9.36 9.36 0 0 1-7.951 4.376 9.374 9.374 0 0 1-5.014-1.455c-3.097-1.956-6.584-9.4-8.386-13.661a2.856 2.856 0 0 1-.172-.599 2.15 2.15 0 0 1-1.054.283c-.385 0-.741-.108-1.055-.284a2.83 2.83 0 0 1-.172.598c-1.804 4.263-5.294 11.708-8.38 13.655a9.351 9.351 0 0 1-5.022 1.463 9.362 9.362 0 0 1-7.954-4.379c-2.764-4.379-1.453-10.2 2.927-12.978.201-.127.426-.248.675-.361H2.835A2.835 2.835 0 0 1 0 50.867V38.72a2.835 2.835 0 0 1 2.835-2.835h.219a2.818 2.818 0 0 1-.15-.909V2.835A2.836 2.836 0 0 1 5.739 0h14.586c.718 0 1.373.268 1.872.707A2.832 2.832 0 0 1 24.07 0h9.961a2.83 2.83 0 0 1 1.873.707A2.827 2.827 0 0 1 37.776 0h14.586a2.835 2.835 0 0 1 2.835 2.835v32.141c0 .318-.052.624-.149.909h.219a2.835 2.835 0 0 1 2.835 2.835v12.147a2.835 2.835 0 0 1-2.835 2.835" fill="#a58a63"/>
  </g>
  <path d="M17.509 11.185V8.638h5.016v5.094h-5.016v-2.547z" opacity=".607" fill="#f4ece4"/>
  <path d="M17.505 11.185v-2.55h5.016v5.1h-5.016v-2.55zM23.683 11.184v-2.55h7.336v5.1h-7.336v-2.55zM10.214 24.461c.003-2.388.007-5.423.01-6.744l.004-2.401h6.116v13.488h-6.135l.005-4.343z" fill="#f4ece4"/>
</svg>