<svg version="1.2" baseProfile="tiny" xmlns="http://www.w3.org/2000/svg" viewBox="0 0 39 30">
  <path fill="#D6CDC1" d="M12.191 10.1913l-.1 3.2183 1.4982 1.6092h1.6979l2.0974-1.5019v-3.0037l-.3995.1072-4.794-.429zM22.3783 9.9768v3.2183l1.3983 1.6092h1.7978l1.9975-1.502v-3.111l-.3995.2146-4.794-.4291zM13.789.5364l-1.4982 9.4404 4.894.2145.2996-9.655H13.789z"/>
  <path fill="#D6CDC1" d="M22.1786.6437l.3995 9.5476 4.9938-.1072-1.598-9.5477-3.7953.1073z"/>
  <path fill="none" stroke="#A58A63" stroke-linecap="round" stroke-linejoin="round" stroke-miterlimit="10" d="M4.5.5H26l2 9.1H2.3L4.5.5zM9 .8L7.7 9.2M21.5.6l1.2 8.9M17.4.6l.6 8.8M12.9 9.6l.4-8.9M2.4 9.9v2c0 1.2 1.2 2.2 2.6 2.2 1.3 0 2.4-.8 2.6-1.9.2 1.1 1.2 1.9 2.6 1.9 1.2 0 2.3-.7 2.5-1.7.3 1 1.3 1.7 2.5 1.7s2.3-.7 2.5-1.7c.3 1 1.3 1.7 2.5 1.7s2.3-.7 2.5-1.7c.3 1 1.3 1.7 2.5 1.7 1.4 0 2.6-1 2.6-2.2V9.8M.5 27.5h28.8M3.9 16.4V27M11 16.4v10.5M25.9 16.4v11M23.6 19.1l-5.1 5.4M24 21.6l-2.9 3.1" transform="matrix(.99876 0 0 1.07277 4.6003 0)"/>
</svg>
