<svg xmlns="http://www.w3.org/2000/svg" viewBox="0 0 39.000001 30">
  <path d="M23.236 7.074l-1.163 1.324c4.474 1.058 7.804 5.075 7.804 9.872 0 5.604-4.543 10.147-10.147 10.147-5.605 0-10.148-4.543-10.148-10.147S14.125 8.123 19.73 8.123c.317 0 .63.016.94.045l-.017-.004.423-1.544c-.442-.051-.89-.08-1.346-.08C13.252 6.54 8 11.792 8 18.27 8 24.748 13.252 30 19.73 30c6.478 0 11.73-5.252 11.73-11.73 0-5.257-3.459-9.705-8.224-11.196" fill="#a58a63"/>
  <path d="M20.063 10.686a.401.401 0 0 1-.204.123l2.147-7.151h4.13a.397.397 0 0 1-.097.226l-5.976 6.802zm-6.644-6.815a.4.4 0 0 1-.096-.213h4.022l2.25 7.13a.405.405 0 0 1-.135-.1L13.42 3.87zM15.237.836l1.806 2.336h-3.505l1.7-2.336zm3.925-.398l-1.734 2.438L15.571.474a.399.399 0 0 1 .16-.036h3.43zm4.617.005l-1.882 2.433L20.164.438h3.575c.014 0 .027.003.04.005m-5.965 2.729l1.849-2.6 1.849 2.6h-3.698zm1.908 6.404l-1.868-5.918H21.5l-1.777 5.918zm6.19-6.404h-3.63L24.163.74l1.75 2.43zm.507-.044L24.421.35a.841.841 0 0 0-.682-.35h-8.007a.843.843 0 0 0-.68.346L13.042 3.11a.845.845 0 0 0 .05 1.05l6.041 6.817a.84.84 0 0 0 .629.283h.002a.84.84 0 0 0 .629-.286l5.976-6.802a.836.836 0 0 0 .051-1.045" fill="#a58a63"/>
  <path d="M19.162.438l-1.734 2.438L15.571.474a.4.4 0 0 1 .16-.036h3.43z" fill="#d6cdc1"/>
  <path d="M23.779.442l-1.882 2.433L20.163.437h3.576c.013 0 .027.003.04.005" fill="#f4ece4"/>
  <path d="M19.722 9.576l-1.868-5.918H21.5l-1.777 5.918z" fill="#d6cdc1"/>
  <path d="M15.237.837l1.806 2.335h-3.505l1.7-2.335zM13.42 3.87a.397.397 0 0 1-.095-.213h4.02l2.252 7.13a.4.4 0 0 1-.136-.1L13.42 3.871z" fill="#f4ece4"/>
  <path fill="#fff" d="M17.873 3.14c0-.011.4-.583.89-1.271l.895-1.258c.006-.01 1.768 2.467 1.787 2.513.008.02-.792.035-1.779.035s-1.793-.009-1.793-.02zm4.495-.036c.673-.882 1.797-2.328 1.804-2.32l.816 1.138c.444.62.827 1.152.85 1.182.036.044-.317.055-1.734.055-1.416 0-1.77-.01-1.736-.055zm-2.447 7.568c.016-.06.493-1.651 1.06-3.535l1.03-3.425 2.045-.012c1.772-.01 2.042-.003 2.03.053-.009.036-.632.766-1.385 1.624-.754.857-2.103 2.394-2.998 3.416-.895 1.021-1.67 1.887-1.72 1.923-.087.062-.09.06-.062-.044z"/>
</svg>