<svg xmlns="http://www.w3.org/2000/svg" viewBox="0 0 39 30">
  <path d="M17.188 21.651l-3.249 2.813a13.076 13.076 0 0 1-1.113-6.133l2.621-2.36a.458.458 0 0 0-.612-.68l-1.862 1.676c.754-4.645 3.746-7.451 5.166-8.546l-.951 13.23z" fill="#f4ece4"/>
  <path d="M22.912 18.88a13.036 13.036 0 0 1-2.002 6.083l-2.81-3.245.952-13.234c1.352 1.388 4.246 5.023 3.86 10.396" fill="#d6cdc1"/>
  <path d="M27.312 23.102l-3.783-2.12c.14-.642.242-1.32.292-2.037.376-5.214-2.076-8.844-3.642-10.604 1.695.865 4.981 3.012 6.582 7.258l-1.397-.782a.458.458 0 1 0-.448.798l2.255 1.262c.624 2.334.53 4.456.141 6.225m-4.404-4.223a13.036 13.036 0 0 1-2.002 6.083l-2.809-3.244.952-13.234c1.352 1.388 4.246 5.023 3.86 10.395m-5.725 2.772l-3.248 2.813a13.073 13.073 0 0 1-1.113-6.132l2.62-2.36a.458.458 0 0 0-.611-.681l-1.862 1.676c.754-4.645 3.746-7.451 5.166-8.546l-.952 13.23zm.462-15.903a1.147 1.147 0 0 1 1.223-1.059c.304.022.582.161.782.393.2.23.298.526.276.83a1.148 1.148 0 0 1-1.222 1.058 1.134 1.134 0 0 1-.783-.392 1.137 1.137 0 0 1-.276-.83m10.36 10.701c-1.62-5.74-5.998-8.293-7.807-9.126a2.051 2.051 0 0 0 .144-2.84 2.036 2.036 0 0 0-.79-.554l.628-.901c.577-.827.517-1.867-.144-2.527-.668-.668-1.832-.668-2.5 0a1.77 1.77 0 0 0 0 2.5.457.457 0 1 0 .647-.647.85.85 0 0 1 0-1.206.873.873 0 0 1 1.205 0c.348.347.364.892.04 1.356l-.893 1.284a2.069 2.069 0 0 0-1.804 1.894c-.039.549.137 1.08.498 1.496.14.163.308.292.486.4-1.606 1.185-5.374 4.567-5.801 10.511V18.098c-.53 7.412 4.655 11.627 4.876 11.802.013.01.03.015.044.024a.5.5 0 0 0 .06.034.446.446 0 0 0 .11.03c.013.002.024.01.038.01a.436.436 0 0 0 .222-.043c.014-.007.029-.01.042-.018l.046-.028c.316-.192 1.99-1.263 3.56-3.307 2.083 1.797 4.055 2.49 4.201 2.54a.473.473 0 0 0 .147.023c.037 0 .073-.015.109-.024.028-.007.057-.006.083-.019a.443.443 0 0 0 .16-.122l.057-.072c.531-.667 4.254-5.677 2.336-12.479m-7.012 4.47a.456.456 0 0 0 .647.034.458.458 0 0 0 .034-.646l-1.618-1.796a.459.459 0 0 0-.68.612l1.617 1.796z" fill="#a58a63"/>
  <path d="M20.152 13.313a.456.456 0 0 0 .646.034.458.458 0 0 0 .034-.646l-.775-.86a.457.457 0 1 0-.68.612l.775.86z" fill="#a58a63"/>
</svg>