<svg xmlns="http://www.w3.org/2000/svg" viewBox="0 0 39 30" fill="none">
  <path stroke-miterlimit="10" d="M7.2518 16.0606c-.1093 0-.1093 0-.1093-.101 0-1.1111.875-2.1212 2.0782-2.3232h.2188c.875-.202 1.5313-.9091 1.5313-1.7172 0-.101 0-.101.1094-.101s.1094 0 .1094.101c0 .909-.7657 1.7172-1.7501 1.9192h-.2188c-1.0938.202-1.8595 1.111-1.8595 2.1212 0 .101-.1094.101-.1094.101z" stroke="#a58a63" stroke-width="1.0101"/>
  <path stroke-miterlimit="10" d="M15.016 16.0606c-.1093 0-.1093 0-.1093-.101 0-1.0101-.7658-1.9192-1.8595-2.1212h-.2188c-.9844-.202-1.75-1.0101-1.75-1.9192 0-.101 0-.101.1093-.101.1094 0 .1094 0 .1094.101 0 .808.6563 1.5151 1.5313 1.7172h.2188c1.2031.202 2.0782 1.212 2.0782 2.3232 0 .101-.1094.101-.1094.101zM9.547 10.606c-1.5313 1.9193-2.4064 4.1415-2.4064 6.6667V28.586c0 .505-.4375.909-.9844.909h-.7657c-.5469 0-.9844-.404-.9844-.909V20.606c0-2.1213.1094-4.3435.9844-6.2627.7657-1.6161 1.9689-3.0303 3.3909-4.1414" stroke="#a58a63" stroke-width="1.0101"/>
  <path stroke-miterlimit="10" d="M12.6112 10.606c1.5314 1.8182 2.4064 4.1415 2.4064 6.5657v11.3131c0 .5051.4375.9091.9845.9091h.7656c.5469 0 .9845-.404.9845-.909V20.505c0-2.1213-.1094-4.3435-.9845-6.2627-.7656-1.6161-1.9689-3.0303-3.3908-4.1414M4.4061 20.505v8.0809c0 .505.4375.909.9844.909h.8751c.5469 0 .9844-.404.9844-.909v-2.5253c-1.422-1.4141-2.5157-3.3333-2.8439-5.5555z" stroke="#a58a63" stroke-width="1.0101"/>
  <path stroke-miterlimit="10" d="M18.298 20.505v8.0809c0 .505-.4376.909-.9844.909h-.875c-.547 0-.9845-.404-.9845-.909v-2.5253c1.422-1.4141 2.5157-3.3333 2.844-5.5555zM28.5796 5.2525V28.788c0 .404-.328.707-.7656.707h-.2187c-.4376 0-.7658-.303-.7658-.707V5.2525" stroke="#a58a63" stroke-width="1.0101"/>
  <path stroke-miterlimit="10" d="M22.2365 6.5657c-.2188 0-.4376-.101-.547-.202-.1093-.101-.2187-.303-.2187-.5051-.3281-1.8182-.3281-2.8283 0-4.6465 0-.404.3281-.707.7657-.707.2187 0 .4375.101.5469.202.1094.101.2188.303.2188.505v.101c0 .101 0 .202.1093.303.2187.5051.7657.8081 1.422.6061.1094 0 .2188-.101.3281-.202.2187-.202.4375-.202.7657-.202h3.9377c.3282 0 .6562.202.875.404.1094.101.2188.202.2188.404.2188.202.5469.303.875.101.1095-.202.2189-.303.3283-.404.328-.303.7656-.505 1.3125-.505.9844 0 1.8595.808 1.8595 1.7172 0 .909-.875 1.7171-1.8595 1.7171-.5469 0-.9845-.202-1.3125-.505l-.1094-.101c-.1094-.101-.1094-.202-.2188-.303-.2188-.101-.5469-.101-.7657 0-.1094 0-.1094.101-.2188.101 0 .101-.1094.303-.2188.404-.2187.202-.5468.404-.875.404h-3.9377c-.3282 0-.5469-.101-.7656-.202-.3282-.202-.6563-.303-1.0939-.202-.4375.101-.7656.505-.7656.909v.101c.1094.4041-.2188.7072-.6563.7072z" stroke="#a58a63" stroke-width="1.0101"/>
  <path d="M12.501 1.7172c.547.404.875 1.01.875 1.6161v5.0505c0 .303-.1093.5051-.2187.8081-.1094.202-.2188.505-.4375.606-.4375.4041-.9844.6061-1.5314.6061-.875 0-1.6407-.505-1.9688-1.212.4375-.6061 1.0938-1.1112 1.9688-1.1112h.1094c.6563 0 1.0938-.505 1.0938-1.01V1.7171h.1094zm0-1.0101c-.2187 0-.3281 0-.5469.101-.3281.202-.5469.505-.5469.909v5.3536h-.2188c-1.2031 0-2.4063.606-2.9532 1.6162-.2188.303-.2188.606-.1094.909.5469 1.1112 1.75 1.8182 3.0626 1.8182.875 0 1.6408-.303 2.297-.909.3282-.303.547-.6061.6563-1.0101.2188-.404.2188-.8081.2188-1.2122V3.2323c0-1.01-.547-1.9192-1.422-2.4242 0 0-.2187-.101-.4375-.101z" fill="#a58a63"/>
  <path d="M9.8748 1.7172v5.3535c0 .606.547 1.0101 1.0938 1.0101h.1094c.875 0 1.6407.404 1.9689 1.1111 0 .202-.1094.505-.3282.606-.4375.4041-.9844.6061-1.5313.6061-.875 0-1.6407-.505-1.9689-1.212-.1093-.202-.2187-.5051-.2187-.8082V3.3333c0-.707.3281-1.212.875-1.6161zm0-1.0101c-.2187 0-.4375.101-.5469.202-.875.505-1.422 1.4141-1.422 2.4242v5.0505c0 .404.1094.8081.2188 1.2122.547 1.111 1.7501 1.8181 3.0627 1.8181.875 0 1.6407-.303 2.297-.909.3282-.303.547-.6061.6562-1.0101.1094-.303.1094-.6061 0-.9091-.5468-1.0101-1.75-1.6162-2.9532-1.6162h-.1094V1.7172c0-.404-.2187-.707-.5469-.9091-.2188-.101-.4375-.101-.6563-.101z" fill="#a58a63"/>
</svg>
