<svg xmlns="http://www.w3.org/2000/svg" viewBox="0 0 39 30" fill="none">
  <path d="M5.638 3.7213c-2.459 3.5845-1.797 8.603 1.5132 11.3681 1.135.9218 2.3644 1.4339 3.6885 1.5363l8.7012 1.0241c.7566.1025 1.5133-.2048 1.9861-.9217.4729-.717.5675-1.6387.2838-2.3556l-3.3103-8.8078c-.4728-1.3314-1.324-2.458-2.459-3.3797C12.7313-.5802 8.097.1367 5.638 3.7213z" stroke="#a58a63" stroke-width="1.0242" stroke-linecap="round" stroke-linejoin="round"/>
  <path d="M33.5377 26.2528c-2.4591 3.5845-7.188 4.3015-10.4982 1.6386-1.135-.9217-1.8916-2.0483-2.459-3.3797l-3.3103-8.8078c-.2837-.7169-.1891-1.6386.2837-2.3555.473-.717 1.2295-1.0242 1.9862-.9218l8.7011 1.0242c1.3242.1024 2.5537.6145 3.6886 1.5362 3.4049 2.6628 4.0669 7.6812 1.6079 11.2658zM16.2194 12.2717c1.9074-2.764 1.3843-6.679-1.1682-8.7444-2.5525-2.0654-6.168-1.499-8.0752 1.265-1.9073 2.7641-1.3843 6.6792 1.1683 8.7445 2.5525 2.0653 6.1678 1.499 8.0751-1.2651z" stroke="#a58a63" stroke-width="1.0242" stroke-linecap="round" stroke-linejoin="round"/>
  <path d="M20.541 15.7988c.5003-.725.363-1.752-.3064-2.2937-.6695-.5417-1.6178-.3932-2.1181.3318-.5003.725-.363 1.752.3064 2.2937.6695.5417 1.6178.3932 2.118-.3318z" fill="#d6cdc1"/>
  <path d="M17.9337 15.1919c-.0947-.1025-.0947-.1025 0 0-.0947-.2049 0-.2049.0945-.2049l2.7428-.4096c.0945 0 .0945 0 .1892.1024 0 .1024 0 .1024-.0946.2048l-2.7428.4097-.1891-.1024z" fill="#fff"/>
  <path d="M12.9093 5.4667c.3752-.5438.2724-1.314-.2298-1.7202-.5021-.4063-1.2133-.295-1.5886.2488-.3752.5438-.2723 1.314.2299 1.7203.5021.4063 1.2133.2948 1.5885-.249z" stroke="#a58a63" stroke-width="1.0242" stroke-linecap="round" stroke-linejoin="round"/>
  <path d="M23.5142 18.6739l-.0946-.1024c0-.1024.0946-.1024.0946-.1024l8.2282.6145c.0946 0 .0946.1024.0946.1024 0 .1024-.0946.1024-.0946.1024l-8.2282-.6145c.0945.1024 0 0 0 0z" fill="#a58a63"/>
  <path stroke-miterlimit="10" d="M23.5142 18.6739l-.0946-.1024c0-.1024.0946-.1024.0946-.1024l8.2282.6145c.0946 0 .0946.1024.0946.1024 0 .1024-.0946.1024-.0946.1024l-8.2282-.6145zm0 0c.0945.1024 0 0 0 0z" stroke="#d6cdc1" stroke-width="1.0242"/>
  <path d="M24.1743 21.2343l-.0946-.1024c0-.1024.0946-.1024.1891-.1024l5.6748.512c.0945 0 .0945.1025.0945.2049s-.0945.1024-.1891.1024l-5.6747-.6145c0 .1024 0 0 0 0z" fill="#a58a63"/>
  <path stroke-miterlimit="10" d="M24.1743 21.2343l-.0946-.1024c0-.1024.0946-.1024.1891-.1024l5.6748.512c.0945 0 .0945.1025.0945.2049s-.0945.1024-.1891.1024l-5.6747-.6145zm0 0c0 .1024 0 0 0 0z" stroke="#d6cdc1" stroke-width="1.0242"/>
</svg>
