<svg xmlns="http://www.w3.org/2000/svg" viewBox="0 0 39.000001 30">
  <path fill="#a58a63" d="M33.359 3.895l1.79-1.79h.315l.21.21c.106.106.106.211 0 .317l-1.789 1.79c-.105.104-.21.104-.316 0l-.21-.211c-.106-.106-.106-.211 0-.316z" class="st1"/>
  <path fill="#a58a63" d="M33.885 2.105l1.79 1.79c.105.105.105.21 0 .316l-.211.21c-.105.105-.21.105-.316 0l-1.79-1.79c-.105-.105-.105-.21 0-.315l.211-.21h.316z" class="st1"/>
  <path d="M23.359 16.737l-3.263-4.526c-.211-.316-.632-.527-1.158-.527H5.78c-.421 0-.842.21-1.158.527l-3.263 4.526c-.421.526-.316 1.263.105 1.684l9.895 11.158c.316.316.631.421 1.052.421.421 0 .737-.21 1.053-.421l9.79-11.053c.42-.526.42-1.263.105-1.79zm-.842.105h-6l3.052-4zM12.41 27.263L9.36 17.58h6zm-3.158-10.42l3.053-4.317 3.17 4.308zm9.79-4.422l-3.158 4-2.842-4zm-7.579 0l-2.842 4-3.053-3.895c1.847-.042 3.97-.105 5.895-.105zm-6.526.632l3.052 3.79H2.2zM2.096 18c-.106-.105-.106-.21-.211-.316h6.632L12.2 29.368c-.105 0-.21-.105-.21-.105zm10.842 11.158c-.106.105-.21.21-.316.21l3.474-11.684c2.485 3.98-2.054 10.18-3.158 11.474z" fill="#a58a63"/>
  <path d="M11.464 12.421l-2.842 4-3.053-3.895c1.927-.053 3.962-.105 5.895-.105z" class="st3" fill="#d6cdc1"/>
  <path fill="#f4ece4" d="M19.043 12.421l-3.158 4-2.842-4h6z" class="st4"/>
  <path d="M9.253 17.579h6.11l-2.952 9.684z" class="st3" fill="#d6cdc1"/>
  <path d="M7.99 16.842H2.2l2.748-3.801zM2.096 18c-.106-.105-.106-.21-.211-.316h6.632L12.2 29.368c-.105 0-.21-.105-.21-.105z" class="st4" fill="#f4ece4"/>
  <path fill="#a58a63" d="M11.78 7.368h11.579c.316 0 .526.21.526.527s-.21.526-.526.526h-11.58c-.315 0-.526-.21-.526-.526s.211-.527.527-.527zm14.526 0h5.053c.21 0 .316.106.316.316V8c0 .21-.106.421-.316.421h-5.053c-.21 0-.316-.105-.316-.316v-.42c0-.211.21-.317.316-.317zm0 4.21h5.053c.21 0 .316.106.316.317v.316c0 .21-.106.315-.316.315h-5.053c-.21 0-.316-.105-.316-.315v-.316c0-.106.21-.316.316-.316zm0 4.317h5.053c.21 0 .316.105.316.316v.315c0 .21-.106.316-.316.316h-5.053c-.21 0-.316-.105-.316-.316v-.315c0-.211.21-.316.316-.316zm0 4.21h5.053c.21 0 .316.106.316.316v.316c0 .21-.106.316-.316.316h-5.053c-.21 0-.316-.106-.316-.316v-.316c0-.21.21-.316.316-.316zm0 4.21h5.053c.21 0 .316.106.316.317v.315c0 .21-.106.316-.316.316h-5.053c-.21 0-.316-.105-.316-.316v-.315c0-.21.21-.316.316-.316zm7.158-16.947h2.421c.105 0 .21.106.21.21v.527c.106.21 0 .316-.21.316h-2.421a.226.226 0 0 1-.21-.21v-.632c0-.105.105-.21.21-.21zm0 4.21h2.421c.105 0 .21.106.21.211v.527c0 .105-.105.21-.21.21h-2.421a.226.226 0 0 1-.21-.21v-.527c0-.105.105-.21.21-.21zm0 4.317h2.421c.105 0 .21.105.21.21v.527c0 .105-.105.21-.21.21h-2.421a.226.226 0 0 1-.21-.21v-.527c0-.105.105-.21.21-.21zm0 4.21h2.421c.105 0 .21.106.21.21v.527c0 .105-.105.21-.21.21h-2.421a.226.226 0 0 1-.21-.21v-.526c0-.105.105-.21.21-.21zm0 4.21h2.421c.105 0 .21.106.21.211v.527c0 .105-.105.21-.21.21h-2.421a.226.226 0 0 1-.21-.21v-.527c0-.105.105-.21.21-.21zm-10.105-8.42h-.421l.631.947c.21-.105.421-.42.21-.631 0-.211-.21-.316-.42-.316zm0-4.21h-3.263l.631.947h2.842c.21-.106.316-.421.21-.737 0-.106-.21-.21-.42-.21zm0 8.42H22.2l-.948 1.053h2c.316 0 .527-.21.632-.421 0-.316-.21-.526-.421-.632h-.105zm0 4.21h-4.316l-.947 1.053h5.157c.316 0 .527-.315.422-.631.105-.21-.106-.421-.316-.421z" class="st1"/>
  <path fill="#a58a63" d="M35.253 0H11.885a2.83 2.83 0 0 0-2.842 2.842v8.21h.947v-8.21c0-1.053.842-1.895 1.895-1.895h23.368c1.053 0 1.895.842 1.895 1.895v23.369a1.887 1.887 0 0 1-1.895 1.894h-20l-.842.948h20.842c1.474 0 2.737-1.264 2.737-2.737V2.842C37.99 1.263 36.832 0 35.253 0z" class="st1"/>
  <path d="M12.303 12.535l3.18 4.32-6.224-.014zM19.557 12.832l2.965 4.02-6.01-.003zM13.035 29.064l-.222.212-.091.07-.103.026 3.495-11.667 6.758-.051-3.843 4.236-5.994 7.174" class="st4" fill="#f4ece4"/>
</svg>