<svg xmlns="http://www.w3.org/2000/svg" viewBox="0 0 39 30">
  <path class="st2" d="M28.826 16.696H11.61c-.13 0-.392-.13-.522-.261-.13-.13-.13-.392-.13-.522l3-10.696c.13-.26.26-.39.521-.39h1.696c.391 0 .652.26.652.651s-.26.652-.652.652H14.87l-2.74 9.522h15.653l-2.61-9.522H23.74c-.391 0-.652-.26-.652-.652s.26-.652.652-.652h1.957c.26 0 .521.13.521.391l3 10.696c0 .13 0 .391-.13.522.13.13 0 .26-.26.26zM38.478 30H21.261c-.13 0-.391-.13-.522-.26-.13-.131-.13-.392-.13-.523l3-10.695c.13-.261.26-.392.521-.392h11.348c.261 0 .522.13.522.392l3 10.695c0 .13 0 .392-.13.522 0 .13-.13.261-.392.261zm-16.435-1.304h15.653l-2.74-9.522H24.523l-2.479 9.522zM17.87 30H.652c-.13 0-.391-.13-.522-.26-.13-.131-.13-.392-.13-.523l3-10.695c.13-.261.26-.392.522-.392H14.87c.26 0 .521.13.521.392l3 10.695c0 .13 0 .392-.13.522 0 .13-.13.261-.391.261zM1.435 28.696h15.652l-2.74-9.392H3.914l-2.478 9.392z" fill="#a58a63"/>
  <path class="st5" fill="#a58a63" d="M31.957 16.043l-1.305-.913h1.565L33 13.826l.13 1.565 1.174.913H32.74l-.782 1.305z"/>
  <path class="st2" fill="#a58a63" d="M5.87 11.74l-1.827-.262 1.566-1.174.13-1.826 1.174 1.435 1.826.26-1.435 1.175-.26 1.826z"/>
  <path class="st5" fill="#a58a63" d="M19.435 3.391l-1.826-.782 1.826-.783L20.348 0l.782 1.826 1.696.913-1.956.652-.783 1.957z"/>
  <path d="M22.043 28.696h15.653l-2.74-9.522H24.523l-2.479 9.522z" fill="#d6cdc1"/>
  <path class="st5" d="M1.435 28.696h15.652l-2.74-9.392H3.914l-2.478 9.392z" fill="#f4ece4"/>
</svg>