<svg xmlns="http://www.w3.org/2000/svg" viewBox="0 0 39 30">
  <path d="M20.394 28.47a1.07 1.07 0 0 1-.541.327L25.57 9.744h11.005a1.063 1.063 0 0 1-.26.602L20.394 28.47zM2.695 10.312a1.061 1.061 0 0 1-.254-.569h10.713l5.997 18.995a1.064 1.064 0 0 1-.362-.266L2.695 10.313zM7.54 2.23L12.35 8.45H3.012L7.539 2.23zm10.455-1.062l-4.618 6.495-4.948-6.4c.134-.058.279-.095.429-.095h9.137zm12.3.013l-5.012 6.482-4.618-6.495h9.525c.036 0 .07.009.106.013M14.403 8.45l4.926-6.928 4.926 6.928h-9.852zm5.085 17.06L14.511 9.745h9.71l-4.733 15.767zM35.975 8.45h-9.667l5.009-6.477 4.658 6.477zm1.354-.117L32.005.931A2.244 2.244 0 0 0 30.19 0H8.857c-.714 0-1.39.344-1.81.921l-5.36 7.366a2.251 2.251 0 0 0 .135 2.8l16.094 18.16A2.239 2.239 0 0 0 19.59 30h.005a2.24 2.24 0 0 0 1.676-.76l15.922-18.124a2.227 2.227 0 0 0 .136-2.783" fill="#a58a63"/>
  <path d="M17.994 1.167l-4.618 6.495-4.949-6.4c.135-.059.28-.095.43-.095h9.137z" fill="#d6cdc1"/>
  <path d="M30.294 1.177l-5.013 6.482-4.618-6.495h9.525c.036 0 .07.009.106.013" fill="#f4ece4"/>
  <path d="M19.488 25.511L14.51 9.745h9.71L19.487 25.51z" fill="#d6cdc1"/>
  <path d="M7.539 2.23l4.81 6.22H3.012L7.54 2.23zm-4.844 8.084a1.06 1.06 0 0 1-.255-.57h10.714L19.15 28.74a1.061 1.061 0 0 1-.362-.266L2.695 10.313z" fill="#f4ece4"/>
  <path fill="#fff" d="M14.52 8.36c.142-.246 4.782-6.738 4.815-6.737.022 0 1.02 1.382 2.218 3.07l2.42 3.407.241.34h-4.87c-3.878 0-4.86-.016-4.824-.08zm12.796-1.167l2.467-3.189c.826-1.068 1.527-1.927 1.557-1.909.063.04 4.544 6.262 4.544 6.311 0 .019-2.145.034-4.766.034h-4.766l.964-1.247zM19.911 28.74c0-.032 5.058-16.92 5.499-18.359l.189-.615h5.458c5.157 0 5.458.006 5.456.11a.644.644 0 0 1-.079.246c-.152.271-16.16 18.44-16.34 18.546-.1.06-.183.092-.183.072z" opacity=".004"/>
</svg>