<svg xmlns="http://www.w3.org/2000/svg" viewBox="0 0 39 30">
  <path d="M33.39 15a2.658 2.658 0 0 1-2.658 2.657c-.1 0-.19-.021-.292-.032a2.34 2.34 0 0 1-.335-.053c-.058-.016-.116-.038-.175-.053-.101-.032-.207-.064-.303-.112-.058-.026-.112-.064-.17-.09a2.121 2.121 0 0 1-.26-.154c-.059-.043-.106-.09-.165-.133a2.452 2.452 0 0 1-.212-.186c-.054-.053-.096-.117-.144-.176-.058-.068-.117-.138-.165-.212-.047-.07-.08-.149-.122-.223-.037-.075-.08-.144-.111-.218a2.605 2.605 0 0 1-.09-.293 2.108 2.108 0 0 1-.06-.196 2.826 2.826 0 0 1-.052-.52c0-.181.02-.357.053-.521.016-.07.042-.133.058-.202.027-.096.053-.197.09-.287.032-.08.075-.149.117-.223.038-.075.075-.15.117-.218.048-.075.112-.144.17-.218.048-.059.09-.117.144-.17.069-.07.143-.128.217-.191.054-.043.102-.09.16-.133.085-.059.175-.107.266-.16a2.46 2.46 0 0 1 .164-.09c.096-.042.203-.08.309-.112.058-.015.111-.037.17-.053.106-.026.223-.042.334-.053.096-.01.192-.032.293-.032A2.657 2.657 0 0 1 33.389 15M30.273 22.813a2.664 2.664 0 0 1-2.663 2.663c-.102 0-.192-.02-.293-.032a2.287 2.287 0 0 1-.336-.053c-.059-.016-.117-.037-.176-.053-.101-.032-.208-.064-.303-.112-.059-.027-.112-.064-.17-.09-.091-.049-.182-.096-.262-.155-.058-.042-.106-.09-.165-.133a2.454 2.454 0 0 1-.213-.187c-.053-.053-.096-.117-.144-.176-.059-.069-.117-.138-.165-.212-.048-.07-.08-.15-.122-.224-.038-.075-.08-.144-.112-.218a2.7 2.7 0 0 1-.09-.293 2.154 2.154 0 0 1-.06-.197 2.848 2.848 0 0 1-.053-.523c0-.18.022-.356.054-.521.016-.07.042-.134.058-.203.027-.096.054-.197.09-.287.033-.08.075-.15.118-.224.037-.075.075-.15.117-.218.048-.075.112-.145.17-.219.049-.059.091-.117.144-.17.07-.07.144-.128.219-.192.053-.043.101-.09.16-.133.085-.059.175-.107.266-.16.053-.032.111-.064.165-.09.096-.043.202-.08.309-.113.059-.015.112-.037.17-.053.107-.026.224-.042.336-.053.096-.01.192-.032.293-.032a2.663 2.663 0 0 1 2.658 2.663M14.266 6.811a2.664 2.664 0 0 1-2.663 2.663c-.1 0-.191-.021-.293-.032a2.287 2.287 0 0 1-.335-.053c-.059-.017-.118-.038-.176-.054-.101-.032-.208-.064-.304-.111-.058-.027-.111-.064-.17-.091-.09-.048-.181-.096-.261-.155-.059-.042-.107-.09-.165-.133a2.453 2.453 0 0 1-.213-.186c-.054-.054-.096-.117-.144-.176a2.041 2.041 0 0 1-.165-.213c-.048-.07-.08-.15-.123-.224-.037-.074-.08-.144-.112-.218a2.702 2.702 0 0 1-.09-.293 2.154 2.154 0 0 1-.059-.197 2.848 2.848 0 0 1-.053-.522c0-.181.021-.357.053-.522.016-.07.043-.133.059-.202.027-.096.053-.198.09-.288.032-.08.075-.15.117-.224.038-.075.075-.149.118-.218.047-.075.111-.144.17-.219.048-.058.09-.117.144-.17.07-.07.144-.128.218-.192.053-.043.102-.09.16-.133.085-.058.176-.107.266-.16.054-.032.112-.064.166-.09.095-.043.202-.08.309-.112.058-.016.111-.037.17-.054.106-.026.224-.042.336-.053.096-.01.191-.032.293-.032a2.663 2.663 0 0 1 2.657 2.664M14.15 23.007a2.766 2.766 0 0 1-2.766 2.765c-.105 0-.199-.022-.304-.033a2.467 2.467 0 0 1-.348-.055c-.061-.017-.122-.04-.183-.056-.105-.033-.216-.066-.315-.116-.061-.027-.116-.066-.177-.094-.094-.05-.188-.1-.271-.16-.061-.044-.11-.094-.171-.139a2.458 2.458 0 0 1-.222-.193c-.055-.056-.1-.122-.149-.183a2.149 2.149 0 0 1-.171-.22c-.05-.073-.083-.156-.128-.233-.038-.078-.083-.15-.116-.227a2.792 2.792 0 0 1-.094-.304 2.16 2.16 0 0 1-.06-.205 2.95 2.95 0 0 1-.056-.542c0-.188.022-.37.055-.542.017-.072.045-.138.061-.21.028-.1.056-.204.094-.299.033-.082.078-.154.122-.232.039-.077.077-.155.122-.227.05-.077.116-.149.176-.226.05-.06.095-.122.15-.177.072-.072.15-.133.227-.2.055-.043.105-.093.165-.137.089-.061.183-.111.277-.167.055-.033.116-.066.172-.093.1-.045.21-.083.32-.117.061-.016.116-.038.177-.055.11-.027.232-.044.348-.055.1-.011.2-.034.305-.034 1.52 0 2.76 1.24 2.76 2.766" fill="#f4ece4"/>
  <path d="M29.464 24.674a2.62 2.62 0 0 1-1.863.768c-.69 0-1.337-.263-1.826-.742l-.159-.184a2.658 2.658 0 0 1-.425-2.742l.047-.095c.052-.116.11-.226.179-.337.094-.137.2-.274.32-.394a2.605 2.605 0 0 1 1.843-.764c.615 0 1.216.216 1.69.61l.205.17a2.635 2.635 0 0 1-.011 3.71m-8.616-1.848s-.005 0-.005-.005a3.5 3.5 0 0 0-.526-.132l-.09-.015a3.84 3.84 0 0 0-.547-.042c-.185 0-.363.015-.543.042l-.089.015a3.512 3.512 0 0 0-.526.132h-.006a3.705 3.705 0 0 0-2.341 2.374 10.39 10.39 0 0 1-1.432-.616c.158-.332.263-.684.316-1.047.005-.021.005-.048.01-.069.021-.168.032-.337.032-.51V22.9a4.598 4.598 0 0 0-.042-.463c-.006-.026-.006-.053-.011-.085a3.753 3.753 0 0 0-.116-.479l-.031-.089a4.43 4.43 0 0 0-.18-.432c-.004-.015-.015-.031-.02-.047a4.163 4.163 0 0 0-.263-.432c-.021-.031-.043-.063-.069-.089a4.034 4.034 0 0 0-.337-.395 5.969 5.969 0 0 0-.268-.247 3.647 3.647 0 0 0-2.337-.832 3.69 3.69 0 0 0-1.479.311c-.184-.384-.342-.79-.484-1.205.005 0 .005-.005.01-.005.169-.07.327-.143.48-.232.005-.005.01-.005.015-.01a3.685 3.685 0 0 0 1.774-2.574l.016-.09c.01-.163.026-.331.026-.505 0-.169-.016-.332-.037-.495-.005-.047-.016-.094-.02-.142a4.872 4.872 0 0 0-.09-.4c-.021-.063-.043-.126-.064-.195-.031-.094-.068-.184-.105-.273a2.74 2.74 0 0 0-.105-.216c-.032-.058-.063-.11-.095-.163a3.194 3.194 0 0 0-.268-.39c-.027-.037-.058-.074-.085-.105-.063-.074-.126-.147-.2-.216a1.541 1.541 0 0 0-.1-.09c-.11-.1-.226-.2-.347-.289l-.205-.142c-.053-.037-.11-.068-.163-.1a3.67 3.67 0 0 0-.41-.2c-.017 0-.027-.005-.038-.01.164-.485.364-.958.595-1.422.005 0 .01.006.016.006.11.052.221.094.337.137.01.005.02.005.031.01.121.043.243.074.364.1.005 0 .01.006.015.006a3.664 3.664 0 0 0 3.395-.99 3.98 3.98 0 0 0 .337-.395c.02-.026.042-.052.058-.079.205-.29.363-.6.473-.926.006-.01.006-.021.01-.031.117-.337.18-.69.19-1.048v-.026c.006-.174 0-.353-.02-.526 0-.01-.006-.021-.006-.032a4.002 4.002 0 0 0-.094-.49c-.006-.015-.006-.031-.011-.042a4.14 4.14 0 0 0-.174-.484c-.005-.01-.005-.02-.01-.031.394-.195.8-.364 1.205-.506a3.704 3.704 0 0 0 2.342 2.374h.005c.169.058.348.1.526.131l.09.016c.19.027.368.043.553.043.184 0 .363-.016.542-.043l.09-.016c.178-.031.357-.073.526-.131h.005a3.694 3.694 0 0 0 2.342-2.374c.337.116.674.253 1.01.41a3.685 3.685 0 0 0-.426 2.259c0 .02.006.042.01.063.027.179.064.358.117.531 0 .01.005.016.01.027.047.163.11.316.184.473l.042.09c.08.152.164.3.264.442.02.032.042.058.063.09a3.663 3.663 0 0 0 2.963 1.5c.679 0 1.326-.185 1.895-.527.205.41.389.832.542 1.269-.006 0-.006.005-.01.005-.396.1-.77.263-1.1.479-.006 0-.006.005-.011.005-.158.105-.31.221-.448.347-.015.016-.031.027-.047.042a3.93 3.93 0 0 0-.379.406c-.01.01-.016.02-.026.037a3.47 3.47 0 0 0-.31.468c0 .005-.006.005-.006.01-.09.164-.163.332-.226.506-.01.026-.021.058-.032.084a3.368 3.368 0 0 0-.137.526c-.005.032-.01.064-.016.09a2.462 2.462 0 0 0-.063.563c0 .195.021.384.047.574.006.031.01.063.016.09a3.634 3.634 0 0 0 .169.61c.063.174.137.342.226.505 0 .005.005.005.005.01.09.164.2.322.316.469.01.01.016.02.027.037.115.147.241.279.379.405.015.016.031.026.047.042.142.126.29.242.447.348.006 0 .006.005.01.005.337.215.706.379 1.1.479.006 0 .006 0 .011.005-.12.348-.268.695-.431 1.037a3.667 3.667 0 0 0-1.816-.479c-.985 0-1.91.384-2.606 1.079-.136.137-.257.29-.373.442-.016.021-.032.037-.042.058a3.688 3.688 0 0 0-.153 3.968c-.4.195-.816.369-1.242.516a3.676 3.676 0 0 0-2.337-2.374m-1.168 6.121a2.633 2.633 0 0 1-2.632-2.631 2.795 2.795 0 0 1 .11-.716c.017-.063.038-.126.059-.19a2.944 2.944 0 0 1 .205-.436 3.78 3.78 0 0 1 .163-.242c.037-.048.08-.095.116-.142a1.98 1.98 0 0 1 .205-.211c.047-.042.095-.079.142-.116.079-.063.153-.12.237-.173.058-.037.116-.063.174-.095.084-.042.163-.09.247-.121.08-.032.163-.053.242-.074.074-.021.142-.047.221-.063a2.8 2.8 0 0 1 .51-.053c.174 0 .337.021.5.053.075.016.148.042.217.063.084.026.168.047.247.079.084.037.168.08.247.121.058.032.121.058.174.095.084.053.158.11.237.173.047.037.095.074.142.116.074.064.137.137.205.21.042.048.085.096.121.148.058.08.11.158.163.237l.095.174c.042.084.084.173.116.263.02.063.042.126.058.195.026.094.053.19.068.284.021.132.042.274.042.42a2.633 2.633 0 0 1-2.631 2.632M9.553 24.863a2.633 2.633 0 0 1 0-3.72c.116-.117.248-.222.38-.312l.057-.036c.116-.074.237-.137.358-.195.063-.026.126-.047.19-.068a2.02 2.02 0 0 1 .252-.074c.063-.016.127-.032.184-.042a2.76 2.76 0 0 1 .369-.037c.026 0 .047-.006.074-.006.7 0 1.363.274 1.858.77.12.12.226.251.315.389.032.047.058.1.085.147.052.09.105.184.147.279.026.063.047.126.068.19.032.089.058.178.08.268.015.068.025.137.036.205.01.09.021.174.026.263.006.074.006.148 0 .221-.005.08-.01.163-.02.242-.011.08-.022.164-.043.242a2.215 2.215 0 0 1-.058.2c-.026.09-.052.18-.094.264-.021.047-.048.09-.069.131-.052.1-.105.205-.168.3l-.006.006a2.48 2.48 0 0 1-.3.368 2.62 2.62 0 0 1-1.863.768 2.612 2.612 0 0 1-1.858-.763M5.47 15a2.633 2.633 0 0 1 3.153-2.579l.026.005c.163.037.321.085.474.148.016.005.026.016.042.02.137.064.268.132.395.216.02.01.037.032.058.043.116.079.226.168.326.268.02.021.037.037.052.058.096.1.18.2.259.316a2.578 2.578 0 0 1 .237.416c.015.037.03.068.047.105.047.116.084.237.11.358.01.042.021.079.032.12.031.164.053.332.053.5 0 .17-.022.327-.048.485-.016.068-.037.137-.052.205a1.96 1.96 0 0 1-.08.248 3.094 3.094 0 0 1-.205.41 2.093 2.093 0 0 1-.279.379c-.058.068-.12.131-.184.195-.053.047-.11.09-.163.137a2.775 2.775 0 0 1-.2.152c-.08.053-.163.09-.242.132-.063.037-.126.074-.195.1a2.49 2.49 0 0 1-.437.137l-.026.005A2.633 2.633 0 0 1 5.47 15M9.743 4.953a2.62 2.62 0 0 1 1.863-.769 2.628 2.628 0 0 1 2.19 1.169l.015.02c.09.138.163.274.221.422.027.058.037.116.058.173.032.095.064.19.085.284.015.07.02.143.031.211.01.084.021.174.027.258 0 .074 0 .153-.006.226-.005.08-.01.163-.02.242-.011.08-.027.153-.043.232-.02.079-.042.158-.069.237-.026.073-.047.142-.079.21-.036.09-.084.169-.131.253-.032.053-.058.11-.095.163-.09.137-.195.263-.31.384a2.616 2.616 0 0 1-1.858.769c-.027 0-.053-.005-.08-.005a2.897 2.897 0 0 1-.373-.037c-.063-.01-.121-.026-.184-.042a2.091 2.091 0 0 1-.258-.08c-.063-.02-.126-.047-.19-.073a2.535 2.535 0 0 1-.262-.142c-.043-.026-.085-.047-.127-.074l-.02-.01a2.616 2.616 0 0 1-.384-4.021m9.936-3.9a2.633 2.633 0 0 1 2.631 2.631c0 .148-.02.29-.042.426-.015.1-.042.195-.068.295-.016.063-.037.127-.058.19-.032.09-.074.178-.116.268-.026.058-.058.11-.09.169a3.887 3.887 0 0 1-.162.241c-.037.048-.08.096-.116.143a1.938 1.938 0 0 1-.348.326 2.42 2.42 0 0 1-.237.174c-.057.037-.115.063-.173.095-.084.042-.163.089-.248.12-.079.032-.163.053-.242.074-.073.021-.142.047-.22.063a3.357 3.357 0 0 1-.511.048c-.174 0-.337-.021-.5-.053-.074-.016-.148-.042-.221-.063a3.25 3.25 0 0 1-.242-.074 3.51 3.51 0 0 1-.248-.12c-.058-.032-.115-.059-.173-.095a1.963 1.963 0 0 1-.237-.174 2.743 2.743 0 0 1-.142-.116 2.57 2.57 0 0 1-.322-.353 2.435 2.435 0 0 1-.252-.41 2.09 2.09 0 0 1-.116-.269c-.02-.063-.042-.126-.058-.189-.026-.095-.053-.19-.068-.29a1.89 1.89 0 0 1-.053-.426 2.633 2.633 0 0 1 2.632-2.631m9.6 4.084a2.632 2.632 0 0 1 .031 3.684l-.173.153c-.485.42-1.1.652-1.737.652a2.597 2.597 0 0 1-2.168-1.163c-.032-.052-.059-.105-.09-.158a2.82 2.82 0 0 1-.147-.279c-.032-.073-.053-.152-.074-.226-.026-.08-.053-.153-.068-.232a2.64 2.64 0 0 1-.043-.294c-.005-.058-.015-.11-.015-.169-.006-.12 0-.242.015-.363.006-.032.006-.063.011-.09a2.95 2.95 0 0 1 .095-.426c0-.005.005-.01.005-.016.1-.3.252-.589.463-.852l.179-.221a2.6 2.6 0 0 1 1.853-.763 2.602 2.602 0 0 1 1.863.763M33.364 15a2.633 2.633 0 0 1-2.631 2.632c-.1 0-.19-.021-.29-.032a2.296 2.296 0 0 1-.332-.053c-.058-.015-.115-.036-.173-.052-.1-.032-.205-.063-.3-.11-.058-.027-.11-.064-.169-.09-.09-.048-.179-.095-.258-.153-.058-.042-.105-.09-.163-.131a2.334 2.334 0 0 1-.21-.185c-.053-.052-.095-.116-.143-.173-.057-.069-.115-.137-.163-.21-.047-.07-.078-.148-.12-.222-.037-.074-.08-.142-.111-.216a2.642 2.642 0 0 1-.09-.29 1.983 1.983 0 0 1-.058-.194 2.816 2.816 0 0 1-.052-.516c0-.179.02-.352.052-.515.016-.069.042-.132.059-.2.026-.095.052-.195.089-.285.032-.079.074-.147.116-.22.037-.075.073-.148.115-.217.048-.073.11-.142.169-.215.047-.058.09-.116.142-.169.068-.068.142-.126.216-.19.052-.041.1-.089.158-.13.084-.059.173-.106.263-.159a2.5 2.5 0 0 1 .163-.09c.095-.041.2-.078.305-.11.058-.015.11-.036.169-.052.105-.027.22-.042.331-.053.095-.01.19-.031.29-.031A2.631 2.631 0 0 1 33.364 15m1.053 0a3.686 3.686 0 0 0-3.495-3.674 11.954 11.954 0 0 0-.784-1.847 3.688 3.688 0 0 0-.116-5.084 3.661 3.661 0 0 0-2.605-1.079c-.969 0-1.88.373-2.574 1.053-.49-.243-.99-.443-1.484-.611 0-.027.005-.048.005-.074A3.688 3.688 0 0 0 19.68 0a3.688 3.688 0 0 0-3.684 3.684c0 .026.005.047.005.074-.542.179-1.08.4-1.6.663-.063-.073-.121-.142-.19-.21a3.664 3.664 0 0 0-2.605-1.08c-.984 0-1.915.38-2.61 1.074a3.688 3.688 0 0 0 0 5.21c.057.059.116.106.173.159a12.217 12.217 0 0 0-.742 1.757A3.689 3.689 0 0 0 4.417 15a3.688 3.688 0 0 0 4.01 3.668c.169.527.374 1.037.61 1.521-.078.069-.157.132-.226.206a3.688 3.688 0 0 0 0 5.21 3.663 3.663 0 0 0 2.606 1.08c.984 0 1.91-.385 2.605-1.08.047-.047.09-.1.132-.147.594.316 1.21.574 1.847.784 0 .026-.005.047-.005.074A3.689 3.689 0 0 0 19.68 30a3.688 3.688 0 0 0 3.684-3.684c0-.027-.005-.048-.005-.074a12.4 12.4 0 0 0 1.742-.726 3.666 3.666 0 0 0 2.5.984c.984 0 1.91-.384 2.605-1.08a3.69 3.69 0 0 0 .058-5.146c.263-.527.484-1.064.663-1.595A3.689 3.689 0 0 0 34.417 15" fill="#a58a63"/>
  <path d="M22.311 3.684a2.632 2.632 0 0 1-2.631 2.632c-.1 0-.19-.021-.29-.032a2.29 2.29 0 0 1-.331-.052c-.058-.016-.116-.037-.174-.053-.1-.032-.205-.063-.3-.11-.058-.027-.11-.064-.169-.09-.089-.048-.178-.095-.257-.153-.058-.042-.105-.09-.164-.131a2.395 2.395 0 0 1-.21-.184c-.053-.053-.095-.116-.142-.174-.058-.069-.116-.137-.163-.21-.048-.069-.08-.148-.121-.222-.037-.074-.08-.142-.11-.216a2.615 2.615 0 0 1-.09-.29 2.101 2.101 0 0 1-.058-.194 2.813 2.813 0 0 1-.053-.516c0-.178.021-.352.053-.515.016-.069.042-.132.058-.2.026-.095.052-.195.09-.285.03-.078.073-.147.115-.22.037-.074.074-.148.116-.216.047-.074.11-.142.168-.216.048-.058.09-.116.142-.169.069-.068.142-.126.216-.19.053-.041.1-.088.158-.13.084-.058.174-.106.263-.159.053-.031.11-.063.163-.09.095-.041.2-.078.305-.11.058-.015.11-.036.17-.052a2.29 2.29 0 0 1 .33-.053c.095-.01.19-.031.29-.031a2.631 2.631 0 0 1 2.626 2.631" fill="#f4ece4"/>
</svg>