<?xml version="1.0" ?>
<!DOCTYPE svg  PUBLIC '-//W3C//DTD SVG 1.1//EN'  'http://www.w3.org/Graphics/SVG/1.1/DTD/svg11.dtd'>
<svg viewBox="0 0 96 96" fill="none" xmlns="http://www.w3.org/2000/svg">
  <path d="M48 4c24.4 0 44 19.6 44 44S72.4 92 48 92 4 72.4 4 48 23.6 4 48 4zm0-4C21.6 0 0 21.6 0 48s21.6 48 48 48 48-21.6 48-48S74.4 0 48 0z" fill="#A58A63"/>
  <path d="M83.998 76.4c-.8-.4-1.2-.8-2-.8-2-.4-14-4.4-14.4-4.8-.4 0-7.6-7.6-8-8-1.6-1.6-.4-2.8 1.2-4 1.6-1.2 2-5.2 2.8-7.6 0-.4.4-1.2 1.2-1.2.4 0 .8-.4 1.2-.8.4-1.6 2.4-9.6 2.4-10 0-.8-.4-1.2-.8-1.2s-.8-.4-.8-1.2c0-2 0-10.4-.8-12.8-1.2-2.8-3.6-4.4-6.4-6-2.4-1.2-4.8-1.6-7.2-2.4-5.2-1.2-9.6 0-13.6 3.6-.8 0-.8.4-1.2.8-.4 1.2-1.2 2-2 2.4-3.2 2-1.6 12-1.6 13.2 0 .8 0 1.2-.8 1.6-.8 0-1.2.8-1.2 1.6s2.8 10.8 3.6 11.2c.4 0 .8.4.8 1.2 0 .8 1.6 6.4 2.8 7.6 1.2 1.2 2.8 2.8 0 5.2-.4.4-7.6 7.2-9.2 7.6-.8.4-15.2 4.4-17.6 6.4" stroke="#A58A63" stroke-width="3" stroke-miterlimit="10"/>
</svg>
