<svg xmlns="http://www.w3.org/2000/svg" viewBox="0 0 39.000001 30">
  <path d="M14.6 15.896l3.397 3.218-1.784 3.09H11.87v-3.155l.864-2.151 1.866-1.002z" fill="#d6cdc1"/>
  <path d="M17.997 25.293l-1.784-3.09H11.87l4.083 4.614 2.045-1.524z" fill="#f4ece4"/>
  <path d="M24.963 15.896l-3.398 3.218 1.784 3.09h4.344v-3.155l-.864-2.151-1.866-1.002z" fill="#d6cdc1"/>
  <path d="M21.565 25.293l1.784-3.09h4.344l-4.083 4.614-2.045-1.524z" fill="#f4ece4"/>
  <path d="M21.565 19.113h-3.568l-3.23-3.058 2.25-.16 2.555.577.21.614s3.71-1.416 3.71-1.453c0-.038 1.44.388 1.44.388l-3.367 3.092z" fill="#fff"/>
  <path d="M17.997 25.293L16.243 26.6l2.014 1.519s1.52.714 1.524.727c.003.012 1.832-.573 1.832-.573l1.127-1.018.87-.438-2.045-1.524h-3.568z" fill="#d6cdc1"/>
  <path d="M20.703 27.933c-.885.706-1.592.092-1.592.092s-8.709-5.198-5.773-9.717c2.07-3.185 6.459-.94 6.459-.94s3.886-1.67 5.79.183c4.341 4.224-4.033 9.704-4.884 10.382m6.203-11.643c-2.337-2.37-7.106-.232-7.106-.232s-5.383-2.873-7.924 1.2c-3.602 5.779 7.082 12.426 7.082 12.426s.869.784 1.954-.117c1.044-.868 11.319-7.875 5.994-13.277" fill="#a58a63"/>
  <path d="M19.781 16.204a.455.455 0 0 1-.453-.453v-1.973c0-.25.204-.454.453-.454.25 0 .453.204.453.454v1.973c0 .25-.204.453-.453.453" fill="#a58a63"/>
  <path d="M17.997 25.293l-1.784-3.09 1.784-3.09h3.568l1.784 3.09-1.784 3.09h-3.568z" fill="#fff"/>
  <path stroke-miterlimit="10" d="M15.284 16.6l2.646 2.45-1.717 3.153h-3.292" fill="none" stroke="#a58a63" stroke-width=".802" stroke-linecap="round" stroke-linejoin="round"/>
  <path stroke-miterlimit="10" d="M16.44 26.453l1.557-1.16-1.784-3.09m1.567-3.154l3.785.064 3.064-3.217 1.492.587 1.29 3.308s.238 1.352.013 1.866c-.226.513-1.09.546-1.09.546h-2.985l-1.688-2.968m1.592 3.086l-1.688 2.972 1.726 1.286m-5.222-1.286h3.243" fill="none" stroke="#a58a63" stroke-width=".802" stroke-linecap="round" stroke-linejoin="round"/>
  <path d="M32.388 0c-.095 6.883-5.701 12.434-12.607 12.434C12.876 12.434 7.27 6.883 7.174 0H5.207c.096 7.97 6.582 14.4 14.574 14.4S34.26 7.97 34.355 0h-1.967z" fill="#a58a63"/>
</svg>