<svg xmlns="http://www.w3.org/2000/svg" viewBox="0 0 39 30">
  <path d="M9.038.675C7.6.675 5.22 3.055 5.22 4.492v10.5h2.6v-8.38a3.335 3.335 0 0 1 3.336-3.336h8.382v-2.6H9.038z" fill="#d6cdc1"/>
  <path d="M29.893 29.337c1.436 0 3.817-2.38 3.817-3.816V15.02h-2.601V23.4a3.335 3.335 0 0 1-3.335 3.336h-8.382v2.6h10.501z" fill="#f4ece4"/>
  <path stroke-miterlimit="10" d="M29.101 29.514H9.683a4.819 4.819 0 0 1-4.805-4.805V5.291A4.819 4.819 0 0 1 9.683.486h19.418a4.819 4.819 0 0 1 4.805 4.805v19.418a4.818 4.818 0 0 1-4.805 4.805z" fill="none" stroke="#a58a63" stroke-width=".973" stroke-linecap="round" stroke-linejoin="round"/>
  <path stroke-miterlimit="10" d="M27.204 26.72H11.58a3.877 3.877 0 0 1-3.866-3.866V7.229a3.877 3.877 0 0 1 3.866-3.865h15.624a3.877 3.877 0 0 1 3.866 3.865v15.625a3.877 3.877 0 0 1-3.866 3.866z" fill="none" stroke="#a58a63" stroke-width=".973" stroke-linecap="round" stroke-linejoin="round"/>
  <path d="M19.015 15.325l-.094-.027a.31.31 0 0 1-.215-.38l1.703-6.124a.31.31 0 0 1 .38-.214l.094.026a.31.31 0 0 1 .215.38l-1.703 6.124a.31.31 0 0 1-.38.215m.323.209l.055-.195a.257.257 0 0 1 .315-.179l3.309.92c.136.038.216.18.178.316l-.054.195a.257.257 0 0 1-.316.179l-3.308-.92a.257.257 0 0 1-.179-.316" fill="#a58a63"/>
  <path d="M19.602 15.502a.7.7 0 1 1-1.349-.375.7.7 0 0 1 1.35.375m.152-12.007h-.726a.209.209 0 0 1-.209-.208V2.071a.21.21 0 0 1 .209-.209h.726c.115 0 .208.094.208.209v1.216a.209.209 0 0 1-.208.208m0 24.767h-.726a.209.209 0 0 1-.209-.208v-1.216a.21.21 0 0 1 .209-.209h.726c.115 0 .208.094.208.209v1.216a.209.209 0 0 1-.208.208M30.96 15.405v-.727c0-.114.094-.208.208-.208h1.217a.21.21 0 0 1 .208.208v.727a.209.209 0 0 1-.208.208h-1.217a.209.209 0 0 1-.208-.208m-24.767 0v-.727c0-.114.094-.208.208-.208h1.217a.21.21 0 0 1 .208.208v.727a.209.209 0 0 1-.208.208H6.4a.209.209 0 0 1-.208-.208" fill="#a58a63"/>
</svg>