<svg xmlns="http://www.w3.org/2000/svg" viewBox="0 0 39 30" fill="none">
  <path d="M12.157 17.2202c3.2898 0 5.9566-2.6668 5.9566-5.9567 0-3.2897-2.6668-5.9567-5.9566-5.9567s-5.9567 2.667-5.9567 5.9567c0 3.2899 2.6669 5.9567 5.9567 5.9567z" fill="#d6cdc1"/>
  <path d="M29.7017 25.7762c2.1532 0 3.8989-1.7457 3.8989-3.899 0-2.1532-1.7457-3.8989-3.899-3.8989-2.1532 0-3.8989 1.7457-3.8989 3.899 0 2.1532 1.7457 3.8989 3.899 3.8989z" fill="#ede1d3"/>
  <path d="M13.781 1.1913c.325 0 .6499.1083.9748.2166v1.9495l.6498.2166c.325.1083.6499.325.9748.4332l.5415.325.5415-.4333 1.083-.7581c.2166.2166.5415.4332.7581.6498l-.5415 1.083-.3249.6499.4332.5415c.2166.4332.4332.7581.5416 1.083l.3249.6498h.6498l1.2996-.2166.325.9748-1.0831.6498-.5415.4332.1083.6498V12.0217l.6498.3249 1.1913.5415c0 .3249-.1083.6498-.2166.9747H20.171l-.325.6498c-.1082.325-.3248.6499-.5415.9748l-.3249.5415.4333.5415.758 1.083c-.2165.2166-.4331.5415-.6497.7582l-1.083-.5416-.6499-.3249-.6498.4332c-.325.2166-.5415.4333-.8664.5416l-.5416.3249v.6498l.1083 1.2996-.9747.325-.6498-1.0831-.325-.5415-.6497.1083H11.5067l-.3249.6498-.5415 1.1913c-.325 0-.6498-.1083-.9747-.2166V19.278l-.6499-.2166c-.3249-.1083-.6498-.325-.9747-.4332l-.6498-.5416-.5415.4333-1.083.758c-.2167-.2165-.5416-.4331-.7582-.6497l.5415-1.083.325-.6499-.4333-.6498c-.2166-.325-.4332-.5415-.5415-.8664l-.3249-.6499h-.6498l-1.2997.1083-.3249-.9747 1.083-.6498.5416-.2166-.1083-.6498V12.13v-1.408l-.6498-.5415-1.083-.5415c0-.325.1082-.6498.2165-.9747h1.9495l.2166-.6499c.1083-.3249.325-.6498.4332-.9747l.4332-.5415-.4332-.6498-.7581-1.083c.3249-.2167.5415-.4333.7581-.6499l1.083.5415.6499.325.5415-.4333c.2166-.2166.5415-.3249.8664-.5415l.6498-.3249v-.6498l-.2166-1.2996.9748-.325.6498 1.083.4332.5416.6498-.1083H12.9147l.3249-.6498.5415-1.083zM13.1314 0l-.8665 1.8412H10.9652L9.8822.1083c-.8665.2166-1.7329.5415-2.491.8664l.1083 2.0578-.9747.6498-1.8412-.8664c-.6498.5415-1.2996 1.1913-1.8411 1.9494l1.1913 1.7329c-.2166.3249-.4332.6498-.5415 1.083l-2.0578.1083c-.3249.7582-.4332 1.7329-.5415 2.5993l1.8412.8664v1.1914l-1.7329 1.083c.2166.8664.4332 1.7329.8664 2.5993l2.0578-.1083.6498.9747-.9747 1.8412c.6498.6498 1.2996 1.2996 2.0577 1.8411l1.7329-1.1913c.3249.2166.7581.4332 1.083.5415l.1083 2.0578c.8665.3249 1.7329.4332 2.7076.5415l.8664-1.8412h1.2997l1.083 1.7329c.8664-.2166 1.7329-.4332 2.5993-.8665l-.325-2.0577.9748-.6498 1.8412.9747c.6498-.6498 1.2996-1.2996 1.8411-2.0578l-1.1913-1.7328c.2166-.325.4332-.7581.5415-1.083l2.0578-.1084c.3249-.8664.4332-1.7328.5415-2.7075l-1.8412-.8665v-.8664-.3249l1.7329-1.083c-.2166-.8665-.4332-1.7329-.8665-2.5993l-2.0577.2166-.6498-.9747.9747-1.8412c-.6498-.6498-1.2996-1.2996-2.0578-1.8411L16.922 3.1408c-.325-.2166-.7581-.4332-1.083-.5415L15.7304.5415C14.9725.2166 14.106.1083 13.1313 0z" fill="#a58a63"/>
  <path d="M12.1574 5.74c3.0325 0 5.5235 2.491 5.5235 5.5235s-2.491 5.5235-5.5235 5.5235-5.5235-2.491-5.5235-5.5235 2.491-5.5234 5.5235-5.5234zm0-1.083c-3.6823 0-6.6065 2.9242-6.6065 6.6065 0 3.6823 3.0325 6.6065 6.6065 6.6065 3.6823 0 6.6065-3.0325 6.6065-6.6065.1083-3.6823-2.9242-6.6065-6.6065-6.6065z" fill="#a58a63"/>
  <path d="M12.3061 12.9908c.9534-.0832 1.6588-.9234 1.5756-1.8768-.0832-.9535-.9235-1.659-1.8769-1.5757-.9533.0832-1.6588.9235-1.5756 1.8769.0832.9534.9235 1.6588 1.8769 1.5756zM31.0009 20.7942c.4332.7581.2166 1.7329-.5416 2.166-.758.4333-1.7328.2167-2.166-.5414-.4332-.7582-.2166-1.7329.5415-2.166.7581-.5416 1.7329-.2167 2.166.5414z" fill="#a58a63"/>
  <path stroke-miterlimit="10" d="M37.4998 22.4188c.1083-.5415 0-1.1914 0-1.7329l-1.2996-.3249c-.1083-.3249-.2166-.6498-.325-1.083l.9748-.9748c-.1083-.2166-.2166-.5415-.4332-.758-.1083-.2167-.325-.4333-.4332-.7582l-1.2997.5415c-.2166-.3249-.5415-.5415-.758-.7581l.3248-1.2996c-.4332-.325-.9747-.6499-1.5162-.8665l-.9748.9748c-.3249-.1083-.6498-.2166-1.083-.2166l-.3249-1.2997c-.5415-.1083-1.1913 0-1.7328 0l-.2167 1.2997c-.3249.1083-.6498.2166-1.083.3249l-.9747-.9748c-.2166.1083-.5415.2166-.7581.4332-.2166.1084-.4333.325-.7582.4333l.4333 1.2996c-.325.2166-.5416.5415-.7582.7581l-1.2996-.3249c-.325.4332-.6498.9747-.8664 1.5163l.9747.9747c-.1083.3249-.2166.6498-.2166 1.083l-1.2997.325c-.1083.5414 0 1.1913 0 1.7328l1.2997.3249c.1083.3249.2166.6498.3249 1.083l-.9747.7581c.1083.2167.2166.5416.4332.7582.1083.2166.3249.5415.4332.758l1.2996-.4331c.2166.3249.5415.5415.7582.7581l-.325 1.2996c.4333.325.9748.6499 1.5163.8665l.9747-.9748c.325.1083.6498.2166 1.083.2166l.325 1.2997h1.7328l.325-1.2997c.3248-.1083.6497-.2166 1.083-.3249l.9747.9748c.2166-.1083.5415-.2166.7581-.4332.2166-.1084.4332-.325.7581-.4333l-.4332-1.2996c.325-.2166.5415-.5415.7581-.7581l1.2997.3249c.3249-.4332.6498-.9747.8664-1.5163l-1.1913-.8664c.1083-.3249.2166-.6498.2166-1.083l1.408-.325z" stroke="#a58a63" stroke-width="1.08303"/>
  <path stroke-miterlimit="10" d="M33.4344 21.7705c.044-2.0931-1.6171-3.8255-3.7102-3.8694-2.0932-.044-3.8255 1.6172-3.8695 3.7103-.0438 2.0931 1.6173 3.8255 3.7104 3.8694 2.093.0439 3.8255-1.6173 3.8693-3.7103z" stroke="#a58a63" stroke-width="1.08303"/>
</svg>
