<svg xmlns="http://www.w3.org/2000/svg" viewBox="0 0 36 30" fill="none">
  <path d="M23.8578.0073L13.361-.0947l10.497.102z" fill="#6dc17d"/>
  <path d="M34.9542 6.2318l-2.5992-5.102-2.8992 1.4285 1.7995 5.5102 3.6989-1.8367z" fill="#d6cdc1"/>
  <path d="M16.8599 12.4562h3.6989l1.1997 1.9388-5.8983-.102.9997-1.8368z" fill="#efddc7"/>
  <path stroke-miterlimit="10" d="M14.6 22.6c3-1 1.8-2.7.4-2.7H8.4c-2.1 0-2.7.9-2.7 1.6L.5 24.1l2.6 5.3 5.2-2.7s8.9 1.3 9.9.6c1-.7 5.9-4.9 7.1-7.2.6-1.1-1-2.4-2.5-1.2s-4.3 3.3-5 3.5c-.7.2-5.5.5-5.5.5M6.4004 27.5l-2-5M20.8004 8.3c-3 1-1.8 2.7-.4 2.7h6.5c2.1 0 2.7-.9 2.7-1.6l5.2-2.6-2.6-5.3-5.2 2.7s-8.9-1.3-9.9-.6c-1 .7-5.9 4.9-7.1 7.2-.6 1.1 1 2.4 2.5 1.2s4.3-3.3 5-3.5c.7-.2 5.5-.4 5.5-.4" stroke="#a58a63" stroke-linecap="round" stroke-linejoin="round" transform="matrix(.9997 0 0 1.0204 .3647 -.605)"/>
  <path stroke-miterlimit="10" d="M28.8008 3.3l2.1 5.2-2-5M15.5 14.4l1-1.5h3.9l1.1 1.7-3 3.9-3-4.1zM21.2004 15h-5.3" stroke="#a58a63" stroke-linecap="round" stroke-linejoin="round" transform="matrix(.9997 0 0 1.0204 .3647 -.605)"/>
</svg>
