<svg xmlns="http://www.w3.org/2000/svg" viewBox="0 0 39 30" fill="none">
  <path d="M34.9709 29.4123s-.0943 0 0 0c-.0943.1022-.1888.1022-.1888 0-1.699-1.6355-3.587-2.9643-5.6635-3.9864-2.0766-1.0222-4.2476-1.8399-6.6075-2.2487-.2831 0-.4719-.1022-.7551-.1022h-.1888c-2.5485-.5111-4.9084-1.84-7.5513-4.1908-.8495-.7155-6.6075-5.8263-9.3449-8.1772-.9439-.8177-1.0383-.7155-1.0383-.8177-.0944-.1022-.0944-.2045 0-.2045.0944-.1022.1888-.1022.1888 0 0 0 .0944 0 1.0383.8178 2.7374 2.4531 8.4953 7.4616 9.3449 8.1771 2.643 2.351 5.0028 3.6798 7.5513 4.1908.2832 0 .5663.1022.7551.1022 2.3599.4089 4.6252 1.2266 6.7018 2.2488 1.1328.511 2.171 1.2265 3.115 1.942-.8495-.9199-1.699-1.942-2.3598-2.9642-1.4159-1.942-2.5486-4.1908-3.3981-6.644-.0944-.2044-.1888-.511-.2832-.8177-1.0383-2.6575-2.7374-4.9063-5.286-7.155-.6607-.6133-2.2654-2.0443-4.7195-4.1908-1.6047-1.5332-2.7375-2.4531-5.1916-4.5996-.0944-.1023-.0944-.2045 0-.2045.0944-.1022.1888-.1022.1888 0 2.4541 2.1465 3.5869 3.0665 5.2859 4.4975 2.4543 2.1465 4.059 3.5775 4.7196 4.1908 2.5487 2.2487 4.2477 4.5996 5.286 7.155l.0944.1022c.0944.2044.1888.511.2832.7155.8495 2.351 1.9822 4.5997 3.398 6.5418 1.3216 1.942 2.9263 3.6797 4.7196 5.1107.0945 0 .0945.1022 0 .2044l-.0943.3067c0-.1022 0 0 0 0z" fill="#d6cdc1"/>
  <path stroke-miterlimit="10" d="M34.9709 29.4123s-.0943 0 0 0c-.0943.1022-.1888.1022-.1888 0-1.699-1.6355-3.587-2.9643-5.6635-3.9864-2.0766-1.0222-4.2476-1.8399-6.6075-2.2487-.2831 0-.4719-.1022-.7551-.1022h-.1888c-2.5485-.5111-4.9084-1.84-7.5513-4.1908-.8495-.7155-6.6075-5.8263-9.3449-8.1772-.9439-.8177-1.0383-.7155-1.0383-.8177-.0944-.1022-.0944-.2045 0-.2045.0944-.1022.1888-.1022.1888 0 0 0 .0944 0 1.0383.8178 2.7374 2.4531 8.4953 7.4616 9.3449 8.1771 2.643 2.351 5.0028 3.6798 7.5513 4.1908.2832 0 .5663.1022.7551.1022 2.3599.4089 4.6252 1.2266 6.7018 2.2488 1.1328.511 2.171 1.2265 3.115 1.942-.8495-.9199-1.699-1.942-2.3598-2.9642-1.4159-1.942-2.5486-4.1908-3.3981-6.644-.0944-.2044-.1888-.511-.2832-.8177-1.0383-2.6575-2.7374-4.9063-5.286-7.155-.6607-.6133-2.2654-2.0443-4.7195-4.1908-1.6047-1.5332-2.7375-2.4531-5.1916-4.5996-.0944-.1023-.0944-.2045 0-.2045.0944-.1022.1888-.1022.1888 0 2.4541 2.1465 3.5869 3.0665 5.2859 4.4975 2.4543 2.1465 4.059 3.5775 4.7196 4.1908 2.5487 2.2487 4.2477 4.5996 5.286 7.155l.0944.1022c.0944.2044.1888.511.2832.7155.8495 2.351 1.9822 4.5997 3.398 6.5418 1.3216 1.942 2.9263 3.6797 4.7196 5.1107.0945 0 .0945.1022 0 .2044l-.0943.3067zm0 0c0-.1022 0 0 0 0z" stroke="#a58a63" stroke-width="1.02215"/>
  <path d="M6.842 6.925l2.5486.92.1887 1.5332 1.1327.92-.8495 3.1686-2.9261-2.4532-.0944-4.0885z" fill="#d6cdc4"/>
  <path d="M12.4138 3.8586l-.6607 2.4532 1.1327 1.0221 2.2654-1.2266-1.1327-1.6354-1.6047-.6133z" fill="#ede1d3"/>
  <path d="M13.4511 13.058l2.3598-3.1687-.3775-3.9864-2.8318-2.5553-3.6813.4088-2.3598 3.1687.3775 3.9863 2.9262 2.5554 3.587-.4089z" stroke="#a58a63" stroke-linecap="round" stroke-linejoin="round" stroke-width="1.02215"/>
  <path d="M12.0338 10.0937l.9439-1.1244-.1888-1.5332-1.0383-.92-1.4159.2045-.8495 1.1244.0944 1.5332 1.1327.92 1.3215-.2045z" fill="#ede1d3" stroke="#a58a63" stroke-linecap="round" stroke-linejoin="round" stroke-width="1.02215"/>
  <path d="M10.4296 6.7206c0 .1022 0 .1022 0 0-.0944.1022-.1888 0-.1888 0l-1.5103-2.862c0-.1022 0-.2044.0944-.2044s.1888 0 .1888.1022l1.416 2.862c.0943 0 0 .1022 0 .1022zM9.5796 7.9472s-.0944.1022-.1888 0l-2.8318-.92c-.0943 0-.0943-.1021-.0943-.2044 0-.1022.0943-.1022.1887-.1022l2.9262.92v.3066zM9.6743 9.4804l-2.7374 1.6354c-.0944 0-.1888 0-.1888-.1022s0-.2044.0944-.2044L9.58 9.1737c.0944 0 .1888 0 .1888.1023 0 0 0 .1022-.0944.2044zM9.958 13.4668s-.0944.1022-.1888 0c-.0944 0-.0944-.1022-.0944-.2044l.8496-3.0665s.0944-.1022.1888 0c.0943 0 .0943.1022.0943.2044l-.8495 3.0665zM13.6398 13.058c-.0944.1021-.0944.1021 0 0-.0944.1021-.1888 0-.1888 0l-1.5103-2.862c0-.1023 0-.2045.0944-.2045s.1888 0 .1888.1022l1.416 2.862v.1022zM15.9047 9.9915s-.0945.1022-.1888 0l-2.9261-.92c-.0944 0-.0944-.1022-.0944-.2044s.0944-.1022.1887-.1022l2.9261.92c.0945.1022.1888.2044.0945.3066.0943 0 0 0 0 0zM15.5257 6.0051l-2.7374 1.6354c-.0944 0-.1888 0-.1888-.1022s0-.2044.0944-.2044l2.643-1.5332c.0944 0 .1888 0 .1888.1022.0944 0 .0944.1022 0 .1022zM11.8446 6.6184s-.0944.1022-.1888 0c-.0944 0-.0944-.1022-.0944-.2044l.8495-3.1687c0-.1022.0944-.1022.1888-.1022s.0944.1022.0944.2044l-.8495 3.271zM27.2324 19.0886l-.3776 2.9642-2.5485 1.0222 6.1355 2.5553-.1888-1.1243-3.0206-5.4174z" fill="#a58a63"/>
</svg>
