<svg xmlns="http://www.w3.org/2000/svg" viewBox="0 0 39 30">
  <path d="M33.2 20.437c0 .688-.562 1.25-1.25 1.25h-2.437V1.25h2.438c.687 0 1.25.562 1.25 1.25v17.937zM28.264 27.5c0 .688-.562 1.25-1.25 1.25H6.951c-.688 0-1.25-.562-1.25-1.25v-4.563h22.562V27.5zm-11.25-15.375a8.242 8.242 0 0 1 8.25 8.25c0 .375 0 .812-.062 1.188H8.826c-.063-.376-.063-.813-.063-1.188a8.242 8.242 0 0 1 8.25-8.25M13.201 6.5h7.562l-3.75 3.937L13.201 6.5zm.062-2.938h7.5l.625 1.625h-8.75l.625-1.625zM31.951 0h-3.063c-.375 0-.625.25-.625.625v21.063h-1.937c.062-.438.125-.938.125-1.375a9.46 9.46 0 0 0-5.438-8.563l1.188-1.188a.604.604 0 0 0 0-.875.604.604 0 0 0-.875 0l-1.563 1.563c-.5-.188-1.062-.25-1.562-.313l4.5-4.624c.125 0 .25-.625.125-.625l-1.063-2.876a.6.6 0 0 0-.562-.437h-8.438a.6.6 0 0 0-.562.437l-1.063 2.813c-.125.063 0 .625.125.625l4.5 4.625a7.92 7.92 0 0 0-1.75.375l-1.625-1.625a.604.604 0 0 0-.875 0 .604.604 0 0 0 0 .875l1.25 1.25c-3.125 1.562-5.312 4.75-5.312 8.5 0 .437.062.875.125 1.375h-2.5c-.375 0-.625.25-.625.625v5.25c0 1.375 1.125 2.5 2.5 2.5h20.062c1.375 0 2.5-1.125 2.5-2.5v-4.563h2.438c1.375 0 2.5-1.125 2.5-2.5V2.5c0-1.375-1.125-2.5-2.5-2.5" fill="#a58a63"/>
  <path d="M9.926 10.826l1.227.863-1.499.046-.863 1.227-.046-1.5-1.227-.862 1.5-.046.862-1.227.046 1.499zM24.583 5.306l1.145-.383-.686.993.383 1.145-.993-.686-1.145.384.686-.994-.384-1.144.994.685z" fill="#d6cdc1"/>
  <path d="M13.263 3.562h7.5l.625 1.625h-8.75l.625-1.625z" fill="#f4ece4"/>
  <path d="M28.263 27.5c0 .687-.563 1.25-1.25 1.25H6.95c-.687 0-1.25-.563-1.25-1.25v-4.563h22.563V27.5z" fill="#d6cdc1"/>
</svg>