<svg xmlns="http://www.w3.org/2000/svg" viewBox="0 0 39 30">
  <defs>
    <clipPath id="a">
      <path d="M0 79.83h79.829V0H0v79.83z"/>
    </clipPath>
  </defs>
  <g clip-path="url(#a)" transform="matrix(.3758 0 0 -.3758 4.476 30)" fill="#a58a63">
    <path d="M68.368 30.82a.088.088 0 0 1-.005-.014 2.101 2.101 0 0 1-.766.148 2.128 2.128 0 0 1-2.128-2.128c0-.867.52-1.61 1.263-1.941l-.003-.006c3.395-3.552 3.356-9.225-.143-12.724a9.055 9.055 0 0 0-6.44-2.667 9.063 9.063 0 0 0-6.18 2.432c-.003-.001-.005-.001-.007-.003a2.335 2.335 0 0 1-4.42-1.063c0-.255.051-.497.126-.727l-.006-.002c0-.065.013-.117.013-.182 0-5.022-4.085-9.107-9.107-9.107-5.022 0-9.108 4.085-9.108 9.107 0 .065.013.117.013.182-.003 0-.006.003-.009.004.094.263.155.543.155.839a2.48 2.48 0 0 1-2.48 2.48 2.47 2.47 0 0 1-2.217-1.392l-.015.008c-.104-.118-.208-.248-.326-.365a9.055 9.055 0 0 0-6.44-2.667c-2.433 0-4.723.95-6.44 2.667-3.552 3.552-3.552 9.329 0 12.88.17.183.364.339.56.508a.03.03 0 0 0-.004.008 2.022 2.022 0 0 1-.847 3.86 2 2 0 0 1-.655-.117c0 .003-.003.006-.004.009a8.363 8.363 0 0 0-.806-.04c-5.022 0-9.108 4.086-9.108 9.108s4.086 9.108 9.108 9.108c.273 0 .546-.013.806-.04l.004.009c.262-.101.546-.162.844-.162a2.356 2.356 0 0 1 2.357 2.356c0 .95-.564 1.763-1.373 2.136l.003.007c-.143.13-.286.247-.43.39-3.55 3.552-3.55 9.329 0 12.88 1.718 1.718 4.021 2.655 6.454 2.655s4.722-.95 6.44-2.667c.17-.17.312-.34.468-.521l.016.008a2.143 2.143 0 0 1 1.865-1.097c1.19 0 2.153.964 2.153 2.153 0 .2-.035.389-.087.573a.069.069 0 0 1 .008.003c0 .065-.013.117-.013.182 0 5.022 4.086 9.107 9.108 9.107s9.107-4.085 9.107-9.107c0-.065-.013-.117-.013-.182l.012-.005a1.976 1.976 0 0 1 3.653-1.503l.004-.002a9.04 9.04 0 0 0 6.362 2.603c2.433 0 4.723-.95 6.44-2.668 3.448-3.447 3.54-9.003.286-12.568l.006-.011a2.473 2.473 0 0 1-1.433-2.241 2.48 2.48 0 0 1 2.48-2.48c.312 0 .608.065.884.17a.017.017 0 0 0 .002-.004c4.801-.248 8.64-4.216 8.64-9.082 0-4.866-3.826-8.834-8.627-9.094m11.461 9.094c0 5.69-3.99 10.48-9.388 11.654a33.25 33.25 0 0 1-.707 1.67 11.916 11.916 0 0 1-1.599 14.897 11.864 11.864 0 0 1-8.445 3.497c-2.454 0-4.805-.745-6.792-2.126a25.77 25.77 0 0 1-.533.219c-.887 5.716-5.84 10.104-11.8 10.104-5.957 0-10.909-4.383-11.8-10.094a28.29 28.29 0 0 1-.676-.28 11.854 11.854 0 0 1-7.483 2.633c-3.206 0-6.209-1.237-8.458-3.485-4.307-4.308-4.63-11.116-.96-15.804-.146-.33-.287-.664-.423-1C4.73 51.207 0 46.104 0 39.915c0-6.18 4.721-11.28 10.745-11.882.046-.116.092-.23.14-.345-3.83-4.686-3.56-11.624.81-15.993a11.864 11.864 0 0 1 8.444-3.497c2.662 0 5.19.865 7.27 2.465.444-.2.897-.39 1.357-.572C29.658 4.38 34.61 0 40.564 0s10.908 4.383 11.8 10.092c.418.165.833.339 1.244.52a11.88 11.88 0 0 1 6.537-1.96c3.191 0 6.19 1.243 8.446 3.498 4.067 4.068 4.566 10.483 1.447 15.122.141.323.276.65.406.978 5.394 1.182 9.385 5.98 9.385 11.665"/>
    <path d="M28.78 48.36v1.69c0 1.08.284 1.952.853 2.614.57.66 1.332.993 2.29.993.955 0 1.725-.327 2.31-.982.584-.654.876-1.506.876-2.556v-1.667c0-1.112-.288-1.99-.864-2.637-.577-.647-1.337-.97-2.277-.97-.957 0-1.728.323-2.31.97-.587.647-.879 1.496-.879 2.546m8.254-4.905c1.283 1.275 1.924 2.906 1.924 4.895v1.64c0 2.079-.64 3.76-1.924 5.044-1.283 1.282-2.986 1.924-5.11 1.924-2.096 0-3.789-.642-5.079-1.924-1.29-1.283-1.935-2.927-1.935-4.93v-1.617c0-2.126.663-3.814 1.992-5.067 1.328-1.252 3.017-1.878 5.067-1.878 2.094 0 3.782.638 5.065 1.913M51.05 29.77c0-1.138-.277-2.023-.831-2.652-.554-.63-1.317-.945-2.288-.945-.942 0-1.712.33-2.311.991-.601.66-.9 1.505-.9 2.538v1.685c0 1.124.292 2.004.876 2.641.585.638 1.347.957 2.289.957.925 0 1.685-.319 2.277-.957.592-.637.888-1.487.888-2.55V29.77zm1.9 6.627c-1.312 1.26-3.001 1.89-5.065 1.89-2.05 0-3.734-.63-5.055-1.89-1.32-1.26-1.981-2.907-1.981-4.942v-1.662c0-2.08.649-3.753 1.947-5.02 1.298-1.268 3.009-1.902 5.135-1.902 2.125 0 3.82.641 5.089 1.924 1.267 1.283 1.9 2.91 1.9 4.884v1.617c0 2.14-.656 3.84-1.97 5.101m-3.653 15.324l-.003.001a1.645 1.645 0 0 1-1.37 2.553 1.639 1.639 0 0 1-1.468-.918l-.005.003-16.19-25.91.003-.003a1.644 1.644 0 0 1-.26-.882 1.638 1.638 0 1 1 3.098-.754l.005-.003 16.19 25.913z"/>
  </g>
  <path d="M19.03 28.837a5.07 5.07 0 0 1-.602-.187c-.911-.362-1.742-1.312-1.995-2.282-.057-.217-.09-.565-.094-.975-.004-.615-.01-.646-.153-.833-.247-.324-.613-.453-.993-.351-.176.047-.324.162-.678.523-.743.76-1.478 1.081-2.462 1.08-.915 0-1.656-.292-2.31-.908-.454-.429-.71-.82-.9-1.368a3.38 3.38 0 0 1 .517-3.18 3 3 0 0 1 .512-.523c.305-.22.41-.402.41-.715a.772.772 0 0 0-.423-.684c-.152-.077-.268-.087-.69-.059-.993.065-1.88-.271-2.587-.982-.674-.677-1.001-1.455-1.003-2.387a3.424 3.424 0 0 1 2.317-3.23c.303-.105.461-.122 1.145-.125.614-.003.828-.023.95-.088.644-.339.673-1.116.059-1.57-.492-.362-.928-1.043-1.12-1.748-.146-.534-.124-1.339.052-1.883a3.416 3.416 0 0 1 1.673-1.973c.574-.299 1-.388 1.715-.358.974.04 1.679.37 2.384 1.115.403.425.574.504.945.434.197-.037.468-.236.568-.419.034-.063.066-.37.072-.694.008-.465.038-.67.15-1.016.27-.838.88-1.557 1.671-1.969.51-.265.95-.37 1.557-.37.776 0 1.425.21 2.03.656.9.665 1.438 1.812 1.352 2.881-.027.343-.017.423.074.568.138.218.321.336.578.37.257.035.568-.103.691-.306.137-.224.575-.564.984-.762 1.921-.932 4.14.08 4.761 2.17.142.48.131 1.316-.024 1.82-.174.568-.453 1.036-.834 1.401-.182.175-.356.385-.387.466-.084.228-.066.548.045.765.21.413.522.56 1.079.51 1.301-.116 2.688.932 3.188 2.409.148.438.14 1.433-.018 1.929-.273.862-.929 1.636-1.715 2.026-.531.263-1.11.398-1.497.35-.466-.058-.857.21-.95.65-.067.313.016.487.427.9a3.32 3.32 0 0 1 .892 3.05c-.258 1.233-1.275 2.286-2.509 2.596-.477.12-1.433.078-1.887-.083a3.64 3.64 0 0 1-1.302-.83c-.28-.273-.374-.331-.578-.362-.328-.05-.573.04-.802.295-.213.235-.204.197-.212.948-.011 1.015-.396 1.857-1.166 2.545-.737.66-1.962.981-2.907.763zm4.241-7.506c.419-.111.752-.29 1.038-.557.337-.315.519-.586.673-1.006.115-.312.126-.426.126-1.242-.001-1.03-.058-1.294-.392-1.81-.865-1.339-3.038-1.519-4.2-.348-.512.516-.718 1.128-.718 2.131 0 1.016.213 1.65.726 2.164.332.331.695.543 1.136.662.36.097 1.257.1 1.611.006zm-6.482-.861c.079-.081 1.537-2.38 3.24-5.108 2.386-3.822 3.097-5 3.097-5.127 0-.406-.419-.733-.793-.621a.787.787 0 0 0-.301.177c-.06.066-1.495 2.338-3.187 5.05-2.268 3.635-3.082 4.982-3.1 5.127-.068.556.654.903 1.044.502zm.464-6.152c.562-.122 1.163-.548 1.486-1.051.306-.476.384-.824.385-1.718 0-.436-.027-.909-.061-1.051-.206-.845-.835-1.529-1.637-1.778-1.593-.496-3.177.292-3.52 1.75-.107.452-.107 1.6 0 2.052.325 1.383 1.746 2.145 3.347 1.796z" fill="#fff"/>
  <path d="M16.16 13.083a1.019 1.019 0 0 1-.458-.273c-.327-.315-.418-.654-.389-1.459.02-.555.037-.639.178-.897.205-.377.464-.548.876-.578.412-.03.729.091.965.367.258.302.31.553.29 1.38-.018.684-.025.72-.18.97-.262.424-.756.613-1.282.49zm5.796 6.934a1.386 1.386 0 0 1-.556-.622c-.048-.115-.071-.407-.071-.901 0-.683.01-.75.139-1.01.09-.18.213-.327.353-.42.188-.125.265-.141.65-.141.398 0 .454.013.66.159.138.096.28.262.362.421.126.245.135.313.135 1.004 0 .686-.01.76-.132 1.003a1.507 1.507 0 0 1-.335.422c-.18.144-.247.163-.608.175-.321.011-.444-.007-.597-.09z" fill="#fff"/>
</svg>