<svg xmlns="http://www.w3.org/2000/svg" viewBox="0 0 39.000001 30">
  <defs>
    <clipPath id="a">
      <path d="M0 76.875h56.938V0H0v76.875z"/>
    </clipPath>
  </defs>
  <path fill="#f4ece4" d="M14.578.422l.975 5.355 8.415.133L25.096.568 14.578.422z"/>
  <path fill="#d6cdc1" d="M15.561 24.303l-.975 5.355 10.518-.147-1.128-5.34-8.415.132z"/>
  <g transform="matrix(.39 0 0 -.39 8.56 30)" clip-path="url(#a)">
    <path fill="#f4ece4" d="M42.763 1.582L40.15 14.624s2.575 2.689 2.559 3.15c-.02.579 13.587-2.418 13.587-2.418L42.763 1.582z"/>
    <path fill="#d6cdc1" d="M43.4 56.96l-.417-40.333 12.855-1.584v47.5L43.4 56.96z"/>
    <path fill="#f4ece4" d="M14.776 75.043L17.28 61.73s-3.736-3.669-3.319-5.229L1.752 61.744l13.024 13.3zm-.179-73.461l2.613 13.042s-2.575 2.689-2.559 3.15c.02.579-13.587-2.418-13.587-2.418L14.597 1.582z"/>
    <path fill="#d6cdc1" d="M14.19 56.49l.417-40.334-12.855-1.583v47.5L14.19 56.49z"/>
    <path fill="#a58a63" d="M19.366 60.569a4.595 4.595 0 0 1-4.59-4.59V20.92a4.595 4.595 0 0 1 4.59-4.59h18.182a4.595 4.595 0 0 1 4.59 4.59v35.058a4.595 4.595 0 0 1-4.59 4.59H19.366zm18.182-46.204H19.366a6.563 6.563 0 0 0-6.556 6.556v35.058a6.563 6.563 0 0 0 6.556 6.556h18.182a6.562 6.562 0 0 0 6.556-6.556V20.92a6.562 6.562 0 0 0-6.556-6.556"/>
    <path fill="#a58a63" d="M14.602 2h28.274l12.062 13.017v47.191L42.153 74.874l-26.424-.061L2.228 60.292 2.002 14.6 14.602 2zm28.71-2H14.189a.996.996 0 0 0-.707.293L.293 13.48a1.006 1.006 0 0 0-.293.712l.23 46.5a.997.997 0 0 0 .268.676L14.56 76.493a1 1 0 0 0 .73.32l27.27.062h.003a.998.998 0 0 0 .704-.29l13.375-13.25a.997.997 0 0 0 .296-.71v-48a.998.998 0 0 0-.267-.68L44.046.32a1 1 0 0 0-.733-.32"/>
    <path fill="none" stroke="#a58a63" stroke-width="2" stroke-linecap="round" stroke-linejoin="round" stroke-miterlimit="10" d="M15.42 75.793l2.5-13.72m21.563-.342l2.89 13.688m13.465-12.876L43.4 56.96m-1.027-39.793l13.464-2.124m-16.167-.187l2.703-13.635M17.21 14.624L14.54 1.22m.537 15.26L1.065 14.573m.687 46.14L13.4 56.712"/>
  </g>
</svg>