<svg viewBox="0 0 21 21" fill="none" xmlns="http://www.w3.org/2000/svg">
  <path d="M10.345 20.225C15.6798 20.225 20.0045 15.9068 20.0045 10.58C20.0045 5.25321 15.6798 0.934998 10.345 0.934998C5.01024 0.934998 0.685547 5.25321 0.685547 10.58C0.685547 15.9068 5.01024 20.225 10.345 20.225Z" stroke="#A58A63" stroke-miterlimit="10"/>
  <path d="M10.6141 1.00264L7.70948 4.03778L3.52145 3.90288L3.7241 8.08463L0.751953 10.7825L3.65655 13.5479L3.7241 17.3924L7.64193 17.5273L10.3439 20.1577" stroke="#A58A63" stroke-miterlimit="10" stroke-linecap="round" stroke-linejoin="round"/>
  <path d="M1.49707 7.07272L3.72618 8.08444" stroke="#A58A63" stroke-miterlimit="10" stroke-linecap="round" stroke-linejoin="round"/>
  <path d="M6.76571 1.94672L7.71139 4.03759C7.71139 4.03759 7.03591 6.12846 6.15777 8.35423C5.27964 10.58 3.65847 13.4802 3.65847 13.4802L1.56445 14.2896" stroke="#A58A63" stroke-miterlimit="10" stroke-linecap="round" stroke-linejoin="round"/>
  <path d="M19.3977 7.34251L17.2362 8.21933C17.2362 8.21933 16.223 10.1753 15.2773 12.4011C14.3316 14.6269 13.3184 17.5271 13.3184 17.5271L13.9263 19.3482" stroke="#A58A63" stroke-miterlimit="10" stroke-linecap="round" stroke-linejoin="round"/>
  <path d="M7.64355 3.97014C7.64355 3.97014 10.0753 5.25164 12.3044 6.26336C14.5335 7.27507 17.1004 8.35423 17.1004 8.35423" stroke="#A58A63" stroke-miterlimit="10" stroke-linecap="round" stroke-linejoin="round"/>
  <path d="M3.79297 8.08444C3.79297 8.08444 6.42737 7.20762 8.65648 6.26336C10.8856 5.31909 13.4524 4.23993 13.4524 4.23993" stroke="#A58A63" stroke-miterlimit="10" stroke-linecap="round" stroke-linejoin="round"/>
  <path d="M7.57684 17.7294C7.57684 17.7294 6.69871 15.099 5.75303 12.8732C4.80734 10.6474 3.72656 8.08444 3.72656 8.08444" stroke="#A58A63" stroke-miterlimit="10" stroke-linecap="round" stroke-linejoin="round"/>
  <path d="M17.437 13.6151C17.437 13.6151 14.8026 14.492 12.5735 15.3688C10.3444 16.2456 7.70996 17.3922 7.70996 17.3922" stroke="#A58A63" stroke-miterlimit="10" stroke-linecap="round" stroke-linejoin="round"/>
  <path d="M7.64245 17.5271L6.89941 19.3482" stroke="#A58A63" stroke-miterlimit="10" stroke-linecap="round" stroke-linejoin="round"/>
  <path d="M10.75 20.1575L13.3169 17.5945C13.3169 17.5945 10.8176 16.3805 8.5209 15.5711C6.22425 14.7617 3.58984 13.75 3.58984 13.75" stroke="#A58A63" stroke-miterlimit="10" stroke-linecap="round" stroke-linejoin="round"/>
  <path d="M13.3184 17.5946H16.8309" stroke="#A58A63" stroke-miterlimit="10" stroke-linecap="round" stroke-linejoin="round"/>
  <path d="M17.3701 13.6826L17.4377 16.8526" stroke="#A58A63" stroke-miterlimit="10" stroke-linecap="round" stroke-linejoin="round"/>
  <path d="M17.5068 13.6826L19.128 14.2222" stroke="#A58A63" stroke-miterlimit="10" stroke-linecap="round" stroke-linejoin="round"/>
  <path d="M14.1968 1.74437L13.5213 4.30738L17.1689 3.97014L17.304 8.21934L20.006 10.58L19.9384 11.187L17.4391 13.6826C17.4391 13.6826 16.3584 11.187 15.4127 9.02871C14.467 6.87039 13.5889 4.30738 13.5889 4.30738L10.4141 1.13734" stroke="#A58A63" stroke-miterlimit="10" stroke-linecap="round" stroke-linejoin="round"/>
</svg>
